<svg width="30" height="30" fill="none" xmlns="http://www.w3.org/2000/svg"><path d="M23.95 14.375c.344 0 .624-.28.624-.625v-.938a.625.625 0 00-1.25 0v.938c0 .345.28.625.625.625zm1.248 4.891c-.294-.102-.603-.2-.929-.293a.625.625 0 10-.343 1.202c.302.086.589.176.86.271a.622.622 0 00.796-.385.625.625 0 00-.385-.795zm-1.248-1.453c.344 0 .624-.28.624-.625v-.938a.625.625 0 00-1.25 0v.938c0 .345.28.625.625.625zm-17.9-1.387a.625.625 0 00-.624.625v.938a.625.625 0 001.25 0v-.938a.625.625 0 00-.625-.625zM4.936 19.22c-.327.11-.635.225-.92.346a.625.625 0 00.485 1.152c.259-.11.537-.214.833-.314a.625.625 0 00-.398-1.185zm1.114-6.231a.625.625 0 00-.624.625v.937a.625.625 0 001.25 0v-.937a.625.625 0 00-.625-.625zm11.981 3.512l-3.828-2.21a1.856 1.856 0 00-1.875 0 1.855 1.855 0 00-.937 1.624v4.42c0 .677.35 1.285.937 1.624a1.865 1.865 0 001.875 0l3.828-2.21c.587-.338.938-.946.938-1.623 0-.678-.35-1.286-.938-1.625zm-.625 2.165l-3.828 2.21a.615.615 0 01-.625 0 .615.615 0 01-.312-.541v-4.42c0-.326.218-.487.312-.541a.607.607 0 01.625 0l3.828 2.21a.614.614 0 01.313.54c0 .11-.03.379-.313.542z" fill="#fff"/><path d="M24.116 3.148a.623.623 0 00-.792.603v5.202c-2.098.525-4.923.89-8.324.89-3.4 0-6.226-.365-8.324-.89V3.751a.625.625 0 00-.792-.603C2.852 3.987 1.25 5.178 1.25 6.59v15.782c0 2.957 6.917 4.503 13.75 4.503s13.75-1.547 13.75-4.503V6.59c0-1.413-1.602-2.603-4.634-3.442zm.458 1.444C26.716 5.297 27.5 6.09 27.5 6.59c0 .634-1.035 1.384-2.926 2.004V4.592zm-19.148 0v4.002c-1.891-.62-2.927-1.37-2.927-2.004 0-.5.784-1.293 2.927-1.998zm9.573 21.033c-7.744 0-12.5-1.894-12.5-3.253 0-.151.064-.308.195-.48a.625.625 0 00-.116-.876c-.024-.018-.053-.024-.079-.038V8.584c.735.53 1.76.977 2.982 1.34a.618.618 0 00-.055.253v.937a.625.625 0 001.25 0v-.873c2.416.564 5.377.852 8.323.852 2.947 0 5.908-.288 8.324-.852v.072a.625.625 0 001.25 0v-.405c1.197-.36 2.202-.802 2.926-1.324v11.827a.615.615 0 00-.772.171.624.624 0 00.122.875c.227.172.4.344.51.512a.613.613 0 00.14.145v.258c0 1.359-4.755 3.253-12.5 3.253z" fill="#fff"/></svg>