<svg width="41" height="40" fill="none" xmlns="http://www.w3.org/2000/svg"><path d="M24.363 15.181l-1.4-1.4a.54.54 0 00-.753 0 .54.54 0 000 .754l1.772 1.772a.51.51 0 00.744 0l3.544-3.544a.54.54 0 000-.753.54.54 0 00-.753 0l-3.154 3.171z" fill="#999"/><path d="M24.363 19.123a4.964 4.964 0 004.961-4.96.533.533 0 00-.531-.532.533.533 0 00-.532.531 3.898 3.898 0 11-3.898-3.898c.85 0 1.657.266 2.339.78a.526.526 0 00.744-.106.527.527 0 00-.106-.745 4.948 4.948 0 00-2.977-.992 4.964 4.964 0 00-4.961 4.961 4.964 4.964 0 004.961 4.961zm-14.175-2.657h.355v2.126c0 .204.115.39.292.478a.55.55 0 00.24.053.53.53 0 00.318-.106l3.544-2.657a.526.526 0 00.106-.745.526.526 0 00-.744-.106l-2.693 2.02v-1.595a.533.533 0 00-.532-.531h-.886c-.682 0-1.24-.558-1.24-1.24v-8.86c0-.682.558-1.24 1.24-1.24h11.517c.683 0 1.24.558 1.24 1.24 0 .293.24.532.532.532.293 0 .532-.24.532-.532A2.31 2.31 0 0021.705 3H10.19a2.31 2.31 0 00-2.304 2.303v8.86a2.31 2.31 0 002.303 2.303z" fill="#999"/><path d="M15.858 8.846v10.63a2.31 2.31 0 002.304 2.304h6.91l3.402 2.551a.528.528 0 00.319.107c.08 0 .16-.018.239-.054a.535.535 0 00.292-.478V21.78h1.24a2.31 2.31 0 002.304-2.303V8.846a2.31 2.31 0 00-2.304-2.304H18.162a2.31 2.31 0 00-2.304 2.304zm15.947 0v10.63c0 .683-.558 1.24-1.24 1.24h-1.772a.533.533 0 00-.532.532v1.595l-2.693-2.02a.512.512 0 00-.319-.106h-7.087c-.682 0-1.24-.558-1.24-1.24V8.846c0-.683.558-1.24 1.24-1.24h12.402c.683 0 1.24.557 1.24 1.24zM12.846 26.034a3.187 3.187 0 00-3.189 3.19 3.187 3.187 0 003.19 3.189 3.187 3.187 0 003.188-3.19 3.193 3.193 0 00-3.189-3.189zm0 5.316a2.132 2.132 0 01-2.126-2.126c0-1.17.957-2.127 2.126-2.127 1.17 0 2.126.957 2.126 2.127s-.956 2.126-2.126 2.126zm0 1.77c-3.783 0-5.678 2.773-5.758 2.897a.534.534 0 00.886.594c.07-.098 1.674-2.419 4.872-2.419s4.81 2.321 4.873 2.419c.106.15.274.239.443.239a.53.53 0 00.443-.824c-.08-.133-1.976-2.906-5.759-2.906zm14.174-7.086a3.187 3.187 0 00-3.189 3.19 3.187 3.187 0 003.19 3.189 3.187 3.187 0 003.189-3.19 3.193 3.193 0 00-3.19-3.189zm0 5.316a2.132 2.132 0 01-2.125-2.126c0-1.17.956-2.127 2.126-2.127s2.126.957 2.126 2.127-.957 2.126-2.126 2.126zm5.76 4.667c-.08-.115-1.976-2.897-5.76-2.897-3.782 0-5.678 2.773-5.758 2.897a.528.528 0 00.151.735c.24.16.576.098.735-.141.071-.098 1.675-2.419 4.873-2.419 3.198 0 4.81 2.321 4.872 2.419.107.15.275.239.443.239a.514.514 0 00.293-.089.544.544 0 00.15-.744z" fill="#999"/></svg>