<svg width="29" height="28" fill="none" xmlns="http://www.w3.org/2000/svg"><path d="M17.57 10.627l-.98-.98a.378.378 0 00-.526 0 .378.378 0 000 .527l1.24 1.24a.357.357 0 00.52 0l2.481-2.48a.378.378 0 000-.527.378.378 0 00-.527 0l-2.207 2.22z" fill="#FE3D3D"/><path d="M17.57 13.386a3.475 3.475 0 003.473-3.472.373.373 0 00-.372-.372.373.373 0 00-.372.372 2.729 2.729 0 11-1.091-2.183.368.368 0 00.52-.075.37.37 0 00-.074-.52 3.475 3.475 0 00-5.556 2.778 3.475 3.475 0 003.472 3.472zm-9.922-1.86h.248v1.489c0 .142.081.272.205.334a.371.371 0 00.39-.037l2.481-1.86a.368.368 0 00.075-.521.369.369 0 00-.521-.075L8.64 12.27v-1.116a.373.373 0 00-.373-.372h-.62a.87.87 0 01-.868-.868V3.712a.87.87 0 01.868-.868h8.062a.87.87 0 01.868.868c0 .205.168.373.372.373a.373.373 0 00.373-.373c0-.886-.726-1.612-1.613-1.612H7.648c-.886 0-1.612.726-1.612 1.612v6.202c0 .887.726 1.612 1.612 1.612z" fill="#FE3D3D"/><path d="M11.617 6.192v7.442c0 .887.726 1.612 1.612 1.612h4.838l2.38 1.786c.07.05.144.075.224.075a.41.41 0 00.168-.038.375.375 0 00.204-.334v-1.489h.868c.887 0 1.613-.725 1.613-1.612V6.192c0-.887-.726-1.612-1.613-1.612H13.23c-.886 0-1.612.725-1.612 1.612zm11.163 0v7.442a.87.87 0 01-.869.868h-1.24a.373.373 0 00-.372.372v1.116l-1.885-1.414a.359.359 0 00-.223-.074H13.23a.87.87 0 01-.869-.868V6.192a.87.87 0 01.868-.868h8.682a.87.87 0 01.869.868zM9.509 18.224a2.231 2.231 0 00-2.233 2.233c0 1.234.999 2.232 2.233 2.232a2.231 2.231 0 002.232-2.232 2.235 2.235 0 00-2.232-2.233zm0 3.72a1.492 1.492 0 01-1.489-1.487c0-.819.67-1.489 1.489-1.489.818 0 1.488.67 1.488 1.489 0 .818-.67 1.488-1.488 1.488zm0 1.24c-2.648 0-3.975 1.941-4.031 2.028a.374.374 0 00.62.416c.05-.069 1.172-1.693 3.41-1.693 2.24 0 3.368 1.624 3.412 1.693a.386.386 0 00.31.167.371.371 0 00.31-.577c-.056-.093-1.383-2.034-4.031-2.034zm9.922-4.96a2.231 2.231 0 00-2.233 2.233c0 1.234.999 2.232 2.233 2.232a2.231 2.231 0 002.232-2.232 2.235 2.235 0 00-2.232-2.233zm0 3.72a1.491 1.491 0 01-1.488-1.487c0-.819.67-1.489 1.488-1.489.819 0 1.488.67 1.488 1.489 0 .818-.67 1.488-1.488 1.488zm4.031 3.268c-.056-.08-1.383-2.028-4.031-2.028-2.648 0-3.975 1.941-4.031 2.028a.37.37 0 00.105.515.375.375 0 00.515-.1c.05-.068 1.172-1.692 3.41-1.692 2.24 0 3.368 1.624 3.412 1.693a.386.386 0 00.31.167.36.36 0 00.204-.062.38.38 0 00.106-.52z" fill="#FE3D3D"/></svg>