<svg width="29" height="28" fill="none" xmlns="http://www.w3.org/2000/svg"><g clip-path="url(#clip0_1_43309)" fill="#FE3D3D"><path d="M18.256 19.102h-6.832a.303.303 0 010-.607h6.529V6.992a.786.786 0 00-.785-.785H3.667a.786.786 0 00-.785.785V17.71c0 .433.352.786.785.786h1.946a.303.303 0 110 .607H3.667a1.394 1.394 0 01-1.392-1.393V6.992c0-.767.624-1.392 1.392-1.392h13.5c.768 0 1.392.625 1.392 1.392v11.806a.303.303 0 01-.303.304z"/><path d="M8.519 21.749a3.225 3.225 0 01-3.222-3.222 3.225 3.225 0 013.222-3.222 3.225 3.225 0 013.222 3.222 3.225 3.225 0 01-3.222 3.222zm0-5.837a2.618 2.618 0 00-2.615 2.615 2.618 2.618 0 002.615 2.615 2.618 2.618 0 002.615-2.615 2.618 2.618 0 00-2.615-2.615z"/><path d="M8.519 19.865a1.34 1.34 0 010-2.679 1.341 1.341 0 010 2.68zm0-2.072a.734.734 0 10.001 1.467.734.734 0 00-.001-1.467zM27.258 19.1h-.633a.303.303 0 010-.606h.633c.357 0 .647-.29.647-.646v-4.075a.645.645 0 00-.388-.592l-2.458-1.074a.303.303 0 01-.165-.18l-.68-1.983a2.533 2.533 0 00-2.396-1.711h-3.256v10.261h2.252a.303.303 0 010 .607h-2.555a.303.303 0 01-.304-.304V7.93c0-.168.136-.304.304-.304h3.559a3.14 3.14 0 012.97 2.121l.636 1.857 2.335 1.02c.457.199.753.65.753 1.149v4.075c0 .69-.563 1.253-1.254 1.253zM5.819 14.112H3.674a.303.303 0 010-.607h2.145a.303.303 0 110 .607zm0-1.979h-4.29a.303.303 0 110-.606h4.29a.303.303 0 010 .607zm0-1.978H1.053a.303.303 0 110-.607H5.82a.303.303 0 010 .607z"/><path d="M28.208 15.206h-1.137a.303.303 0 010-.607h1.137a.303.303 0 010 .607zm-3.028-3.074h-3.288a1.903 1.903 0 01-1.9-1.9V7.93c0-.168.135-.304.302-.304h1.524a3.14 3.14 0 012.97 2.122l.68 1.983a.303.303 0 01-.287.401zm-4.582-3.9v2c0 .713.58 1.294 1.294 1.294h2.864l-.542-1.582a2.533 2.533 0 00-2.396-1.711h-1.22zm3.122 13.517a3.226 3.226 0 01-3.222-3.222 3.225 3.225 0 013.222-3.222 3.225 3.225 0 013.222 3.222 3.226 3.226 0 01-3.222 3.222zm0-5.837a2.618 2.618 0 00-2.615 2.615 2.618 2.618 0 002.615 2.615 2.618 2.618 0 002.615-2.615 2.618 2.618 0 00-2.615-2.615z"/><path d="M23.72 19.865a1.34 1.34 0 010-2.679 1.341 1.341 0 010 2.68zm0-2.072a.734.734 0 10.001 1.467.734.734 0 00-.001-1.467z"/></g><defs><clipPath id="clip0_1_43309"><path fill="#fff" transform="translate(.75)" d="M0 0h28v28H0z"/></clipPath></defs></svg>