<svg width="41" height="40" fill="none" xmlns="http://www.w3.org/2000/svg"><path d="M34.827 26.323v5.115a2.273 2.273 0 01-2.273 2.274H5.273A2.273 2.273 0 013 31.438V15.525a2.273 2.273 0 012.273-2.273h27.28a2.273 2.273 0 012.274 2.273v8.525M5.228 10.978a2.27 2.27 0 011.488-.807l27.097-3.156a2.273 2.273 0 012.52 1.996l1.842 15.806a2.273 2.273 0 01-1.996 2.521l-1.352.158M6.41 26.892h4.547M6.41 29.733h11.367m-4.547-2.841h4.547m2.273 0h4.547m2.273 0h4.547M8.683 21.777H9.82m19.856.568a5.724 5.724 0 000-5.115m-2.038 4.089c.23-.462.369-.979.369-1.531 0-.553-.139-1.07-.37-1.532m-2.03 2.04c.079-.153.127-.324.127-.508 0-.185-.048-.356-.126-.51M10.957 24.05h-3.41a1.137 1.137 0 01-1.137-1.137V20.64c0-.628.509-1.137 1.137-1.137h3.41c.627 0 1.136.51 1.136 1.137v2.273c0 .628-.508 1.137-1.136 1.137z" stroke="#999" stroke-miterlimit="10" stroke-linecap="round" stroke-linejoin="round"/></svg>