<svg width="29" height="28" fill="none" xmlns="http://www.w3.org/2000/svg"><path d="M13.013 25.054H4.248a1.867 1.867 0 01-1.865-1.865v-7.352c0-1.028.837-1.865 1.865-1.865h8.765c1.028 0 1.865.837 1.865 1.865v7.352a1.867 1.867 0 01-1.865 1.865zM4.248 14.58c-.693 0-1.256.564-1.256 1.256v7.352c0 .693.563 1.256 1.256 1.256h8.765c.693 0 1.256-.563 1.256-1.256v-7.352c0-.692-.563-1.256-1.256-1.256H4.248z" fill="#FE3D3D"/><path d="M9.963 17a.303.303 0 01-.122-.026l-1.21-.531-1.21.53a.304.304 0 01-.427-.278v-2.418c0-.168.136-.305.304-.305h2.665c.168 0 .305.137.305.305v2.418a.304.304 0 01-.305.305zM8.63 15.806c.042 0 .084.009.123.026l.906.398v-1.65H7.602v1.65l.906-.398a.306.306 0 01.122-.026zm16.27 9.248h-8.766a1.867 1.867 0 01-1.865-1.865v-7.352c0-1.028.837-1.865 1.865-1.865H24.9c1.028 0 1.865.837 1.865 1.865v7.352a1.867 1.867 0 01-1.865 1.865zM16.133 14.58c-.692 0-1.256.564-1.256 1.256v7.352c0 .693.564 1.256 1.256 1.256H24.9c.693 0 1.257-.563 1.257-1.256v-7.352c0-.692-.564-1.256-1.257-1.256h-8.765z" fill="#FE3D3D"/><path d="M19.184 17a.304.304 0 01-.304-.305v-2.418c0-.168.136-.305.304-.305h2.665c.168 0 .305.137.305.305v2.418a.304.304 0 01-.427.279l-1.21-.531-1.21.53a.304.304 0 01-.123.027zm1.333-1.194c.041 0 .083.009.122.026l.906.398v-1.65h-2.057v1.65l.906-.398a.305.305 0 01.123-.026z" fill="#FE3D3D"/><path d="M18.956 14.582H10.19a1.867 1.867 0 01-1.865-1.866V5.365c0-1.028.837-1.865 1.865-1.865h8.765c1.028 0 1.865.837 1.865 1.865v7.351a1.867 1.867 0 01-1.865 1.866zM10.19 4.107c-.693 0-1.256.564-1.256 1.257v7.351c0 .693.563 1.257 1.256 1.257h8.765c.693 0 1.256-.564 1.256-1.257v-7.35c0-.693-.563-1.257-1.256-1.257H10.19z" fill="#FE3D3D"/><path d="M15.906 6.527a.303.303 0 01-.122-.026l-1.21-.53-1.21.53a.305.305 0 01-.427-.278V3.804c0-.168.136-.304.304-.304h2.665c.168 0 .305.136.305.304v2.419a.304.304 0 01-.305.304zm-1.332-1.193c.041 0 .083.008.122.026l.906.397V4.11h-2.057v1.648l.906-.397a.304.304 0 01.123-.026zM8.63 21.536a1.547 1.547 0 01-1.545-1.545v-1.687c0-.168.137-.304.305-.304h2.48c.168 0 .305.136.305.304v1.687c0 .852-.693 1.545-1.545 1.545zm-.936-2.928v1.383a.938.938 0 001.873 0v-1.383H7.694z" fill="#FE3D3D"/><path d="M8.63 23.88a.304.304 0 01-.304-.305v-2.344a.304.304 0 01.609 0v2.344a.304.304 0 01-.304.304z" fill="#FE3D3D"/><path d="M9.57 23.88H7.69a.304.304 0 010-.61h1.88a.304.304 0 110 .61zm10.947-.137a.984.984 0 01-.984-.984v-2.287a.304.304 0 01.609 0v2.287a.375.375 0 00.75 0v-2.287a.304.304 0 01.608 0v2.287a.984.984 0 01-.983.984z" fill="#FE3D3D"/><path d="M21.828 21.129a.977.977 0 01-.695-.289l-.616-.616-.617.616a.977.977 0 01-.695.289.984.984 0 01-.695-1.679l1.311-1.312a.99.99 0 01.696-.288c.262 0 .51.102.695.288l1.312 1.312a.977.977 0 01.288.695c0 .263-.103.51-.288.696a.977.977 0 01-.696.288zm-1.311-1.64a.3.3 0 01.215.09l.832.831a.372.372 0 00.53 0 .372.372 0 000-.53l-1.312-1.312a.378.378 0 00-.53 0L18.94 19.88a.375.375 0 00.53.53l.832-.831a.303.303 0 01.215-.09zm-4.433-7.835h-.017a.304.304 0 01-.304-.304c-.01-.084-.4-.36-1.19-.36-.789 0-1.179.276-1.189.36a.304.304 0 01-.304.304h-.017a.304.304 0 01-.304-.304c0-.17-.242-.36-.59-.36-.293 0-.509.138-.57.274a.304.304 0 01-.573-.2c.4-1.575 1.892-2.718 3.548-2.718 1.644 0 3.127 1.128 3.539 2.687a.303.303 0 01-.276.41.304.304 0 01-.289-.179c-.06-.136-.276-.275-.57-.275-.348 0-.59.19-.59.36a.304.304 0 01-.304.305zm-1.51-1.273c.551 0 1.107.127 1.452.374.217-.23.56-.374.952-.374.068 0 .135.005.201.014a3.101 3.101 0 00-2.605-1.44 3.1 3.1 0 00-2.606 1.44 1.34 1.34 0 01.201-.014c.393 0 .735.145.953.374.344-.247.9-.374 1.452-.374z" fill="#FE3D3D"/><path d="M14.573 8.955a.304.304 0 01-.304-.304v-.445a.304.304 0 11.609 0v.445a.304.304 0 01-.305.304zm0 4.666a.304.304 0 01-.304-.304v-2.63a.304.304 0 01.609 0v2.63a.304.304 0 01-.305.304z" fill="#FE3D3D"/></svg>