<svg width="29" height="28" fill="none" xmlns="http://www.w3.org/2000/svg"><g clip-path="url(#clip0_1_43324)"><path d="M1.466 22.204c.39.145.782.299 1.166.456.109.045.136.159.07.251-.239.341-.472.684-.699 1.03-.388.596.187 1.333.87 1.123a40.908 40.908 0 016.029-1.347.295.295 0 00.242-.325l-.238-1.648c3.868-.53 7.82-.53 11.688 0l-.239 1.648a.293.293 0 00.243.325c2.035.295 4.063.748 6.029 1.347.686.21 1.256-.529.87-1.123-.226-.344-.461-.69-.7-1.03-.066-.094-.037-.207.07-.25.382-.157.775-.311 1.166-.457.684-.252.642-1.202-.1-1.43a45.44 45.44 0 00-3.039-.81l.262-1.174c.093-.416-.208-.822-.653-.916-.52-.11-1.042-.208-1.564-.3a2.048 2.048 0 00.324-1.909 1.49 1.49 0 01.43-1.588c.92-.82.923-2.264 0-3.086a.25.25 0 00-.031-.024c-.827-.774-.292-1.61-.292-2.22a2.07 2.07 0 00-1.654-2.02 1.491 1.491 0 01-1.16-1.162A2.065 2.065 0 0017.88 4.02a1.481 1.481 0 01-1.585-.427 2.066 2.066 0 00-3.088 0 .312.312 0 00-.016.02c-.793.871-1.553.3-2.23.3-.973 0-1.822.695-2.017 1.652A1.486 1.486 0 017.78 6.727a2.066 2.066 0 00-1.545 2.678c.181.54.044 1.162-.427 1.585a2.065 2.065 0 00.002 3.09c.32.284.502.69.502 1.115 0 .435-.546 1.347.247 2.38-.524.092-1.048.19-1.572.3-.45.095-.747.505-.653.917l.262 1.175a45.648 45.648 0 00-3.032.808c-.74.227-.782 1.178-.1 1.429zm7.037.76c-.705-.3-1.416-.573-2.06-.807 1-.196 1.464-.262 1.895-.327l.165 1.135zm14.553-.807c-.71.258-1.553.592-2.06.808l.165-1.135c.453.068.903.132 1.895.327zm4.777-.49c-.398.148-.796.304-1.184.463a.733.733 0 00-.321 1.11c.236.337.465.675.688 1.015.098.149-.051.312-.222.26a41.459 41.459 0 00-5.122-1.21 41.922 41.922 0 012.552-.943.304.304 0 00.19-.21l.364-1.627c1.003.23 2.007.5 2.988.798.198.06.25.276.068.343zm-20.6-4.208a1.49 1.49 0 01-.53-1.137c0-.442.184-.584.184-1.127 0-.588-.253-1.15-.697-1.547a1.487 1.487 0 01.003-2.23c.614-.547.845-1.4.594-2.176L6.78 9.22a1.492 1.492 0 011.114-1.931 2.06 2.06 0 001.61-1.61 1.493 1.493 0 011.457-1.192c.503 0 1.66.631 2.672-.508a1.491 1.491 0 012.234 0 2.055 2.055 0 002.196.585 1.491 1.491 0 011.932 1.116c.17.825.817 1.451 1.608 1.609a1.495 1.495 0 011.193 1.458c0 .493-.626 1.658.51 2.672l.031.024a1.495 1.495 0 01-.03 2.208 2.064 2.064 0 00-.589 2.195 1.488 1.488 0 01-.45 1.61 49.371 49.371 0 00-3.08-.392c1.304-1.306 1.908-2.893 1.908-4.532a6.353 6.353 0 00-6.345-6.345 6.354 6.354 0 00-6.348 6.345c0 1.665.637 3.272 1.907 4.532a48.86 48.86 0 00-3.069.393l-.008.002zm12.047-1.35a4.846 4.846 0 00-3.2-3.033 2.543 2.543 0 001.214-2.165 2.546 2.546 0 00-2.544-2.543 2.547 2.547 0 00-2.544 2.543c0 .915.487 1.716 1.214 2.165a4.84 4.84 0 00-3.2 3.032 5.738 5.738 0 01-1.243-3.576 5.78 5.78 0 015.774-5.771 5.778 5.778 0 015.771 5.771c0 1.31-.438 2.56-1.242 3.576zm-4.54-3.228a1.973 1.973 0 01-1.96-1.97c0-1.086.884-1.97 1.97-1.97 1.086 0 1.97.884 1.97 1.97 0 1.084-.88 1.966-1.962 1.97h-.017zm.01.575h.01a4.256 4.256 0 014.078 3.152c-.15.154-.328.31-.42.386a47.901 47.901 0 00-7.33 0 5.302 5.302 0 01-.424-.387 4.251 4.251 0 014.078-3.152h.008zm-9.643 4.981a46.631 46.631 0 0119.277-.001c.118.024.236.124.212.229l-.688 3.081a43.756 43.756 0 00-18.325.002l-.689-3.082c-.023-.103.093-.204.213-.229zm-3.374 2.886c.983-.3 1.988-.567 2.989-.798l.364 1.627a.3.3 0 00.19.21c.808.266 1.826.645 2.552.943-1.73.294-3.449.7-5.123 1.21-.17.053-.318-.11-.222-.26.224-.34.453-.678.689-1.014a.732.732 0 00-.322-1.111c-.39-.16-.789-.316-1.185-.464-.184-.068-.127-.283.068-.343z" fill="#FE3D3D"/></g><defs><clipPath id="clip0_1_43324"><path fill="#fff" transform="translate(.75)" d="M0 0h28v28H0z"/></clipPath></defs></svg>