<svg width="29" height="28" fill="none" xmlns="http://www.w3.org/2000/svg"><path d="M14.683 16.767a.351.351 0 00.207-.063c.164-.107 3.943-2.673 3.943-6.602a.377.377 0 00-.277-.365c-2.113-.585-3.565-2.37-3.578-2.39a.38.38 0 00-.295-.138c-.113 0-.22.05-.296.139-.012.018-1.465 1.798-3.577 2.389a.377.377 0 00-.277.365c0 3.93 3.779 6.495 3.943 6.602a.365.365 0 00.207.063zM11.3 10.378c1.641-.54 2.855-1.66 3.39-2.226.527.56 1.741 1.685 3.388 2.226-.15 2.88-2.64 4.98-3.389 5.546-.748-.566-3.238-2.666-3.389-5.546z" fill="#FE3D3D"/><path d="M16.84 10.466a.383.383 0 00-.535 0l-2.25 2.251-.994-.993a.383.383 0 00-.535 0 .383.383 0 000 .534l1.258 1.258c.075.075.17.113.264.113a.362.362 0 00.264-.113L16.827 11a.372.372 0 00.013-.535zm2.05 10.671a.382.382 0 00-.497.201.384.384 0 00.201.497c.641.27 1.025.61 1.025.912 0 .628-1.773 1.509-4.653 1.509s-4.653-.88-4.653-1.51c0-.289.396-.64 1.025-.911a.382.382 0 00.201-.497.376.376 0 00-.497-.201c-.949.409-1.477.974-1.477 1.603 0 1.472 2.785 2.264 5.407 2.264s5.408-.792 5.408-2.264c0-.81-.811-1.32-1.49-1.603z" fill="#FE3D3D"/><path d="M14.714 23.017c.07.07.164.1.258.1a.372.372 0 00.258-.1c.308-.283 7.665-7.08 7.665-11.595 0-4.37-3.553-7.922-7.923-7.922S7.05 7.053 7.05 11.422c0 4.515 7.356 11.312 7.664 11.595zm.258-18.762a7.173 7.173 0 017.168 7.167c0 3.735-5.86 9.552-7.168 10.803-1.308-1.251-7.168-7.068-7.168-10.803a7.173 7.173 0 017.168-7.167z" fill="#FE3D3D"/></svg>