<svg width="29" height="28" fill="none" xmlns="http://www.w3.org/2000/svg"><path d="M12.483 24.99a2.143 2.143 0 01-1.52-.63l-6.087-6.086a2.16 2.16 0 01-.025-3.015l9.714-10.013a2.16 2.16 0 011.544-.655h3.54a.358.358 0 010 .717h-3.54a1.44 1.44 0 00-1.03.436L5.366 15.758a1.44 1.44 0 00.017 2.01l6.086 6.086a1.435 1.435 0 002.027 0L23.53 13.821a1.425 1.425 0 00.42-1.014V6.383a1.075 1.075 0 00-1.075-1.075h-2.15a.358.358 0 010-.717h2.15a1.794 1.794 0 011.791 1.792v6.424a2.136 2.136 0 01-.63 1.52L14.004 24.362a2.142 2.142 0 01-1.52.629z" fill="#FE3D3D"/><path d="M21.441 9.608a1.794 1.794 0 01-1.791-1.791.358.358 0 11.716 0 1.075 1.075 0 10.364-.806.358.358 0 11-.474-.538 1.792 1.792 0 111.185 3.135z" fill="#FE3D3D"/><path d="M21.62 7.458a2.329 2.329 0 111.775-3.838.36.36 0 01-.545.466 1.613 1.613 0 10-1.23 2.655.359.359 0 010 .717z" fill="#FE3D3D"/></svg>