<svg width="40" height="40" fill="none" xmlns="http://www.w3.org/2000/svg"><path d="M16.762 35.7a3.06 3.06 0 01-2.172-.899l-8.695-8.695a3.085 3.085 0 01-.037-4.308L19.735 7.495a3.086 3.086 0 012.207-.935H27a.512.512 0 110 1.024h-5.058a2.057 2.057 0 00-1.471.623L6.594 22.511a2.057 2.057 0 00.024 2.871l8.696 8.696a2.05 2.05 0 002.895 0l14.334-14.334a2.033 2.033 0 00.6-1.447V9.119a1.536 1.536 0 00-1.536-1.536h-3.071a.512.512 0 010-1.024h3.071a2.563 2.563 0 012.56 2.56v9.178a3.05 3.05 0 01-.9 2.172L18.934 34.802a3.06 3.06 0 01-2.172.898z" fill="#999"/><path d="M29.56 13.726a2.563 2.563 0 01-2.56-2.56.512.512 0 011.024 0 1.535 1.535 0 10.52-1.15.512.512 0 01-.678-.769 2.56 2.56 0 014.087 1.015c.147.387.197.804.147 1.215a2.56 2.56 0 01-2.54 2.25z" fill="#999"/><path d="M29.815 10.655a3.327 3.327 0 112.536-5.483.511.511 0 01-.43.844.513.513 0 01-.35-.178 2.302 2.302 0 10-1.756 3.793.512.512 0 110 1.024z" fill="#999"/></svg>