<svg width="40" height="40" fill="none" xmlns="http://www.w3.org/2000/svg"><path d="M25.01 27.288h-9.761a.433.433 0 010-.867h9.327V9.989c0-.619-.503-1.122-1.122-1.122H4.167c-.618 0-1.122.503-1.122 1.122v15.31c0 .619.504 1.122 1.122 1.122h2.78a.433.433 0 110 .867h-2.78a1.99 1.99 0 01-1.988-1.989V9.989A1.99 1.99 0 014.167 8h19.287a1.99 1.99 0 011.989 1.989v16.865c0 .24-.194.434-.434.434z" fill="#999"/><path d="M11.099 31.07a4.608 4.608 0 01-4.603-4.603 4.608 4.608 0 014.603-4.603 4.608 4.608 0 014.602 4.603A4.608 4.608 0 0111.1 31.07zm0-8.339a3.74 3.74 0 00-3.736 3.736 3.74 3.74 0 003.736 3.736 3.74 3.74 0 003.736-3.736 3.74 3.74 0 00-3.736-3.736z" fill="#999"/><path d="M11.099 28.379a1.916 1.916 0 01-1.914-1.914c0-1.055.858-1.913 1.914-1.913 1.055 0 1.913.858 1.913 1.913A1.916 1.916 0 0111.1 28.38zm0-2.96c-.578 0-1.047.469-1.047 1.046a1.048 1.048 0 002.094 0c0-.577-.47-1.047-1.047-1.047zm26.77 1.868h-.904a.433.433 0 010-.867h.904c.51 0 .924-.414.924-.923v-5.821a.92.92 0 00-.554-.846l-3.51-1.534a.434.434 0 01-.237-.256l-.972-2.834a3.619 3.619 0 00-3.423-2.444h-4.65V26.42h3.216a.433.433 0 010 .867h-3.65a.433.433 0 01-.434-.433V11.328c0-.239.194-.433.434-.433h5.084a4.486 4.486 0 014.243 3.03l.91 2.653 3.335 1.457a1.788 1.788 0 011.075 1.64v5.822c0 .987-.803 1.79-1.791 1.79zM7.242 20.16H4.177a.433.433 0 110-.867h3.065a.433.433 0 110 .866zm0-2.827h-6.13a.433.433 0 110-.866h6.13a.433.433 0 110 .866zm0-2.826H.433a.433.433 0 010-.867h6.809a.433.433 0 110 .867z" fill="#999"/><path d="M39.227 21.723h-1.625a.433.433 0 010-.867h1.625a.433.433 0 010 .867zm-4.326-4.391h-4.697a2.719 2.719 0 01-2.716-2.716v-3.288c0-.239.194-.433.433-.433h2.176a4.486 4.486 0 014.243 3.03l.971 2.834a.433.433 0 01-.41.573zm-6.547-5.57v2.854c0 1.02.83 1.85 1.85 1.85h4.09l-.774-2.26a3.619 3.619 0 00-3.423-2.444h-1.743zm4.46 19.308a4.608 4.608 0 01-4.602-4.603 4.608 4.608 0 014.602-4.603 4.608 4.608 0 014.603 4.603 4.608 4.608 0 01-4.603 4.603zm0-8.339a3.74 3.74 0 00-3.736 3.736 3.74 3.74 0 003.736 3.736 3.74 3.74 0 003.736-3.736 3.74 3.74 0 00-3.736-3.736z" fill="#999"/><path d="M32.814 28.379a1.916 1.916 0 01-1.913-1.914c0-1.055.858-1.913 1.913-1.913 1.055 0 1.914.858 1.914 1.913a1.916 1.916 0 01-1.914 1.914zm0-2.96c-.577 0-1.047.469-1.047 1.046a1.048 1.048 0 002.094 0c0-.577-.47-1.047-1.047-1.047z" fill="#999"/></svg>