<svg width="41" height="40" fill="none" xmlns="http://www.w3.org/2000/svg"><path d="M18.185 35.791H5.665A2.667 2.667 0 013 33.127V22.625a2.667 2.667 0 012.664-2.664h12.521a2.667 2.667 0 012.665 2.664v10.502a2.667 2.667 0 01-2.665 2.664zM5.665 20.83c-.99 0-1.796.805-1.796 1.795v10.502c0 .99.806 1.795 1.795 1.795h12.521c.99 0 1.795-.805 1.795-1.795V22.625c0-.99-.805-1.795-1.795-1.795H5.665z" fill="#999"/><path d="M13.829 24.285a.432.432 0 01-.175-.037l-1.73-.758-1.728.759a.435.435 0 01-.61-.398v-3.456c0-.24.195-.434.435-.434h3.808c.24 0 .434.194.434.434v3.456a.435.435 0 01-.434.434zm-1.904-1.704c.06 0 .119.012.174.036l1.295.568V20.83h-2.938v2.355l1.294-.568a.437.437 0 01.175-.037zm23.241 13.21H22.645a2.667 2.667 0 01-2.665-2.664V22.625a2.667 2.667 0 012.665-2.664h12.52a2.667 2.667 0 012.665 2.664v10.502a2.667 2.667 0 01-2.664 2.664zM22.645 20.83c-.99 0-1.795.805-1.795 1.795v10.502c0 .99.805 1.795 1.795 1.795h12.52c.99 0 1.796-.805 1.796-1.795V22.625c0-.99-.806-1.795-1.795-1.795H22.645z" fill="#999"/><path d="M27.001 24.285a.434.434 0 01-.434-.434v-3.456c0-.24.194-.434.434-.434h3.808c.24 0 .435.194.435.434v3.456a.435.435 0 01-.61.398l-1.729-.76-1.729.76a.434.434 0 01-.175.036zm1.904-1.704c.06 0 .12.012.175.036l1.294.568V20.83h-2.938v2.355l1.294-.568a.437.437 0 01.175-.037z" fill="#999"/><path d="M26.675 20.83h-12.52a2.667 2.667 0 01-2.665-2.664V7.664A2.667 2.667 0 0114.155 5h12.52a2.667 2.667 0 012.665 2.664v10.502a2.667 2.667 0 01-2.665 2.665zM14.155 5.87c-.99 0-1.795.804-1.795 1.794v10.502c0 .99.805 1.795 1.795 1.795h12.52c.99 0 1.795-.805 1.795-1.795V7.664c0-.99-.805-1.795-1.795-1.795h-12.52z" fill="#999"/><path d="M22.319 9.324a.433.433 0 01-.175-.036l-1.729-.759-1.729.759a.435.435 0 01-.61-.398V5.435c0-.24.195-.435.435-.435h3.808c.24 0 .435.195.435.435V8.89a.435.435 0 01-.435.434zM20.415 7.62c.06 0 .12.012.175.036l1.294.569V5.869h-2.938v2.356l1.294-.569a.435.435 0 01.175-.036zm-8.49 23.145a2.21 2.21 0 01-2.208-2.207v-2.41c0-.24.195-.434.435-.434h3.546c.24 0 .434.195.434.435v2.409a2.21 2.21 0 01-2.207 2.207zm-1.338-4.182v1.975a1.34 1.34 0 002.676 0v-1.975h-2.676z" fill="#999"/><path d="M11.925 34.113a.435.435 0 01-.435-.435V30.33a.435.435 0 01.87 0v3.348c0 .24-.195.435-.435.435z" fill="#999"/><path d="M13.268 34.113h-2.686a.435.435 0 010-.87h2.686a.435.435 0 110 .87zm15.637-.195c-.774 0-1.405-.63-1.405-1.405v-3.267a.435.435 0 11.87 0v3.267a.536.536 0 001.07 0v-3.267a.435.435 0 11.87 0v3.267c0 .775-.63 1.405-1.405 1.405z" fill="#999"/><path d="M30.78 30.183c-.376 0-.729-.146-.994-.411l-.88-.88-.882.88a1.396 1.396 0 01-.993.411 1.407 1.407 0 01-.993-2.398l1.874-1.874a1.41 1.41 0 01.993-.412c.375 0 .728.146.994.412l1.873 1.874c.266.265.412.618.412.994 0 .375-.146.728-.412.993a1.395 1.395 0 01-.993.411zm-1.875-2.34c.112 0 .223.041.308.126l1.188 1.188a.532.532 0 00.757 0 .532.532 0 000-.757l-1.874-1.875a.54.54 0 00-.757 0L26.652 28.4a.536.536 0 00.758.757l1.188-1.188a.433.433 0 01.307-.127zm-6.332-11.194h-.025a.435.435 0 01-.434-.435c-.014-.12-.572-.515-1.699-.515-1.127 0-1.685.396-1.699.516 0 .24-.194.434-.434.434h-.024a.435.435 0 01-.435-.435c0-.243-.346-.515-.843-.515-.42 0-.727.198-.815.393a.435.435 0 01-.817-.285c.57-2.25 2.702-3.884 5.067-3.884 2.35 0 4.468 1.611 5.056 3.838a.435.435 0 01-.394.587.433.433 0 01-.412-.256c-.088-.195-.396-.393-.815-.393-.497 0-.843.272-.843.515 0 .24-.194.435-.434.435zm-2.158-1.819c.788 0 1.582.181 2.075.534.31-.327.8-.534 1.36-.534.097 0 .193.007.287.02a4.43 4.43 0 00-3.722-2.058 4.43 4.43 0 00-3.722 2.058c.094-.013.19-.02.287-.02.56 0 1.05.207 1.36.534.493-.353 1.287-.534 2.075-.534z" fill="#999"/><path d="M20.415 12.794a.435.435 0 01-.435-.435v-.636a.435.435 0 11.87 0v.636c0 .24-.195.435-.435.435zm0 6.665a.435.435 0 01-.435-.435v-3.757a.435.435 0 11.87 0v3.757c0 .24-.195.435-.435.435z" fill="#999"/></svg>