<svg width="40" height="40" fill="none" xmlns="http://www.w3.org/2000/svg"><path d="M19.905 23.952a.501.501 0 00.296-.09c.234-.152 5.632-3.817 5.632-9.431a.539.539 0 00-.395-.521c-3.018-.836-5.093-3.387-5.111-3.414a.542.542 0 00-.422-.197.555.555 0 00-.422.197c-.018.027-2.093 2.57-5.112 3.414a.539.539 0 00-.395.52c0 5.615 5.399 9.28 5.632 9.432a.52.52 0 00.297.09zm-4.833-9.126c2.345-.773 4.078-2.371 4.842-3.18.754.8 2.488 2.407 4.841 3.18-.215 4.114-3.772 7.114-4.841 7.922-1.07-.808-4.626-3.808-4.842-7.922z" fill="#999"/><path d="M22.986 14.952a.548.548 0 00-.764 0l-3.216 3.216-1.419-1.42a.548.548 0 00-.763 0 .548.548 0 000 .764l1.796 1.797a.517.517 0 00.755 0l3.593-3.593a.532.532 0 00.018-.764zm2.928 15.244a.545.545 0 00-.71.287.548.548 0 00.288.71c.916.386 1.464.871 1.464 1.302 0 .898-2.533 2.156-6.647 2.156-4.114 0-6.647-1.258-6.647-2.156 0-.413.566-.916 1.464-1.302a.545.545 0 00.288-.71.538.538 0 00-.71-.287c-1.357.583-2.111 1.392-2.111 2.29 0 2.102 3.98 3.234 7.725 3.234 3.746 0 7.725-1.132 7.725-3.234 0-1.159-1.159-1.886-2.129-2.29z" fill="#999"/><path d="M19.95 32.882a.516.516 0 00.368.143.53.53 0 00.368-.143c.44-.405 10.95-10.115 10.95-16.564C31.636 10.075 26.56 5 20.318 5 14.075 5 9 10.075 9 16.318c0 6.45 10.51 16.16 10.95 16.564zm.368-26.804c5.65 0 10.24 4.59 10.24 10.24 0 5.335-8.372 13.644-10.24 15.432-1.869-1.788-10.24-10.096-10.24-15.432 0-5.65 4.59-10.24 10.24-10.24z" fill="#999"/></svg>