<svg width="41" height="40" fill="none" xmlns="http://www.w3.org/2000/svg"><g clip-path="url(#clip0_1_9729)"><path d="M1.69 31.72c.556.207 1.117.427 1.666.652.155.064.193.227.1.358-.342.488-.675.978-.999 1.47v.003c-.554.85.267 1.903 1.242 1.603a58.42 58.42 0 018.613-1.924.421.421 0 00.347-.465l-.341-2.354a61.659 61.659 0 0116.698 0l-.341 2.354a.418.418 0 00.347.465 58.386 58.386 0 018.612 1.924c.98.3 1.795-.756 1.243-1.604v-.001a58.59 58.59 0 00-1-1.471c-.094-.133-.053-.295.1-.358a55.732 55.732 0 011.665-.651c.978-.36.917-1.718-.14-2.043a64.857 64.857 0 00-4.344-1.157l.375-1.678c.133-.594-.297-1.174-.934-1.308a69.088 69.088 0 00-2.233-.429 2.926 2.926 0 00.463-2.726 2.13 2.13 0 01.614-2.27 2.955 2.955 0 000-4.409.372.372 0 00-.044-.034c-1.182-1.106-.418-2.3-.418-3.17a2.959 2.959 0 00-2.362-2.888 2.13 2.13 0 01-1.657-1.658 2.95 2.95 0 00-3.825-2.207 2.116 2.116 0 01-2.265-.61 2.952 2.952 0 00-4.41 0 .446.446 0 00-.023.028c-1.133 1.244-2.219.43-3.185.43a2.955 2.955 0 00-2.883 2.358 2.123 2.123 0 01-1.66 1.66 2.952 2.952 0 00-2.206 3.825c.258.772.062 1.66-.61 2.266a2.95 2.95 0 00.003 4.413c.455.406.717.987.717 1.594 0 .621-.78 1.924.352 3.399-.75.132-1.498.273-2.245.43-.642.136-1.068.72-.934 1.31l.375 1.677a65.22 65.22 0 00-4.332 1.154c-1.056.325-1.117 1.684-.142 2.042zm10.053 1.087A59.33 59.33 0 008.8 31.654c1.429-.281 2.09-.375 2.708-.468l.235 1.621zm20.79-1.153a65.8 65.8 0 00-2.942 1.153l.235-1.621c.647.097 1.29.188 2.707.468zm6.825-.702a57.65 57.65 0 00-1.692.662 1.047 1.047 0 00-.46 1.588c.338.48.666.962.984 1.448.14.213-.073.446-.317.372a59.234 59.234 0 00-7.317-1.728 59.907 59.907 0 013.645-1.348.434.434 0 00.272-.3l.52-2.325c1.432.33 2.867.714 4.269 1.14.282.088.357.395.096.491zm-29.429-6.01a2.13 2.13 0 01-.757-1.624c0-.632.262-.835.262-1.61 0-.84-.361-1.644-.995-2.21a2.125 2.125 0 01.004-3.185 2.95 2.95 0 00.839-3.141 2.131 2.131 0 011.591-2.759 2.942 2.942 0 002.3-2.298 2.133 2.133 0 012.081-1.704c.719 0 2.37.901 3.817-.726a2.13 2.13 0 013.167-.03 2.936 2.936 0 003.162.867 2.13 2.13 0 012.76 1.593 2.948 2.948 0 002.297 2.298 2.136 2.136 0 011.704 2.084c0 .703-.894 2.367.729 3.816.014.012.03.024.045.034a2.135 2.135 0 01-.045 3.155 2.949 2.949 0 00-.84 3.136 2.125 2.125 0 01-.643 2.3 70.646 70.646 0 00-4.4-.56c1.862-1.866 2.726-4.133 2.726-6.474 0-4.998-4.067-9.065-9.064-9.065-5 0-9.069 4.066-9.069 9.065 0 2.377.91 4.673 2.725 6.474a69.625 69.625 0 00-4.385.561l-.011.002zm17.21-1.93a6.923 6.923 0 00-4.572-4.331 3.633 3.633 0 001.734-3.093 3.637 3.637 0 00-3.633-3.633 3.638 3.638 0 00-3.635 3.633c0 1.307.695 2.451 1.733 3.092a6.914 6.914 0 00-4.57 4.332 8.198 8.198 0 01-1.776-5.108c0-4.546 3.7-8.245 8.248-8.245 4.547 0 8.245 3.699 8.245 8.245 0 1.87-.627 3.657-1.774 5.108zm-6.485-4.61a2.818 2.818 0 01-2.802-2.814 2.817 2.817 0 012.816-2.814 2.817 2.817 0 012.813 2.814 2.817 2.817 0 01-2.802 2.815l-.014-.001h-.011zm.014.82h.013c2.722.006 5.136 1.885 5.825 4.504a8.01 8.01 0 01-.6.55 68.42 68.42 0 00-10.471 0 7.576 7.576 0 01-.604-.551c.686-2.618 3.098-4.497 5.824-4.503h.012zM6.89 26.34a66.616 66.616 0 0127.539-.002c.168.035.337.178.303.328l-.983 4.401c-8.244-1.781-17.34-1.91-26.178.003l-.985-4.402c-.033-.148.133-.292.304-.328zm-4.82 4.123c1.405-.428 2.84-.81 4.27-1.14l.52 2.324v.001a.428.428 0 00.272.299c1.154.38 2.608.921 3.645 1.348-2.47.42-4.926 1-7.318 1.729-.243.074-.455-.16-.317-.373.32-.485.647-.968.984-1.448a1.046 1.046 0 00-.46-1.588 56.888 56.888 0 00-1.693-.663c-.262-.096-.18-.404.097-.489z" fill="#999"/></g><defs><clipPath id="clip0_1_9729"><path fill="#fff" transform="translate(.667)" d="M0 0h40v40H0z"/></clipPath></defs></svg>