<svg width="473" height="177" fill="none" xmlns="http://www.w3.org/2000/svg"><g clip-path="url(#clip0_242_32494)"><path d="M367.667 0c-2.836-.018-5.854.778-7.672 1.99-4.672 3.12-21.834 56.53-28.986 83.974 0 0-1.55 5.713-3.6 18.861-.33 2.135-1.421 10.494-1.895 13.08-1.781 9.686-8.703 14.884-14.682 13.742-7.469-1.425-8.537-12.506-6.536-20.756 2.189-9.042 9.624-19.251 18.187-16.775 4.127.962 6.26.477 6.536-2.275.353-3.556-3.884-5.687-3.884-5.687-16.422-8.269-31.092 5.258-34.859 24.358-4.399 22.288 9.366 40.007 31.733 27.296 7.002-3.977 6.624 5.311 22.355 4.739 11.439-1.115 17.968-9.569 12.031-14.217-3.885-3.045-6.502 2.919-12.978 2.085-13.834-1.778 1.652-41.96 9.662-67.008 6.835-21.363 14.443-36.706 20.934-54.024C376.624 2.42 372.393.03 367.667 0zM117.781 4.55c-23.742.63-67.814 23.303-101.072 49.569C3.07 65.98-4.784 68.799 4.109 78.287c7.905 7.908 12.978 1.895 12.978 1.895 7.51-5.933 23.716-22.515 34.385-30.424 15.195-11.263 36.174-27.497 54.752-31.846 14.739-3.737 19.218.611 17.24 15.639-1.164 12.898-11.083 41.892-11.083 41.892s-15.255 6.835-19.797 8.53c-3.551 1.319-7.264.42-7.673 8.53-.182 8.697 5.092 5.421 8.62 4.075 2.728-1.042 9.162-4.125 11.557-5.118 1.777-1.384 3.736-.2 2.747 2.37-1.777 5.735-5.002 15.077-11.083 28.528-7.707 18.391-21.526 43.522-23.303 49.853.198 4.151 4.718 4.747 10.705 4.834 5.505-.425 8.051-4.266 8.051-4.266s7.173-15.433 18.188-42.555c7.998-19.699 13.238-35.97 15.44-43.314 1.186-4.348 3.744-5.273 7.105-6.065 5.024-1.65 12.075-3.864 16.387-4.645 10.897-2.69 14.031-2.11 15.44-9.666.982-5.255-1.326-7.678-1.326-7.678s-23.746 7.408-28.512 8.72c-4.149 1.778-3.41-2.56-3.41-2.56s-.58 2.741 1.989-8.53c7.79-34.286 3.255-43.411-2.936-48.62-2.94-2.43-7.31-3.462-12.789-3.317zm321.972 60.847c-4.075-.177-13.381 6.744-9.757 24.358-4.94 18.585-42.63 51.018-47.646 37.912-1.224-3.192 2.076-8.44 10.704-10.237 14.228-2.968 13.038-11.82 6.252-12.7-10.67-1.383-13.614-1.379-26.334-4.359-5.017-.53-4.869-7.203 1.042-7.109 2.443-.099 8.544.743 21.598 1.233 13.659.511 16.364-10.12 15.819-16.682-13.941 3.01-17.244 3.791-29.271 3.791-12.617 0-28.228 3.488-28.512 14.596-.284 11.036 14.194 13.527 21.692 15.639 2.076.496 2.804 2.229 1.421 3.317-3.205 2.559-10.412 5.906-11.272 11.942-1.221 8.545 6.535 15.278 16.387 15.07 13.117-.274 27.664-5.843 41.585-22.558 3.933-4.72 8.362-12.693 11.083-16.207.651-1.266 2.485-1.895 3.315-1.8 2.485.549 6.062 2.415 5.589 5.117-.723 4.137-12.041 17.068-4.547 24.832 4.604 4.77 16.247 8.143 25.482 1.422 8.642-6.29 5.604-11.999 2.178-12.416-2.448-.296-9.336 8.31-14.872 2.18-4.596-5.092 6.355-15.582 8.526-19.335 3.133-5.414-9.072-9.58-14.21-16.301-3.315-4.42 5.279-17.92-5.494-21.515-.219-.074-.486-.178-.758-.19zm25.008 6.825c-2.171 0-4.054.74-5.589 2.274-1.542 1.543-2.274 3.42-2.274 5.592 0 2.195.747 4.053 2.274 5.592 1.534 1.547 3.402 2.37 5.588 2.37 2.191 0 4.047-.823 5.589-2.37 1.543-1.55 2.369-3.405 2.369-5.592 0-2.18-.826-4.056-2.368-5.592-1.543-1.535-3.4-2.274-5.589-2.274zm0 1.042c1.891 0 3.493.656 4.831 1.99 1.325 1.327 1.989 2.954 1.989 4.834 0 1.896-.663 3.5-1.989 4.834-1.331 1.334-2.933 1.99-4.832 1.99-1.898 0-3.501-.656-4.83-1.99-1.319-1.335-1.99-2.939-1.99-4.834 0-1.88.663-3.506 1.99-4.833 1.337-1.336 2.948-1.99 4.831-1.99zm-3.221 2.464v8.625h1.515v-3.317h1.232c.834 0 1.375.004 1.704.19.561.322.853.989.853 1.99v.758l.095.285c.008.037-.008.064 0 .094h1.421l-.095-.094c-.034-.073.011-.148 0-.38-.015-.227-.095-.467-.095-.663v-.664c0-.436-.159-.868-.473-1.327-.315-.455-.746-.747-1.421-.853.534-.088.932-.186 1.232-.379.56-.368.852-1.024.852-1.801 0-1.092-.425-1.804-1.326-2.18-.504-.208-1.383-.284-2.463-.284h-3.031zm1.516 1.043h1.326c.868 0 1.5.166 1.895.378.394.217.568.603.568 1.233 0 .663-.243 1.091-.853 1.327-.33.129-.852.19-1.515.19h-1.421V76.77zM203.222 79.33c-11.594 3.457-17.467 3.032-29.743 3.032-12.883 0-30.297 1.798-29.554 14.217.625 10.445 15.33 13.36 22.923 14.217 2.176-.201 2.812 1.85 1.232 2.938-3.425 3.473-7.336 8.246-7.862 12.131-1.148 8.409 3.156 15.825 13.83 15.639 11.461-.197 15.216-8.522 34.385-20.188 5.35-3.256 12.038-8.753 14.777-9.194 1.053 0 2.562.346 2.463 2.37-1.622 7.654-3.395 12.81-1.421 19.334 1.395 4.595 7.461 7.488 11.841 4.171 7.309-5.536 7.381-8.758 16.862-21.231 1.568-2.062 7.38-11.494 10.04-10.235 2.209 1.042 1.546 4.125 1.136 6.539-1.992 11.677-7.054 30.144 16.009 27.296 5.483-.675 9.946-4.413 5.778-8.341-2.519-2.376-5.36-.689-8.525-1.421-7.399-1.706 10.913-35.44 2.18-41.702-12.281-8.803-23.667 6.801-32.208 18.197-3.368 4.493-5.864 2.532-8.051-3.791-2.436-7.037-17.002-1.865-25.386 2.464-13.376 6.904-38.145 30.003-40.449 18.482-.397-1.99 2.892-6.438 8.905-8.625 7.051-2.567 14.966-4.857 14.966-9.098 0-3.284-1.959-5.615-4.073-5.498-9.84.547-21.29 3.128-34.385-.473-2.986-.023-4.293-7.519 4.547-6.54 2.341.261 7.57.648 27.376 1.043 13.95.28 14.279-10.183 12.408-15.733h-.001z" fill="#fff"/></g><defs><clipPath id="clip0_242_32494"><path fill="#fff" d="M0 0h473v177H0z"/></clipPath></defs></svg>