<svg width="452" height="98" fill="none" xmlns="http://www.w3.org/2000/svg"><g clip-path="url(#clip0_222_25069)" fill="#fff"><path d="M49.313 0C22.156 0 .14 21.936.14 49c0 27.06 22.017 49 49.174 49 27.159 0 49.178-21.94 49.178-49 0-27.064-22.017-49-49.178-49zm0 92.469C25.22 92.469 5.683 73.005 5.683 49c0-24.01 19.535-43.472 43.63-43.472 24.096 0 43.63 19.462 43.63 43.472 0 24.005-19.534 43.469-43.63 43.469z"/><path d="M85.057 68.733l-7.14-8.308a1.234 1.234 0 00-1.46-.298 3.814 3.814 0 01-4.676-1.152 3.782 3.782 0 01-.694-1.572 9.574 9.574 0 00-1.607-3.792 9.617 9.617 0 00-3.056-2.772l-3.197-1.837 18.179-10.457-2.25-3.885-20.429 11.75L56.273 45v-2.825L76.7 30.422l-2.25-3.883-18.178 10.458V33.32a9.573 9.573 0 00-.882-4.023 9.606 9.606 0 00-2.491-3.285 3.787 3.787 0 01-1.324-3.075 3.774 3.774 0 011.64-2.92 1.222 1.222 0 00.471-1.41L50.038 8.292a.757.757 0 00-.72-.516.76.76 0 00-.72.516L44.95 18.606a1.224 1.224 0 00.468 1.41 3.78 3.78 0 01.317 5.996 9.6 9.6 0 00-2.492 3.285 9.568 9.568 0 00-.88 4.023v3.677L24.182 26.54l-2.25 3.883 20.43 11.753v2.827l-2.455 1.408-20.429-11.75-2.248 3.885L35.41 49l-3.2 1.838a9.612 9.612 0 00-3.055 2.772 9.57 9.57 0 00-1.607 3.792 3.785 3.785 0 01-2.013 2.676 3.817 3.817 0 01-3.356.048 1.237 1.237 0 00-1.46.298l-7.14 8.304a.761.761 0 00-.089.883.767.767 0 00.807.365l10.79-2.013a1.23 1.23 0 00.99-1.11 3.782 3.782 0 011.72-2.874 3.813 3.813 0 013.334-.398 9.657 9.657 0 008.037-.745l3.198-1.834v20.913h4.5V58.41L49.321 57l2.454 1.412v23.503h4.501V61.001l3.196 1.835a9.65 9.65 0 008.039.745 3.811 3.811 0 014.529 1.634c.298.498.477 1.058.523 1.636a1.225 1.225 0 00.99 1.111l10.787 2.013c.312.06.64-.08.809-.365a.763.763 0 00-.093-.877zM42.36 55.825l-6 3.45a2.46 2.46 0 01-3.353-.895 2.441 2.441 0 01.9-3.345l6-3.45 2.454 1.413-.001 2.827zm4.5-23.14a2.438 2.438 0 01.696-1.771 2.454 2.454 0 011.759-.74 2.464 2.464 0 011.759.74 2.447 2.447 0 01.696 1.77v6.901l-2.454 1.41-2.457-1.41v-6.9zm5.279 17.94l-2.823 1.622-2.827-1.624v-3.25l2.827-1.626 2.823 1.626v3.251zm13.484 7.756a2.47 2.47 0 01-3.356.895l-5.999-3.452V53l2.455-1.414 5.998 3.451a2.445 2.445 0 01.902 3.344zm311.114-19.335h-16.412V6.352h-14.993v85.295h14.993V54.19h16.412v37.457h15.32V6.352h-15.32v32.694zM109.438 6.352l16.638 52.3v32.995h16.655V56.958l17.248-50.606h-14.015l-11.323 33.23-10.249-33.23h-14.954zm144.596 0l-7.182 40.574-8.328-40.574h-23.406v85.295h13.422V27.35l11.454 55.894h12.534l10.159-56.802v65.204h15.737V6.352h-24.39zm183.705 0h-23.185L398.91 91.647h13.873l3.318-19.848h17.257l3.218 19.848h15.287L437.739 6.352zM418.48 57.58l6.38-38.147 6.192 38.147H418.48zM300.923 6.352l-15.649 85.295h13.876l3.321-19.848h17.257l3.219 19.848h15.284L324.104 6.352h-23.181zm3.925 51.228l6.379-38.147 6.192 38.147h-12.571zM170.706 6.352l-15.649 85.295h13.878l3.321-19.848h17.255l3.22 19.848h15.281L193.887 6.352h-23.181zm3.926 51.228l6.38-38.147 6.19 38.147h-12.57z"/></g><defs><clipPath id="clip0_222_25069"><path fill="#fff" d="M0 0h452v98H0z"/></clipPath></defs></svg>