<svg width="99" height="98" fill="none" xmlns="http://www.w3.org/2000/svg"><path fill-rule="evenodd" clip-rule="evenodd" d="M4.869 34.43h7.899v10.185c0 1.654 1.76 2.262 1.998.556l1.76-10.833h9.195l-2.95 13.333-3.904 1.084v.014l3.904 1.085 2.95 13.333h-9.195l-1.76-10.833c-.239-1.707-1.998-1.098-1.998.568v10.171h-7.9V34.43zm45.7.199h14.092c5.994 1.058 6.947 13.24.278 14.615v.014l3.533.595 2.95 13.333h-9.195l-1.76-10.833c-.238-1.706-1.998-1.098-1.998.568v10.172h-7.9V34.629zm10.943 7.327c0-1.719-2.686-1.706-2.686.014v2.817c0 1.733 2.686 1.746 2.686.013v-2.844zm-14.66 15.502c0 3.11-3.043 5.927-5.927 5.927h-7.609c-2.884 0-5.928-2.818-5.928-5.927V40.316c0-3.108 3.044-5.925 5.928-5.925h7.608c2.884 0 5.928 2.817 5.928 5.925v17.142zm-8.376-15.502c0-1.719-2.685-1.706-2.685.014v13.676c0 1.72 2.685 1.733 2.685.013V41.956zM92.99 63.662H80.75c-4.379 0-7.62-2.857-7.62-7.619V42.54c0-4.762 3.241-7.619 7.62-7.619h12.36l.012 6.667h-9.566c-1.337 0-1.88.754-1.88 1.997V55.74c0 1.72 2.687 1.734 2.687.014V45.528h8.627c1.522 0 1.522 2.474 0 2.474v15.66z" fill="#1F2123"/></svg>