<svg width="130" height="40" fill="none" xmlns="http://www.w3.org/2000/svg"><path fill-rule="evenodd" clip-rule="evenodd" d="M30.865 22.78v.644c0 2.398-.039 4.562-2.62 6.23-2.58 1.637-5.732 1.608-9.034 1.608-7.743 0-13.4-.292-13.4-8.306V17.28c0-7.253 5.049-8.307 13.4-8.307 7.82 0 11.463.614 11.615 7.196v.847h-7.819v-.847c-.266-1.96-2.05-2.106-4.631-2.106-4.327 0-4.744 1.023-4.744 4.153v3.422c0 3.276.19 4.535 4.744 4.535 3.15 0 4.669-.176 4.669-2.75v-.643h7.82zm8.191 4.534l-1.405 3.774h-7.894l8.54-21.938h11.54l8.654 21.938h-7.743l-1.481-3.774h-10.21zm5.163-13.777h-.076l-3.455 9.507h7.06l-3.53-9.507zM71.43 17.75c8.428.468 10.515 1.287 10.515 6.319 0 3.626.19 7.194-12.336 7.194-7.25 0-12.07-.117-12.07-7.312h7.287c0 2.282 1.064 2.515 4.783 2.515 3.568 0 4.745-.176 4.745-2.019 0-1.9-.418-1.871-3.985-2.047l-1.671-.088c-7.023-.38-11.121-.35-11.121-6.64 0-6.288 4.592-6.697 12.032-6.697 6.226 0 11.54.088 11.54 6.142v.907h-7.29c0-2.252-1.214-2.252-4.25-2.252-4.1 0-4.441.643-4.441 1.872 0 1.755 1.101 1.813 3.112 1.93l3.15.176zm19.922 13.338h-7.59V9.15h7.59v21.937zm1.708-7.868v-6.2c0-6.757 5.466-8.044 13.171-8.044 7.705 0 13.171 1.287 13.171 8.043v6.201c0 6.756-5.466 8.044-13.171 8.044-7.705 0-13.17-1.288-13.17-8.044zm18.524-.644v-4.943c0-3.246-1.404-3.568-5.352-3.568-3.947 0-5.237.322-5.352 3.568v4.943c.115 3.276 1.405 3.599 5.352 3.599 3.948 0 5.352-.323 5.352-3.6zm11.457 6.513h-.853l-.645-1.016h-.008v1.016h-.685V26.45h1.023c.52 0 .916.247.916.812 0 .364-.203.678-.577.745l.829 1.082zm-1.506-1.456h.067c.224 0 .475-.042.475-.329 0-.287-.251-.329-.475-.329h-.067v.658z" fill="#1F2123"/><path d="M121.798 29.786a1.89 1.89 0 001.346-.56 1.904 1.904 0 00.417-2.081 1.91 1.91 0 00-2.494-1.033 1.903 1.903 0 00-1.032 1.034 1.907 1.907 0 001.763 2.64zm1.589-.316a2.235 2.235 0 01-1.589.66 2.237 2.237 0 01-1.592-.66 2.261 2.261 0 01-.658-1.593 2.247 2.247 0 012.25-2.253c.62 0 1.182.253 1.589.66.407.408.659.97.659 1.593a2.25 2.25 0 01-.659 1.593z" fill="#1F2123"/></svg>