<svg width="165" height="82" fill="none" xmlns="http://www.w3.org/2000/svg"><path fill-rule="evenodd" clip-rule="evenodd" d="M8.633 48.273h7.023l4.418-12.097s1.026-4.135 7.956-4.135c6.372 0 5.864 2.323 5.864 2.695 0 .373-.422 2.416-5.398 2.416s-7.21-.837-7.21-.837l1.07 5.112s4.808.652 6.978.652c1.909 0 11.538-1.072 11.538-7.81 0-4.275-5.772-7.015-12.702-7.015-8.094 0-12.706 3.097-14.744 8.18L8.633 48.273zm33.82-11.98l-4.467 11.98h6.56l4.465-11.98h-6.558zm29.958 5.69c0 4.814-8.053 6.927-12.701 6.927-2.28 0-11.07-1.256-11.07-6.413 0-5.158 8.752-6.83 12.281-6.83 3.95 0 11.49 1.505 11.49 6.317zm-11.91-2.554c-1.582 0-4.883.883-4.883 2.927 0 2.046 2.928 2.744 4.65 2.744 1.723 0 5.166-.84 5.166-2.883 0-2.042-3.119-2.788-4.933-2.788zm11.49 8.844h6.42l2.605-6.939c.178-.576 1.07-1.998 3.862-1.998 3.238 0 2.842 1.968 2.65 2.464l-2.372 6.473h6.329l2.464-6.659s2.047-5.855-7.721-5.855c-10.002 0-11.443 5.11-11.443 5.11l-2.794 7.404zm36.145-9.354c3.766 0 3.908 1.16 3.908 1.16s.699.79-3.536.79-5.906-1.021-5.906-1.021 2.185-.929 5.534-.929zm-.651-3.16c-4.469 0-12.094 1.86-12.094 7.108 0 4.463 8.321 6.087 10.835 6.087 6.607 0 9.54-1.02 9.54-1.02l1.349-3.718s-3.813 1.393-9.257 1.393c-8.282 0-7.677-3.485-7.677-3.485s2.282 1.86 7.818 1.86c5.535 0 10.374-1.161 10.374-3.393 0-2.23-4.719-4.832-10.888-4.832zm34.563 12.514h6.375l2.324-6.473s.466-1.814 2.14-1.814h4.978l1.209-3.693h-8.978s-3.628.212-5.21 4.206c-1.581 3.994-2.838 7.774-2.838 7.774zm.443-7.596c0 2.23-4.836 3.392-10.374 3.392-5.535 0-7.816-1.86-7.816-1.86s-.605 3.485 7.676 3.485c5.443 0 9.259-1.393 9.259-1.393l-1.351 3.718s-2.933 1.02-9.54 1.02c-2.515 0-10.834-1.625-10.834-6.087 0-5.248 7.624-7.108 12.093-7.108 6.169.001 10.887 2.603 10.887 4.833zm-15.769-.745s1.672 1.022 5.906 1.022c4.235 0 3.537-.79 3.537-.79s-.144-1.16-3.911-1.16c-3.348 0-5.532.928-5.532.928z" fill="#1F2123"/></svg>