<svg width="128" height="31" fill="none" xmlns="http://www.w3.org/2000/svg"><g clip-path="url(#clip0_182_26651)"><path d="M30.331 30.355c-.518-.24-1.322-.805-1.784-1.255l-.842-.818-.748.688c-1.616 1.489-.362 1.36-13.724 1.414l-11.891.05v-.37c0-.524.377-.824 1.192-.947.389-.06.843-.149 1.009-.199.166-.05.483-.125.704-.166.74-.138 2.238-1.005 2.85-1.647.657-.69 1.164-1.561 1.391-2.392.08-.29.168-.607.196-.703.029-.097.101-.374.162-.615a64.418 64.418 0 01.355-1.362c.044-.17.13-.505.19-.747.058-.241.141-.558.183-.703a927.786 927.786 0 001.444-5.271c.04-.145.117-.441.172-.659l.198-.79c.055-.218.133-.515.173-.66a790.226 790.226 0 001.466-5.359c.049-.193.121-.47.161-.615.26-.936.309-1.189.308-1.581 0-.767-.108-1.23-.286-1.23-.095 0-.123-.048-.063-.107.154-.15-.626-.874-1.389-1.29-.351-.192-.999-.38-1.439-.42-1.007-.091-1.231-.226-1.164-.703.12-.842-.11-.825 10.123-.777 9.227.044 9.643.06 9.705.372.093.472-.146.63-1.377.909-1.238.28-2.572.8-2.572 1.003 0 .074-.086.134-.192.134-.487 0-1.891 1.812-2.09 2.697-.048.208-.119.497-.16.642-.04.145-.109.421-.154.615-.045.193-.338 1.26-.651 2.372a219.32 219.32 0 00-.66 2.372c-.049.193-.122.47-.162.615-.04.145-.121.461-.18.703-.06.241-.141.558-.182.703a640.615 640.615 0 01-1.263 4.569c-.041.144-.124.46-.183.702-.06.242-.141.558-.181.703-.04.145-.11.422-.153.615a73.347 73.347 0 01-.561 2.02c-.265.919-.518 1.808-.562 1.977-.044.17-.129.486-.188.703-.059.218-.148.764-.198 1.215-.078.702-.037.848.286 1.016.46.239 1.4.286 2 .1.975-.301 1.323-1.007 2.269-4.6a418.75 418.75 0 011.086-4.1c.04-.145.121-.462.18-.703a44.59 44.59 0 01.595-2.197c.111-.386.244-.9.295-1.142.095-.448 1.294-4.898 1.49-5.535.137-.439.175-2.018.059-2.372-.11-.331-.619-.789-1.399-1.257-1.095-.658-.713-.76 3.047-.816 2.767-.041 3.648.002 4.145.204 1.694.689 2.268 1.974 1.74 3.89-.054.193-.142.53-.196.747l-.199.79c-.054.218-.14.554-.19.747-.05.193-.13.535-.178.76-.255 1.193-.783 3.203-.885 3.362-.192.302.07.21.868-.306 1.51-.976 2.517-1.265 4.151-1.192 2.48.112 4.776 2.023 4.89 4.072.033.573.062.599.567.491.292-.062.642-.22.777-.352.135-.13.345-.299.467-.373.123-.075.504-.492.848-.927.88-1.113.963-1.185 2.12-1.862 1.689-.988 2.82-1.213 6.107-1.213 2.773 0 3.868.132 5.284.638 1.344.48 2.14 1.063 2.56 1.876.428.83.382 1.251-.527 4.778-.411 1.595-.777 3.018-.813 3.163-.21.84-.275 1.093-.375 1.45-.342 1.222.138 2.053 1.137 1.967.281-.024.61-.051.733-.06.276-.023.754-.714.878-1.27.193-.865.244-1.07.347-1.384.058-.178.143-.488.188-.689.046-.2.12-.504.165-.673.045-.169.126-.485.18-.703l.199-.79c.054-.218.132-.514.172-.66.04-.144.114-.421.164-.614l.18-.703.181-.703c.207-.804.39-1.551.474-1.933.169-.767-.638-1.63-2.06-2.202-.717-.289-1.019-.506-1.019-.735 0-.307.237-.323 4.391-.308 4.678.018 5.183.098 5.983.953.412.441.697 1.124.559 1.34-.188.295.087.167.594-.277 1.07-.937 1.595-1.318 1.812-1.318.124 0 .226-.085.226-.187s.081-.137.18-.077c.1.06.181.011.181-.107 0-.119.054-.164.12-.1.065.064.207.049.316-.033.404-.305 2.023-.571 3.26-.537.943.027 1.512.15 2.17.47 1.076.522 1.227.66 1.683 1.548.346.674.43 2.084.175 2.976l-.575 2.02c-.262.919-.516 1.867-.565 2.11-.049.24-.168.715-.266 1.053-.098.339-.226 1.067-.285 1.618-.102.947-.077 1.033.443 1.538.523.508.621.534 1.966.52.778-.007 1.312-.054 1.186-.103-.337-.132-.81-1.104-.9-1.845-.042-.355.1-1.262.316-2.02a86.01 86.01 0 00.467-1.684c.041-.17.112-.446.157-.615.045-.17.13-.506.19-.747.059-.242.144-.578.189-.747l.163-.615c.045-.17.12-.478.167-.686.172-.761.797-1.718 1.738-2.66.926-.928 3.349-1.98 5.227-2.27 1.707-.265 5.467-.155 7.497.219 1.414.26 3.398 1.658 3.551 2.502.213 1.17.019 3.22-.43 4.564l-.485 1.45h-5.136c-3.215 0-5.177.065-5.247.175-.061.096-.151.353-.2.571a26.26 26.26 0 01-.17.704c-.576 2.163-.628 2.685-.314 3.12.242.336.404.379 1.163.308.942-.088 1.107-.218 3.047-2.387.447-.5.915-.91 1.04-.91.124 0 .227-.066.227-.146 0-.23.13-.237 5.977-.356l5.524-.113.444-.455c.244-.251 1.339-1.341 2.433-2.423l1.989-1.968-1.989.028c-1.238.018-2.325.133-2.877.305-1.036.323-2.25 1.376-2.787 2.417-.486.942-.903 1.29-1.129.943-.244-.374-.214-.62.296-2.449a77.19 77.19 0 00.528-1.956c.238-1.103 1.575-2.706 2.734-3.28.722-.358 1.024-.371 10.083-.435 5.136-.036 9.339-.015 9.339.046 0 .06-2.747 2.776-6.104 6.033l-6.104 5.921 2.894-.048c2.683-.044 2.966-.08 3.888-.504 1.116-.511 1.95-1.228 2.608-2.24.505-.777 1.344-2.648 1.428-3.183.076-.484.403-.774.733-.65.265.098.272.418.033 1.52-.051.237-.142.75-.202 1.138-.059.388-.138.753-.174.81-.037.057-.12.493-.186.97-.065.476-.15.916-.188.977-.037.062-.117.408-.176.77-.196 1.198-.244 1.357-.634 2.083-.464.865-1.019 1.388-2.033 1.915-.749.389-.843.393-9.528.444-4.825.029-9.586.029-10.581 0l-1.808-.052 2.351-2.238 2.351-2.237-1.501-.003c-1.887-.003-2.276.187-3.548 1.737-.546.665-1.302 1.457-1.68 1.76-1.324 1.065-1.384 1.07-13.262 1.07-7.808 0-10.962-.058-11.406-.207-1.007-.34-1.696-1.208-1.648-2.078.017-.3.277-1.515.49-2.284.12-.433.284-1.114.381-1.582.05-.241.29-1.204.534-2.14.243-.936.442-1.887.442-2.113 0-1.055-1.254-1.657-2.328-1.118-.89.447-1.005.7-1.938 4.23l-.174.658c-.045.17-.12.472-.165.673-.045.201-.13.511-.188.689a6.724 6.724 0 00-.17.645c-.334 1.69-.823 2.738-1.605 3.448-1.174 1.065-1.226 1.072-8.534 1.14l-6.692.062-.633-.41c-.348-.226-.758-.651-.91-.945l-.276-.534-.507.465c-.28.256-.965.735-1.524 1.065-.953.56-1.135.603-2.858.658-2.002.065-2.406-.048-3.448-.964-1.036-.91-1.407-2.134-1.11-3.664.136-.698.522-1.493.725-1.493.09 0 .122-.064.073-.142-.05-.078.121-.296.38-.483.26-.188.575-.44.7-.561.126-.121.316-.22.422-.22.107 0 .194-.06.194-.133 0-.141 1.858-.883 2.524-1.008.22-.04.535-.114.701-.162.166-.05.505-.123.754-.166 2.199-.373 3.373-.768 4.277-1.438 1.209-.896 1.5-2.372.516-2.612-.555-.136-1.224.181-2.18 1.032-1.005.895-2.057 1.586-2.776 1.823-.357.119-1.739.204-3.3.204-2.432 0-2.687.03-2.7.308-.008.169-.04.426-.07.57a51.6 51.6 0 00-.156.791c-.055.29-.15.725-.21.967-.06.241-.14.558-.175.703-.41 1.662-1.535 3.542-2.893 4.832-1.528 1.45-2.21 1.72-4.53 1.796-1.821.06-2.07.028-2.933-.371zm18.608-2.906c.388-.041 1.33-1.083 1.802-1.993.537-1.033.623-1.277.814-2.3l.094-.503-.602.435c-.33.24-1.188.73-1.904 1.09-1.403.708-1.937 1.285-1.956 2.116-.015.662.662 1.344 1.23 1.241.22-.04.455-.079.522-.086zm-17.535-1.285c.765-.783 1.427-2.03 1.705-3.209.247-1.046.28-1.31.275-2.196-.008-1.516-.304-2.212-1.013-2.385-1.616-.394-3.744 3.284-3.642 6.294.054 1.597.128 1.869.615 2.252.561.441 1.076.252 2.06-.756zm63.723-6.767c.238-1.418.22-1.665-.143-2.019-.275-.267-.492-.316-.99-.226-1.069.195-1.647.971-1.932 2.597l-.085.483h3.009l.14-.835z" fill="#1F2123"/></g><defs><clipPath id="clip0_182_26651"><path fill="#fff" transform="translate(.81 .547)" d="M0 0h126.24v30.047H0z"/></clipPath></defs></svg>