<svg width="135" height="30" fill="none" xmlns="http://www.w3.org/2000/svg"><g clip-path="url(#clip0_182_26624)" fill="#1F2123"><path d="M15.131.406C7.082.406.556 6.939.556 15c0 8.06 6.526 14.594 14.575 14.594 8.05 0 14.576-6.535 14.576-14.594 0-8.06-6.526-14.594-14.576-14.594zm0 27.54C7.99 27.947 2.2 22.15 2.2 15c0-7.151 5.79-12.948 12.93-12.948 7.142 0 12.932 5.797 12.932 12.948 0 7.15-5.79 12.947-12.932 12.947z"/><path d="M25.725 20.877l-2.116-2.474a.366.366 0 00-.433-.089 1.126 1.126 0 01-1.591-.811 2.858 2.858 0 00-1.382-1.955L19.255 15l5.388-3.114-.667-1.157-6.055 3.5-.727-.42v-.842l6.054-3.5-.667-1.157-5.387 3.115V10.33a2.865 2.865 0 00-1-2.177 1.127 1.127 0 01.094-1.786.364.364 0 00.14-.42l-1.082-3.071A.226.226 0 0015 2.764a.225.225 0 00-.082.112l-1.081 3.071a.366.366 0 00.139.42 1.13 1.13 0 01.093 1.786 2.86 2.86 0 00-.999 2.177v1.095L7.683 8.31l-.667 1.157 6.055 3.5v.842l-.727.42-6.055-3.5-.667 1.157L11.01 15l-.948.548a2.854 2.854 0 00-1.382 1.955 1.13 1.13 0 01-1.591.811.365.365 0 00-.433.089L4.54 20.876a.227.227 0 00.213.372l3.198-.6a.365.365 0 00.293-.33 1.13 1.13 0 011.498-.975 2.85 2.85 0 002.382-.222l.948-.546v6.229h1.334v-7l.728-.421.727.42v7h1.334v-6.229l.948.547a2.85 2.85 0 002.382.222 1.124 1.124 0 011.343.486c.088.149.14.316.154.488a.366.366 0 00.294.33l3.197.6a.229.229 0 00.24-.108.229.229 0 00-.028-.262zM13.07 17.033l-1.778 1.027a.725.725 0 01-.994-.266.73.73 0 01.267-.996l1.779-1.028.727.42v.843zm1.334-6.893a.73.73 0 01.728-.747.728.728 0 01.728.747v2.056l-.728.42-.728-.42V10.14zm1.565 5.344l-.837.483-.838-.484v-.968l.838-.484.837.484v.969zm3.996 2.31a.73.73 0 01-.994.267l-1.778-1.029v-.84l.727-.422 1.778 1.028a.73.73 0 01.267.996zm92.212-5.759h-4.864V2.297h-4.444v25.405h4.444V16.546h4.864v11.156h4.541V2.297h-4.541v9.738zM32.952 2.297l4.931 15.578v9.827h4.936V17.37l5.113-15.073h-4.154l-3.356 9.898-3.038-9.898h-4.432zm42.857 0L73.68 14.382 71.212 2.297h-6.937v25.405h3.978V8.552L71.648 25.2h3.715l3.01-16.918v19.42h4.665V2.297h-7.23zm54.449 0h-6.872l-4.637 25.405h4.112l.983-5.912h5.115l.954 5.912h4.531l-4.186-25.405zm-5.708 15.259l1.89-11.362 1.836 11.362h-3.726zM89.707 2.297l-4.639 25.405h4.113l.984-5.912h5.115l.954 5.912h4.53L96.577 2.297h-6.87zm1.163 15.259l1.89-11.362 1.836 11.362H90.87zM51.11 2.297l-4.638 25.405h4.113l.985-5.912h5.114l.954 5.912h4.53L57.981 2.297h-6.87zm1.164 15.259l1.89-11.362L56 17.556h-3.726z"/></g><defs><clipPath id="clip0_182_26624"><path fill="#fff" transform="translate(.515 .406)" d="M0 0h133.969v29.189H0z"/></clipPath></defs></svg>