<svg width="102" height="66" fill="none" xmlns="http://www.w3.org/2000/svg"><g clip-path="url(#clip0_182_26640)"><path d="M11.038 31.023c.532.64 1.83 1.918.765 2.906-1.12 1.032-4.947 3.386-6.884 3.337-2.022.049-4.442-2.522-4.043-4.844.313-1.363 2.02-3.247 2.84-4.088.82-.906 10.312-10.459 16.064-13.78 1.555-.918 5.108-1.659 6.119-1.183 1.038.468 2.607 1.88 2.622 5.166a481.993 481.993 0 000 6.674c-.015.87.328 1.677 1.53.753.643-.488 2.145-.556 3.169-.43 1.023.143 1.637.884.764 1.507-.901.588-4.52 3.616-5.79 4.843.108 7.316-3.718 27.295-4.372 29.6-.511 2.037-1.94 3.01-3.715 3.66-1.775.56-4.85.696-4.37-1.83.477-2.454 5.12-20.415 5.682-25.727.122-.542-.288-.744-.765-.215-.48.547-2.87 2.632-4.918 2.799-2.048.238-3.529-1.21-3.824-1.615-.137-.233-.273-.771.328-1.076.628-.234 6.842-3.866 10.818-7.212.189-2.506.51-8.764.546-10.656.122-1.403-1.038-.598-1.64-.108-.627.452-8.686 7.113-11.145 9.903-.548.576-.275 1.315.219 1.616z" fill="#1F2123"/><path d="M36.935 30.593c.451.263 1.406-.072 1.857-.646.505-.635 1.597-1.713 1.42-2.26-.094-.53-.983-1.002-2.403-.862-1.448.131-3.976.334-7.43 5.167-.986 1.893-.438 3.977.983 3.982.763-.005 1.378.87.874 1.613-.588.736-2.431 3.832-.546 5.922 1.937 2.081 5.08.467 6.447-1.614 1.365-2.09 3.345-5.655 3.933-6.566.3-.635.78-.3.656.215-.013.425.36 2.727.765 3.552.486 1.044 1.646 1.078 1.967-.11.43-1.133 2.41-6.684 3.387-7.75.286-.28.561-.179.437.216-.013.48-.184 3.071.547 4.198.703 1.227 1.76 2.27 3.278.968 1.487-1.39 1.934-2.936 2.294-3.767.151-.38.634-.473.765-.107.343 1.54 4.78 3.627 6.556-2.584.068-.583.75-.785.984-.215.176.64.792 1.383 1.857 1.292.984-.045 3.238-1.66 4.153-3.983.245-.502.861-.3 1.202 0 .342.239 1.639 1.046 2.84.538 1.257-.434 3.17-1.98 4.808-4.951 1.64-2.951 4.098-7.93 4.699-9.365.355-.92 1.038-.583.874.108-.313.926-1.748 6.34.547 8.182 2.35 1.859 6.175-1.336 7.32-2.368 1.177-1.12 7.39-6.503 8.961-8.072.819-.786.069-2.602-1.202-1.615-1.326 1.031-7.267 6.144-8.633 7.104-1.365 1.058-3.103 2.644-4.152 1.83-.73-.603-.422-2.52 0-3.552.397-.987 1.49-3.812 1.858-4.629.451-.798-.027-2.077-.765-2.26-.765-.086-1.858.185-2.295.969-.278.393-.929.493-.874-.216.015-.771.151-2.755-.983-3.66-1.188-.979-2.765-.47-3.825 1.079-1.256 1.844-1.94 5.141.11 5.597.478.149.786.587.437 1.292-.403.708-3.375 6.966-4.699 8.934-1.27 1.933-2.362 2.74-2.95 2.26-.505-.463.144-2.883 3.387-6.028a1.022 1.022 0 00.219-1.4c-.219-.433-1.379-.534-2.186-.214-.834.42-1.276.689-1.748 1.076-.554.285-.894.285-1.093 0-.211-.321-.484-.994 2.186-2.583.471-.293.881-.427 1.748-.323.909.03 1.182-.34 1.42-.646.239-.3.922-1.207 1.202-1.722.197-.495-.007-.965-.764-1.076-.813-.026-3.375-.026-6.558 2.475-1.598 1.2-2.588 2.95-2.404 3.875.089 1.024.19 2 2.294 2.153.696.016.663.721.328 1.076-.279.454-.996 1.093-1.42 1.938-.226.703-1.687 2.798-2.295 3.767-.696 1.173-1.925 1.376-1.858-.323.102-.86.137-2.843.11-3.66.506-1.673 4.261-17.415 4.589-19.805.288-1.31-.465-2.723-1.202-2.798-.765-.06-3.976 1.555-5.026 8.072-1.135 6.536-1.476 8.082-1.421 9.795-2.719-.166-4.835 1.583-5.791 4.414-.956 2.82-1.913 6.183-2.514 7.963-.628 1.853-1.174 2.93-1.857 2.8-.683-.14-.343-2.963-.11-4.413.314-1.378.724-3.665.984-5.059.288-1.43-.395-1.699-.983-1.614-.643.05-4.193 1.797-5.245 6.135-.179.978-1.271 1.448-1.093.215.096-1.324.164-2.197-.874-2.152-.537-.045-1.898.694-2.732 2.69-.805 1.906-2.786 5.874-4.152 8.396-1.366 2.593-2.938 4.275-3.715 3.552-.862-.622 1.12-3.986 1.748-4.843.805-.558 2.31-1.701 1.858-2.476-.368-.84-2.554-.502-3.279.108-.642.669-1.599 1.072-1.966.645-.452-.382.504-1.727 1.31-2.583.835-.893 1.587-1.837 2.844-1.293z" fill="#1F2123"/><path d="M62.176 21.982c-1.093-.341-2.936 2.08-3.387 3.55-.505 1.489-.915 4.045.218 4.413 1.051.44 2.417-2.252 2.95-3.55.56-1.256 1.106-3.746.22-4.413z" fill="#fff"/><path d="M91.679 4.329c-.055-1.92 1.484-3.296 3.278-3.337 1.825.04 3.364 1.417 3.387 3.337-.023 1.835-1.56 3.213-3.387 3.23-1.794-.017-3.333-1.395-3.278-3.23z" fill="#1F2123"/><path d="M94.957 7.02a2.76 2.76 0 001.93-.79c.511-.505.8-1.188.802-1.901-.033-1.591-1.213-2.756-2.732-2.799-1.488.043-2.668 1.208-2.622 2.799a2.544 2.544 0 00.727 1.898 2.645 2.645 0 001.895.793z" fill="#fff"/><path d="M94.301 6.159h-.546V2.39h1.42c.881.018 1.327.347 1.31 1.077.015.682-.413.974-.982 1.076l1.092 1.615h-.656l-.983-1.615h-.655V6.16z" fill="#1F2123"/><path d="M94.957 4.006c.506.049.943.014.983-.538-.04-.488-.47-.576-.874-.538H94.3v1.076h.656z" fill="#fff"/></g><defs><clipPath id="clip0_182_26640"><path fill="#fff" transform="translate(.832 .236)" d="M0 0h100.477v65.245H0z"/></clipPath></defs></svg>