<svg width="116" height="107" fill="none" xmlns="http://www.w3.org/2000/svg"><path fill-rule="evenodd" clip-rule="evenodd" d="M89.073 43.14c-.29.207-.622.346-.985.346-.704 0-1.025-.363-1.308-.964-.528-1.121-.513-2.596-.528-3.717-.012-.883.008-1.766 0-2.649-.005-.676 0-1.172 0-1.849 0-1.614-.685-2.587-1.511-2.737-.938-.171-2.62-.335-3.68.2v15.863c0 1.042-.973 2.021-2.409 2.021-1.563 0-2.77-1.808-2.77-3.073V37.4c0-1.03.73-2.162 1.82-2.162v-2.47c-2.717 0-4.847 2.044-6.16 3.71-1.248 1.581-1.95 2.823-2.828 2.823-1.043 0-1.419-.675-1.419-1.132 0-.783.22-1.748-.086-1.748-1.409.151-7.76 1.566-10.183 3.684-5.771 5.044 2.926 10.227 3.757 10.8.627.433 1.285.81 1.846 1.332.664.621.696 1.7.29 2.451-.348.643-.838.968-1.649.968-1.503 0-2.135-1.762-2.456-2.252-.137-.213-.214-.519-.477-.6-.31-.093-.827.11-1.139.169-.59.11-3.037 1.036-3.412 1.031-.273-.005-.61.039-.845-.145-.43-.335-.648-1.221-.65-1.697l-.003-.966c0-.639.003-1.278.005-1.915l.001-1.088c0-1.08.195-3.919-.502-4.942-.3-.44-1.13-.944-1.986-1.075-.688-.105-1.42.002-2.058.179-.46.125-.862.278-1.026.593-.18.346-.158.775-.156 1.132v2.114c.002.028 1.302-.046 1.453.04.434.247.392.903.392 1.33 0 2.757-.173 5.707-.15 8.464.012 1.236-.205 3.233-1.29 4.064-1.73 1.327-3.887-.033-3.887-1.924v-2.574c.002-1.488 0-2.872 0-4.36v-25.43c-2.568.952-3.607 1.343-5.26 1.953 0 1.018-.003 2.035 0 3.052.004 1.911-.004 3.823-.001 5.735.003 2.162-.005 4.326-.002 6.488.004 1.744-.014 3.489 0 5.233.023 2.89-.173 5.71-.781 8.541-.092.425-.175.857-.285 1.278-.185.702-.403 1.482-.955 1.99-.607.56-1.509.638-2.244.28-1.02-.499-.993-1.557-.95-2.515.045-.936-.025-1.882-.006-2.82.04-1.973-.037-3.948-.008-5.923.007-.443.002-.888.002-1.333l-5.208 1.38c0 .924-.012 1.849.005 2.773.017 1.051.002 2.13 0 3.191 0 1.502-.121 3.02-.452 4.486-.29 1.286-.789 2.974-1.704 3.962-.422.455-1.252.649-1.807.261-.527-.367-.797-1.101-.797-1.732V50.911l-4.71 1.405v7.962c0 9.373-4.586 10.03-6.68 9.373V44.928c0-4.223 1.238-6.273 5.17-6.284 1.583-.005 1.749.399 1.749 1.687v6.628c2.122-.608 4.281-1.48 6.402-2.087v-7.44c0-6.305-7.62-3.437-9.99-2.69-2.343.739-8.714 3.105-8.714 6.704V71.96c0 1.502.91 3.354 2.777 3.354 4.094 0 8.29-5.871 8.765-1.272v16.544l6.114-2.033v-13.36c0-2.301.07-5.227 1.42-7.177.117-.167.75-.99 1.44-1.59.845-.732 1.646-.532 1.864-.17.491.806 1.358 2.045 2.245 2.36.823.291 1.37-.089 2.07-.64.595-.471 1.004-1.217 1.334-1.886.45-.91 1.18-2.547 2.196-2.547.874 0 .334-.142.704.023 1.26.569.695 1.278 1.037 2.388 2.92-.725 6.428-1.815 7.05-2.049 1.389-.522 2.789-1.035 4.11-1.719 1.236-.638 2.702-1.5 3.582-2.604.344-.434.28-1.04.595-1.49.314-.449.885-.666 1.416-.66.666.007.827.056 1.34.573v2.172h.891c.137 0 .52-.385.648-.465a6.242 6.242 0 012.643-.918c1.347-.145 2.426-.393 3.687-.925.704-.295 1.534-.605 2.182-1.005 1.468-.907 2.971-2.509 2.971-4.347 0 0 .27-3.3-3.972-5.962-1.094-.686-2.45-1.344-3.3-2.362-.69-.826-1.299-1.832-.304-2.58.435-.325 1.154-.49 1.698-.492.745-.002 1.395.642 1.823 1.187.22.285.432.625.539.972.17.548.43.807 1.023.804.602-.003.89-.525 1.296-.886a6.2 6.2 0 011.85-1.15c.511-.202 1.288-.169 1.72.37.493.618.229 2.244.229 3.003 0 1.302-.023 1.769 0 2.812.156 7.173 8.46 5.544 14.904 1.19.806-.543 1.102-.97 1.658-1.76.4-.567.829-1.105 1.446-1.468.42-.246 1.103-.223 1.461.049.445.335.497.745.51 1.273.004.124-.054 1.203.17 1.13 2.305-.852 3.31-1.246 5.025-1.88V33.99c.606-1.535 2.76-1.14 2.893-.036v25.52c0 1.039.711 2.4 1.588 2.967.28.18.589.313.913.39 1.252.289 2.772-.035 3.973-.508 1.792-.706 3.11-2.026 3.681-3.859.131-.426.235-.909.235-1.356v-2.646c-.237.062-1.283.42-1.861.616 0 .202.021 1.072.016 1.151-.03.552-.086 1.119-.31 1.632-.115.262-.311.48-.558.623-.284.158-.58.126-.892.126-1.602 0-1.617-1.575-1.617-2.03 0-1.979.003-22.33 0-23.82v-6.32c0-.72-1.388-.62-1.766-.518-.574.156-6.297 2.183-6.295 2.123.018-.375 0-.448 0-.824 0-1.073-2.772.112-3.84.544-.55.224-1.446.497-1.446.62 0 .342.014 1.048 0 1.475-.042 1.46-.08 2.923-.126 4.381-.053 1.665-.175 3.328-.493 4.965-.088.464-.195.923-.32 1.378-.191.706-.422 1.474-.892 2.049-.153.19-.33.36-.525.506z" fill="#1F2123"/><path fill-rule="evenodd" clip-rule="evenodd" d="M33.197 38.361c0 1.921-1.509 3.476-3.37 3.476-1.864 0-3.373-1.555-3.373-3.476 0-1.92 1.51-3.475 3.372-3.475 1.862 0 3.371 1.555 3.371 3.475z" fill="#1F2123"/></svg>