<svg width="143" height="35" fill="none" xmlns="http://www.w3.org/2000/svg"><path d="M.93 31.348c.098.016.216.022.357.022.44 0 .83-.157 1.077-.44.26-.292.395-.682.394-1.134 0-.593-.335-.944-1.006-.944-.142 0-.26.006-.345.022l-.476 2.474zm-.23-3.06a6.18 6.18 0 011.05-.084c.593 0 1.068.135 1.39.408.306.251.499.625.505 1.178.002.726-.309 1.357-.782 1.731-.44.345-1 .497-1.823.497-.458 0-.854-.033-1.04-.067l.7-3.663zm8.287-.057l-.717 3.764h-.813l.716-3.764h.814zm6.818 3.591a4.16 4.16 0 01-1.232.212c-.524 0-.954-.134-1.271-.413-.306-.268-.481-.68-.482-1.162a2.205 2.205 0 01.777-1.719c.429-.352 1.015-.548 1.676-.548.497 0 .865.096 1.011.168l-.241.681a2.08 2.08 0 00-.808-.157c-.379 0-.717.107-.971.303-.327.257-.546.703-.546 1.216 0 .63.38.95.979.95.186 0 .321-.028.412-.067l.15-.794h-.586l.123-.641h1.384l-.375 1.971zm5.804-3.591l-.716 3.764h-.814l.717-3.764h.813zm4.948.704h-1.005l.14-.704h2.83l-.135.704h-1.016l-.576 3.06h-.814l.576-3.06zm7.109 1.469l-.074-.81a67.914 67.914 0 01-.059-.736h-.01c-.096.229-.204.518-.305.736l-.376.81h.825zm-1.06.614l-.45.977h-.865l1.846-3.764h1.045l.453 3.764h-.853l-.08-.977h-1.097zm6.792-2.787h.813l-.581 3.06h1.463l-.136.704H38.68l.717-3.764zm12.463 2.173l-.074-.81a76.355 76.355 0 01-.059-.736h-.01c-.096.229-.204.518-.305.736l-.377.81h.825zm-1.061.614l-.45.977h-.864l1.846-3.764h1.044l.454 3.764h-.853l-.08-.977H50.8zm9.06.804a4.138 4.138 0 01-1.232.212c-.525 0-.955-.134-1.271-.413-.306-.268-.481-.68-.482-1.162a2.2 2.2 0 01.776-1.719c.429-.352 1.016-.548 1.676-.548.498 0 .866.096 1.012.168l-.241.681a2.086 2.086 0 00-.809-.157c-.378 0-.717.107-.97.303-.328.257-.547.703-.547 1.216.002.63.38.95.98.95.185 0 .322-.028.411-.067l.151-.794h-.587l.124-.641h1.383l-.375 1.971zm6.764-1.423h-1.356l-.173.91h1.52l-.129.686h-2.334l.717-3.764h2.253l-.134.687h-1.434l-.157.805h1.355l-.128.676zm4.088 1.596l.717-3.764h.955l.505 1.435c.153.48.256.872.348 1.285h.017c.016-.385.066-.797.172-1.351l.258-1.369h.756l-.71 3.764h-.843l-.532-1.503a11.57 11.57 0 01-.376-1.31l-.017.005c-.045.362-.133.898-.246 1.49l-.245 1.318h-.759zm10.256-.105c-.204.09-.546.16-1.005.16-1.005 0-1.684-.602-1.687-1.596 0-.843.382-1.502.959-1.881.393-.273.863-.403 1.4-.403.412 0 .722.095.83.163l-.219.653c-.114-.056-.362-.123-.69-.123a1.37 1.37 0 00-.869.29c-.322.258-.525.687-.525 1.212.003.597.343 1 1.015 1 .265 0 .53-.045.722-.123l.069.648zm4.836.105l.293-1.536-.747-2.228h.871l.245.955c.068.313.108.492.147.682h.012c.114-.202.226-.413.389-.687l.569-.95h.97l-1.638 2.211-.297 1.553h-.814zM132.09 18.25h1.023c1.169 0 1.827-.492 1.97-1.479l.078-.621c.146-.998-.367-1.497-1.536-1.497h-2.579l-.493 3.46c.263.053.513.088.748.108.237.018.5.028.789.028z" fill="#999"/><path d="M142.999 17.466C142.999 7.82 135.08 0 125.311 0c-1.893 0-3.713.3-5.424.844l-2.006 13.27a1.31 1.31 0 01-.103.336l-.774 5.492c-.04.297-.078.596-.109.894-.034.298-.057.587-.07.865a4.89 4.89 0 00.02.768c.027.234.072.435.138.603.184.208.441.364.769.467.328.104.682.157 1.063.157.512 0 1.003-.096 1.476-.283.473-.187.794-.464.965-.826.092-.196.168-.457.227-.789a62.5 62.5 0 00.227-1.39l1.023-7.31c.053-.325.111-.574.177-.75a.72.72 0 01.288-.38c.122-.077.283-.121.48-.135.198-.014.453-.02.769-.02.368 0 .656.004.866.01.21.007.362.048.454.127.091.077.137.204.137.38 0 .173-.026.43-.077.767l-1.026 7.311c-.052.35-.107.717-.167 1.1a6.27 6.27 0 01-.246 1.04 5.753 5.753 0 01-.847 1.633 5.54 5.54 0 01-1.32 1.264c-.511.35-1.087.62-1.722.807a6.74 6.74 0 01-2.039.263c-1.524-.014-2.697-.356-3.525-1.03-.826-.675-1.254-1.654-1.28-2.937 0-.312.016-.65.048-1.011.034-.364.083-.733.149-1.108l1.023-7.332c.035-.21.072-.378.113-.525l1.552-10.26c-5.323 3.012-8.918 8.663-8.918 15.154 0 9.53 7.735 17.264 17.343 17.449l1.876-12.406 1.17-8.304a1.696 1.696 0 01-.61-.379.887.887 0 01-.258-.457l.12-.953a.654.654 0 01.247-.438.75.75 0 01.481-.165h6.185c1.639 0 2.802.348 3.484 1.04.683.695.919 1.748.709 3.16l-.138 1.032c-.198 1.36-.735 2.378-1.615 3.052-.88.675-2.134 1.012-3.762 1.012h-.412a61.855 61.855 0 00-1.458-.05c-.368-.007-.617-.021-.748-.048h-.039v-.02l-2.071 13.7c8.427-1.335 14.873-8.526 14.873-17.225z" fill="#999"/><path d="M125.906 12.33c0-.176-.045-.303-.137-.38-.092-.079-.243-.12-.453-.127-.211-.006-.499-.01-.867-.01-.315 0-.571.006-.769.02a1.04 1.04 0 00-.48.136.722.722 0 00-.287.378 4.1 4.1 0 00-.177.75l-1.023 7.31a76.73 76.73 0 01-.227 1.392 3.167 3.167 0 01-.228.788c-.17.362-.491.638-.964.826a3.963 3.963 0 01-1.476.282c-.381 0-.736-.053-1.064-.156-.327-.103-.584-.26-.769-.466a2.473 2.473 0 01-.138-.604 4.796 4.796 0 01-.019-.769c.013-.277.036-.566.069-.864.032-.299.069-.597.109-.894l.774-5.492c.047-.106.086-.216.103-.335L119.89.843a17.811 17.811 0 00-3.348 1.468l-1.552 10.26a5.09 5.09 0 00-.112.525l-1.023 7.331c-.067.376-.115.744-.149 1.108-.032.362-.049.7-.049 1.012.026 1.283.454 2.262 1.281 2.938.827.673 2 1.016 3.525 1.028.722.014 1.4-.075 2.038-.263a6.005 6.005 0 001.722-.807 5.548 5.548 0 002.167-2.895c.106-.313.187-.66.246-1.042.06-.383.115-.749.168-1.1l1.025-7.31c.051-.337.077-.593.077-.768zm9.251 3.82l-.078.622c-.144.985-.802 1.477-1.97 1.477h-1.023c-.288 0-.552-.01-.788-.029a6.376 6.376 0 01-.748-.107l.492-3.46h2.579c1.17 0 1.681.499 1.536 1.496zm2.502-3.297c-.683-.693-1.845-1.04-3.485-1.04h-6.185a.75.75 0 00-.481.165.66.66 0 00-.247.438l-.119.952a.89.89 0 00.257.458c.145.15.346.275.61.378l-1.17 8.304-1.876 12.406c.116.002.23.017.347.017.959 0 1.896-.096 2.814-.24l2.071-13.7v.02h.041c.129.026.38.041.748.048.367.007.851.023 1.456.05h.414c1.627 0 2.88-.338 3.762-1.013.878-.673 1.416-1.691 1.613-3.052l.138-1.03c.21-1.414-.026-2.467-.708-3.161z" fill="#F1F6FD"/><path d="M14.52 23.263l.945-6.325c.254-1.661.6-3.777 1.037-5.985h-.069c-.852 1.98-1.82 4.096-2.672 5.78l-3.18 6.279H8l-.554-6.21a166.79 166.79 0 01-.345-5.85h-.047c-.438 2.026-.899 4.325-1.29 5.986L4.22 23.263H1.179L5.074 7.927H9.52l.483 5.825c.093 1.434.254 3.186.277 4.891h.092c.6-1.705 1.428-3.503 2.097-4.89l2.88-5.826h4.493l-2.096 15.336H14.52zm14.147-8.805a5.085 5.085 0 00-.899-.092c-2.143 0-3.71 2.595-3.71 4.665 0 1.092.438 1.843 1.36 1.843.991 0 2.212-1.115 2.72-3.845l.53-2.57zm-.968 8.806c.023-.661.092-1.411.162-2.207h-.07c-1.036 1.842-2.465 2.457-3.779 2.457-2.027 0-3.41-1.548-3.41-3.868 0-3.755 2.512-7.76 8.065-7.76 1.337 0 2.788.251 3.733.546l-1.198 5.826c-.277 1.433-.485 3.617-.438 5.006h-3.065zm5.506-.001l1.268-6.622c.322-1.683.46-3.55.576-4.505h2.88c-.07.75-.138 1.502-.207 2.275h.069c.783-1.48 2.05-2.525 3.595-2.525.207 0 .414 0 .621.022l-.645 3.186c-.161-.023-.345-.023-.53-.023-2.12 0-3.11 1.867-3.525 4.05l-.783 4.142h-3.319zm8.522 0l3.088-16.156h3.295l-1.843 9.67h.046c.345-.432.691-.864 1.013-1.274l2.881-3.367h4.078l-4.792 4.574 3.134 6.553H48.94l-1.981-4.756-1.245 1.16-.692 3.596h-3.295zm18.16-8.988c-1.543 0-2.42 1.252-2.65 2.298 2.581.023 3.87-.341 3.87-1.343 0-.569-.46-.955-1.22-.955zm2.926 8.35c-1.313.66-2.95.866-4.193.866-3.226 0-4.885-1.798-4.885-4.688 0-3.39 2.488-6.917 6.567-6.917 2.28 0 3.917 1.251 3.917 3.322 0 2.844-2.788 3.868-7.305 3.754 0 .319.116.819.346 1.138.438.568 1.198.864 2.166.864a7.165 7.165 0 003.157-.705l.23 2.367zM71.31 9.018l-.598 3.117h2.397l-.484 2.481H70.23l-.761 3.777c-.092.455-.184 1.023-.184 1.41 0 .546.23.934.945.934.299 0 .621 0 .921-.047l-.391 2.572c-.415.16-1.245.25-1.959.25-1.982 0-2.927-1.002-2.927-2.389 0-.614.07-1.228.231-2.07l.876-4.437H65.55l.461-2.48h1.451l.462-2.344 3.386-.774zm1.637 14.245l2.143-11.126h3.318l-2.143 11.126h-3.318zm6.107 0l1.428-7.51c.277-1.41.462-2.639.6-3.617h2.948l-.23 1.843h.047c1.06-1.456 2.465-2.093 3.962-2.093 1.844 0 2.881 1.115 2.881 3.027 0 .5-.093 1.341-.185 1.888l-1.244 6.462h-3.318l1.176-6.167a7.49 7.49 0 00.114-1.251c0-.774-.275-1.32-1.106-1.32-1.082 0-2.349 1.343-2.81 3.8l-.945 4.938h-3.318zm21.45-8.669c-.253-.114-.737-.205-1.198-.205-2.004 0-3.433 2.207-3.433 4.324 0 1.114.506 1.933 1.52 1.933 1.083 0 2.19-1.183 2.536-3.071l.575-2.981zM92.762 24.81c.622.363 2.005.613 2.95.613 1.658 0 2.902-.727 3.364-2.957l.183-.933h-.045c-.876 1.114-1.89 1.638-3.226 1.638-2.236 0-3.595-1.797-3.618-3.96 0-3.685 2.65-7.325 7.56-7.325 1.588 0 2.993.273 4.169.773l-1.705 9.17c-.391 2.047-1.014 3.869-2.373 4.937-1.222.956-2.858 1.25-4.356 1.25-1.498 0-2.903-.27-3.664-.704l.761-2.502zM77.279 7.522l-1.06 1.592-1.038 1.552h3.63L77.28 7.522z" fill="#999"/></svg>