<svg width="24" height="24" fill="none" xmlns="http://www.w3.org/2000/svg"><g clip-path="url(#clip0_51_18644)"><path d="M14.578 24H5.625a3.754 3.754 0 01-3.75-3.75V7.547a3.754 3.754 0 013.75-3.75h8.953a3.754 3.754 0 013.75 3.75V20.25a3.754 3.754 0 01-3.75 3.75zM5.625 5.672A1.877 1.877 0 003.75 7.547V20.25c0 1.034.841 1.875 1.875 1.875h8.953a1.877 1.877 0 001.875-1.875V7.547a1.877 1.877 0 00-1.875-1.875H5.625zm16.453 12.234V3.75A3.754 3.754 0 0018.328 0H7.922a.937.937 0 100 1.875h10.406c1.034 0 1.875.841 1.875 1.875v14.156a.937.937 0 101.875 0z" fill="#1F2123"/></g><defs><clipPath id="clip0_51_18644"><path fill="#fff" d="M0 0h24v24H0z"/></clipPath></defs></svg>