<svg width="133" height="53" fill="none" xmlns="http://www.w3.org/2000/svg"><g clip-path="url(#clip0_302_27209)" fill-rule="evenodd" clip-rule="evenodd"><path d="M86.86 42.517c-2.451.652-5.643.924-8.38.924-7.128 0-11.804-3.53-11.804-9.99 0-6.136 4.39-10.1 10.775-10.1 1.427 0 2.966.162 3.879.595v-8.902h5.53v27.473zM81.33 28.51c-.857-.382-2.053-.598-3.421-.598-3.365 0-5.587 1.955-5.587 5.375 0 3.638 2.395 5.703 6.33 5.703.682 0 1.765 0 2.678-.218V28.51zm50.973 14.007c-2.451.652-5.646.924-8.439.924-7.068 0-11.801-3.53-11.801-9.99 0-6.136 4.39-10.1 10.775-10.1 1.481 0 2.963.162 3.879.595v-8.902h5.586v27.473zm-5.586-14.007c-.857-.382-1.996-.598-3.368-.598-3.421 0-5.643 1.955-5.643 5.375 0 3.638 2.451 5.703 6.384 5.703.687 0 1.713 0 2.627-.218V28.51zm-31.132 0c.91-.382 2.222-.49 3.305-.49 3.421 0 5.759 1.847 5.759 5.157 0 3.912-2.623 5.703-6.1 5.757v4.507h.285c7.184 0 11.462-3.745 11.462-10.426 0-6.08-4.564-9.664-11.29-9.664-3.421 0-6.788.76-9.01 1.629v25.79h5.589V28.51z" fill="#3F3F42"/><path d="M46.266 10.806l.91.977.515-.272-1.425-.705z" fill="#DC0032"/><path d="M44.898 10.1l1.767 1.955.628-.326-.684-.76-1.71-.869z" fill="#DC0032"/><path d="M43.473 9.395l2.68 2.932.628-.326-1.539-1.74-1.77-.866z" fill="#DC0032"/><path d="M42.102 8.69l3.536 3.906.628-.325-2.451-2.717-1.713-.865zm6.788 6.895l-.402.216.4.436.002-.652z" fill="#DC0032"/><path d="M40.738 7.981l4.391 4.887.625-.325-3.308-3.692-1.708-.87zm7.925 7.712l-.627.38.853.977v-1.03l-.226-.326z" fill="#DC0032"/><path d="M39.309 7.276l5.304 5.864.684-.325-4.221-4.67-1.767-.87zm8.838 8.689l-.628.38 1.369 1.52v-1.03l-.741-.87z" fill="#DC0032"/><path d="M37.941 6.57l6.215 6.842.627-.326-5.131-5.646-1.71-.87zm9.695 9.72l-.628.326 1.88 2.117v-1.031l-1.252-1.411z" fill="#DC0032"/><path d="M36.574 5.864l7.071 7.82.628-.326-5.988-6.624-1.71-.87zm10.549 10.698l-.628.326 2.398 2.66v-1.03l-1.77-1.956z" fill="#DC0032"/><path d="M35.148 5.156l7.982 8.8.628-.326-6.843-7.604-1.767-.87zM46.61 16.834l-.627.326 2.909 3.202v-1.031l-2.282-2.497z" fill="#DC0032"/><path d="M33.781 4.454l8.836 9.825.63-.377-7.755-8.581-1.71-.867zm12.316 12.65l-.628.326 3.421 3.802V20.2l-2.793-3.097z" fill="#DC0032"/><path d="M32.355 3.746l9.752 10.808.625-.382-8.61-9.554-1.767-.872zm13.286 13.63l-.684.326 3.933 4.346V21.01l-3.249-3.635z" fill="#DC0032"/><path d="M30.984 3.04L41.59 14.823l.684-.38L32.75 3.91l-1.767-.87zm14.142 14.608l-.63.326 4.391 4.94v-1.082l-3.76-4.184z" fill="#DC0032"/><path d="M29.617 2.334l11.519 12.761.625-.38-10.433-11.51-1.71-.87zM44.613 17.92l-.627.325 4.902 5.485V22.7l-4.275-4.78z" fill="#DC0032"/><path d="M28.191 1.575l12.43 13.792.627-.38L29.958 2.5l-1.767-.924zm15.907 16.617l-.628.326 5.417 6.028v-1.034l-4.79-5.32z" fill="#DC0032"/><path d="M26.824.87L40.11 15.639l.625-.326L28.59 1.793 26.824.87zm16.763 17.594l-.627.325 5.929 6.624v-1.085l-5.302-5.864z" fill="#DC0032"/><path d="M25.457.218l14.142 15.693.625-.326-13.056-14.5-1.711-.867zm17.617 18.515l-.627.326 6.443 7.168v-1.032l-5.816-6.462z" fill="#DC0032"/><path d="M24.543 0l14.54 16.183.626-.325L25.799.38l-.344-.16a1.739 1.739 0 00-.912-.22zm18.018 19.006l-.627.325 6.955 7.712v-1.031l-6.328-7.006z" fill="#DC0032"/><path d="M24.544 0c-.23 0-.458.054-.685.108l14.71 16.344.685-.326L24.716 0h-.172zm17.563 19.277l-.628.326 7.41 8.31v-1.088l-6.782-7.548z" fill="#DC0032"/><path d="M24.032.054c-.116.054-.286.107-.342.164l-.342.162 14.767 16.344.627-.326L24.032.056V.054zm17.56 19.495l-.627.38 7.925 8.799v-1.034l-7.298-8.145z" fill="#DC0032"/><path d="M23.46.272l-.628.326 14.767 16.398.628-.326L23.46.272zm17.617 19.549l-.625.38 8.437 9.338v-1.032l-7.812-8.686z" fill="#DC0032"/><path d="M22.945.544L22.32.87l14.767 16.398.628-.326L22.945.544zm17.617 19.549l-.625.38 8.952 9.935v-1.031l-8.327-9.284z" fill="#DC0032"/><path d="M22.432.813l-.627.326L36.572 17.54l.627-.326L22.432.814zm17.617 19.55l-.625.381 9.464 10.48v-1.031l-8.839-9.83z" fill="#DC0032"/><path d="M21.918 1.085l-.625.326L36.06 17.812l.628-.326-14.77-16.4zm17.617 19.55l-.625.379 9.978 11.024v-1.032l-9.353-10.372z" fill="#DC0032"/><path d="M21.408 1.36l-.63.32 14.765 16.4.628-.326L21.408 1.36zm17.676 19.549l-.628.377L48.89 32.907v-1.031l-9.805-10.968z" fill="#DC0032"/><path d="M20.89 1.575l-.624.38 14.823 16.398.628-.326L20.89 1.575zm17.677 19.657l-.628.326L48.887 33.72v-1.032l-10.32-11.457z" fill="#DC0032"/><path d="M20.381 1.847l-.627.326 14.824 16.452.627-.326L20.382 1.847zm17.677 19.657l-.628.326 11.46 12.76v-1.085L38.057 21.504z" fill="#DC0032"/><path d="M19.867 2.116l-.625.326 14.824 16.509.627-.38L19.867 2.116zm17.677 19.66l-.628.325L48.89 35.406v-1.034L37.543 21.776z" fill="#DC0032"/><path d="M19.354 2.388l-.627.326L33.55 19.223l.628-.38L19.354 2.388zm17.677 19.66l-.628.325L48.888 36.22v-1.031l-11.857-13.14z" fill="#DC0032"/><path d="M18.84 2.66l-.625.326 14.823 16.512.628-.38L18.84 2.66zm17.676 19.66l-.627.325 13 14.444v-1.085L36.516 22.32z" fill="#DC0032"/><path d="M18.324 2.932l-.625.326 14.824 16.509.627-.382L18.325 2.932zM36.06 22.59l-.628.326 13.455 14.987v-1.031L36.06 22.589z" fill="#DC0032"/><path d="M17.813 3.15l-.684.326 14.94 16.56.627-.38L17.813 3.15zm17.733 19.71l-.628.327 13.97 15.531v-1.031L35.546 22.86z" fill="#DC0032"/><path d="M17.301 3.42l-.684.325 14.996 16.617a.435.435 0 01.227-.215l.342-.218-14.88-16.51zm17.733 19.713l-.627.326 14.368 15.964a1.52 1.52 0 00.113-.487V38.5L35.034 23.133z" fill="#DC0032"/><path d="M16.788 3.694l-.686.323 15.34 16.997v-.216c0-.164.116-.38.23-.544L16.787 3.694zm17.73 19.71l-.457.273c-.054 0-.11.05-.17.05l14.597 16.24c.159-.193.275-.415.343-.651L34.519 23.405z" fill="#DC0032"/><path d="M16.274 3.964l-.684.325 15.85 17.594v-1.085L16.274 3.964zm16.647 19.495l15.166 16.888c.172-.11.345-.326.515-.487L34.007 23.677a1.019 1.019 0 01-.8 0l-.286-.218z" fill="#DC0032"/><path d="M15.762 4.236l-.684.325L47.581 40.62l.458-.218.17-.164-14.937-16.56h-.06l-1.309-.762c-.116-.052-.172-.162-.285-.272-.116-.162-.116-.27-.173-.38v-.598L15.762 4.235z" fill="#DC0032"/><path d="M15.25 4.508l-.684.325 32.5 36.056.628-.326L15.251 4.508z" fill="#DC0032"/><path d="M14.735 4.723l-.684.326L46.61 41.16l.625-.326-32.5-36.111z" fill="#DC0032"/><path d="M14.223 4.995l-.684.326 32.557 36.111.627-.326-32.5-36.111z" fill="#DC0032"/><path d="M13.708 5.267l-.685.326 32.562 36.111.625-.326L13.708 5.267z" fill="#DC0032"/><path d="M13.14 5.539l-.628.326L45.068 42.03l.628-.38L13.139 5.54z" fill="#DC0032"/><path d="M12.624 5.81l-.628.327 32.56 36.165.624-.38L12.624 5.811z" fill="#DC0032"/><path d="M12.112 6.08l-.628.328 32.613 36.166.628-.382L12.112 6.08z" fill="#DC0032"/><path d="M11.6 6.298l-.627.326 32.616 36.22.627-.38L11.6 6.298z" fill="#DC0032"/><path d="M11.089 6.57l-.628.326 32.613 36.22.628-.327L11.089 6.57z" fill="#DC0032"/><path d="M10.573 6.842l-.628.326 15.853 17.594.512.326c.229.107.458.38.458.651v.054L42.56 43.387l.628-.326L10.573 6.842z" fill="#DC0032"/><path d="M10.061 7.114l-.627.326 14.88 16.563 1.883.974L10.06 7.114zM26.71 25.575c0 .057.059.11.059.164v.924l15.279 16.996.627-.326L26.71 25.575z" fill="#DC0032"/><path d="M9.546 7.386l-.628.326 13.913 15.475 1.883.977L9.546 7.386zm17.22 19.061v1.03L41.59 43.93l.628-.326-15.451-17.158z" fill="#DC0032"/><path d="M9.031 7.655l-.625.326 13 14.392 1.824.975L9.03 7.655zm17.736 19.606v1.085L41.076 44.2l.628-.323-14.937-16.616z" fill="#DC0032"/><path d="M8.518 7.876l-.627.323 12.033 13.359 1.823 1.03L8.518 7.877zm18.248 20.252v1.031l13.797 15.316.628-.328-14.425-16.02z" fill="#DC0032"/><path d="M8.007 8.145l-.628.326 11.06 12.273 1.827 1.032-12.26-13.63zm18.759 20.799v1.03l13.283 14.77.627-.326-13.91-15.474z" fill="#DC0032"/><path d="M7.498 8.415l-.63.328 10.093 11.24 1.823.977L7.498 8.415zm19.27 21.344v1.085l12.77 14.226.63-.38-13.399-14.93z" fill="#DC0032"/><path d="M6.983 8.69l-.628.325 9.124 10.154 1.824.975L6.983 8.689zM26.77 30.623v1.034l12.315 13.684.625-.38-12.94-14.338z" fill="#DC0032"/><path d="M6.467 8.959l-.627.325 8.154 9.07 1.883.977-9.41-10.372zm20.3 22.48v1.035l11.802 13.14.627-.38L26.768 31.44z" fill="#DC0032"/><path d="M5.956 9.23l-.628.326 7.184 7.984 1.88 1.031-8.436-9.34zm14.937 17.594l1.481 1.63v-.598c0-.108-.113-.27-.226-.326l-1.255-.706zm5.872 5.431v1.086l11.292 12.545.625-.38-11.917-13.25z" fill="#DB0032"/><path d="M5.44 9.448l-.628.326 6.218 6.953 1.88 1.029-7.47-8.308zm13.97 16.563l2.963 3.258v-1.031l-1.08-1.195-1.883-1.032zm7.354 7.114v1.032l10.777 12 .628-.325-11.405-12.707z" fill="#DC0032"/><path d="M4.928 9.72l-.627.326 5.301 5.919 1.826.975-6.5-7.22zm13 15.53l4.445 4.886v-1.03l-2.564-2.88-1.88-.977zm8.836 8.688v1.032l10.263 11.457.628-.326-10.891-12.163z" fill="#DC0032"/><path d="M4.413 9.992l-.628.326 4.337 4.831 1.821.978-5.53-6.135zm12.09 14.444l5.872 6.516v-1.031l-4.052-4.508-1.82-.977zm10.262 10.372v1.032l9.806 10.86.627-.327-10.433-11.565z" fill="#DC0032"/><path d="M3.901 10.262l-.628.325 3.365 3.749 1.824.975-4.56-5.05zM15.018 23.62l7.354 8.145v-1.03l-5.525-6.081-1.829-1.034zm11.745 12.001v1.032l9.293 10.318.63-.326-9.923-11.024z" fill="#DC0032"/><path d="M3.385 10.534l-.627.325 2.397 2.66 1.824 1.035-3.594-4.02zm10.15 12.273l8.836 9.828v-1.031l-7.012-7.766-1.823-1.031zm13.227 13.63v1.032l8.781 9.774.628-.326-9.41-10.48z" fill="#DC0032"/><path d="M2.874 10.806l-.628.326 1.428 1.575 1.88 1.031-2.68-2.932zm9.18 11.242L22.371 33.45v-1.034l-8.493-9.392-1.824-.977zm14.708 15.256v1.034l8.27 9.177.627-.326-8.897-9.885z" fill="#DC0032"/><path d="M2.36 11.024l-.684.326.512.597 1.885.975-1.713-1.898zm8.21 10.21l11.805 13.084v-1.085L12.45 22.209l-1.88-.975zM26.765 38.12v1.032l7.753 8.689.627-.38-8.38-9.34z" fill="#DC0032"/><path d="M1.848 11.296l-.399.215 1.14.598-.741-.813zm7.24 9.123l13.286 14.715v-1.031L10.97 21.447l-1.88-1.028zm17.677 18.514v1.088l7.297 8.092.628-.383-7.925-8.797z" fill="#DC0032"/><path d="M7.664 19.602l14.708 16.345v-1.031L9.488 20.634l-1.824-1.032zm19.099 20.201v1.031l6.788 7.548.625-.38-7.413-8.199z" fill="#DC0032"/><path d="M6.18 18.843l16.195 17.974v-1.085L8.006 19.82l-1.826-.978zM26.765 40.62v1.031l6.271 7.004.628-.38-6.899-7.655z" fill="#DC0032"/><path d="M4.7 18.027L22.374 37.63V36.6L6.523 19.005l-1.824-.978zm22.066 23.405v1.085l5.754 6.409.628-.326-6.382-7.168z" fill="#DC0032"/><path d="M3.219 17.214l19.158 21.232v-1.031L5.042 18.245l-1.823-1.03zm23.548 25.088v1.031l5.245 5.865.628-.326-5.873-6.57z" fill="#DB0032"/><path d="M1.734 16.398l20.642 22.918v-1.034L3.561 17.43l-1.827-1.032zm25.033 26.717v1.032l4.79 5.323.625-.326-5.415-6.029z" fill="#DA0032"/><path d="M.253 15.639l22.123 24.49v-1.031L2.136 16.616.25 15.64h.003zM26.767 43.93v1.085l4.275 4.726.628-.326-4.903-5.485z" fill="#D90032"/><path d="M.195 15.585v.76l22.18 24.6V39.91L.652 15.803l-.456-.218zm26.571 29.213v.652a.405.405 0 01-.115.272l3.878 4.29.625-.327-4.39-4.887h.002z" fill="#D80032"/><path d="M.195 16.127v1.087l22.18 24.598V40.78L.196 16.127zm26.512 29.487c-.054.218-.226.436-.399.487l-.053.057 3.76 4.125.628-.326-3.933-4.343h-.003z" fill="#D70032"/><path d="M.195 16.996v1.031l22.18 24.6v-1.03l-22.18-24.6zm26.17 29.054c0 .054 0 .054-.054.054l-.57.326 3.762 4.127.625-.325-3.763-4.182z" fill="#D60032"/><path d="M.195 17.812v1.031l22.18 24.598V42.41L.196 17.812zM25.91 46.319l-.684.38 3.82 4.182.627-.38-3.763-4.181z" fill="#D50032"/><path d="M.195 18.68v1.03l22.18 24.6v-1.03L.196 18.68zm25.203 27.912l-.401.218c-.113.05-.227.05-.343.05l3.88 4.293.627-.38-3.763-4.181z" fill="#D40032"/><path d="M.195 19.495v1.029l22.18 24.597V44.09L.196 19.495zm23.436 27.094l4.39 4.833.626-.38-3.82-4.181c-.057 0-.173.051-.23.051h-.053a.882.882 0 01-.404-.105l-.51-.218z" fill="#D30032"/><path d="M.195 20.308v1.088l27.312 30.298.628-.38-4.106-4.561-1.255-.652a.774.774 0 01-.29-.275.726.726 0 01-.108-.376v-.542l-22.18-24.6z" fill="#D20032"/><path d="M.195 21.178v1.031l26.798 29.76.627-.329L.195 21.178z" fill="#D10032"/><path d="M.195 21.991v1.034l26.286 29.213.627-.326L.195 21.992z" fill="#D00032"/><path d="M.195 22.807v1.085L26.023 52.51l.628-.326L.195 22.807z" fill="#CF0032"/><path d="M.195 23.677v1.03l25.316 28.075.628-.326L.195 23.676z" fill="#CE0032"/><path d="M.195 24.49v1.031L24.94 52.998c.172-.052.342-.108.512-.162l.172-.108L.195 24.49z" fill="#CD0032"/><path d="M.195 25.306v1.085L24.2 53h.342c.173 0 .343 0 .512-.057L.195 25.306z" fill="#CC0032"/><path d="M.195 26.173v1.031l22.692 25.198.8.434c.17.108.456.164.685.164L.195 26.173z" fill="#CB0032"/><path d="M.195 26.989v1.031l21.21 23.567 1.881 1.03L.196 26.99z" fill="#CA0032"/><path d="M.195 27.856v1.034l19.73 21.883 1.88 1.031L.195 27.856z" fill="#C90032"/><path d="M.195 28.672v1.03L18.44 49.958l1.826 1.032L.196 28.672z" fill="#C80033"/><path d="M.195 29.485v1.034L16.96 49.144l1.823 1.031L.195 29.485z" fill="#C70033"/><path d="M.195 30.355v1.03l15.223 16.89 1.883 1.03L.195 30.356z" fill="#C60033"/><path d="M.195 31.17v1.032l13.741 15.26 1.883 1.03L.195 31.17z" fill="#C50033"/><path d="M.195 31.984v1.031l12.257 13.63 1.886 1.032L.194 31.984z" fill="#C40033"/><path d="M.195 32.853v1.032L10.97 45.832l1.883 1.031L.195 32.853z" fill="#C30033"/><path d="M.195 33.666v1.032L9.49 45.016l1.883 1.032L.195 33.666z" fill="#C20033"/><path d="M.195 34.48v1.088l7.812 8.635 1.824 1.031L.195 34.48z" fill="#C10033"/><path d="M.195 35.352v1.031l6.271 7.004 1.883 1.031-8.154-9.066z" fill="#C00033"/><path d="M.195 36.165v1.032l4.79 5.377 1.88.975-6.67-7.384z" fill="#BF0033"/><path d="M.195 36.978v1.088l3.308 3.638 1.88 1.031-5.188-5.757z" fill="#BE0033"/><path d="M.195 37.848v1.032l1.824 2.008 1.883 1.034-3.707-4.074z" fill="#BD0033"/><path d="M.195 38.662v.272c0 .543.399 1.195.854 1.467l1.369.705-2.223-2.442v-.002z" fill="#BC0033"/><path d="M.54 39.91c.112.111.169.219.285.273l-.286-.272z" fill="#B03"/></g><defs><clipPath id="clip0_302_27209"><path fill="#fff" d="M0 0h132.5v53H0z"/></clipPath></defs></svg>