<svg width="83" height="34" fill="none" xmlns="http://www.w3.org/2000/svg"><g clip-path="url(#clip0_16_2305)" fill-rule="evenodd" clip-rule="evenodd"><path d="M54.411 27.275c-1.535.418-3.535.592-5.25.592-4.464 0-7.394-2.264-7.394-6.408 0-3.937 2.75-6.48 6.75-6.48.894 0 1.858.104 2.43.382v-5.71h3.464v17.624zm-3.464-8.986c-.537-.245-1.286-.383-2.143-.383-2.108 0-3.5 1.254-3.5 3.448 0 2.333 1.5 3.658 3.966 3.658.426 0 1.105 0 1.677-.14V18.29zm31.93 8.986c-1.535.418-3.536.592-5.286.592-4.428 0-7.392-2.264-7.392-6.408 0-3.937 2.75-6.48 6.75-6.48.927 0 1.855.104 2.429.382v-5.71h3.5v17.624zm-3.5-8.986c-.536-.245-1.25-.383-2.108-.383-2.143 0-3.535 1.254-3.535 3.448 0 2.333 1.535 3.658 3.999 3.658.43 0 1.073 0 1.645-.14V18.29zm-19.5 0c.57-.245 1.392-.314 2.07-.314 2.143 0 3.608 1.185 3.608 3.308 0 2.51-1.644 3.658-3.822 3.693v2.891h.179c4.5 0 7.18-2.402 7.18-6.688 0-3.9-2.859-6.2-7.072-6.2-2.143 0-4.253.488-5.645 1.046v16.544h3.502V18.29z" fill="#3F3F42"/><path d="M28.982 6.932l.57.627.323-.175-.893-.452z" fill="#DC0032"/><path d="M28.125 6.479l1.107 1.254.393-.209-.429-.487-1.071-.558z" fill="#DC0032"/><path d="M27.23 6.027l1.68 1.881.393-.209-.964-1.116-1.108-.556z" fill="#DC0032"/><path d="M26.373 5.574l2.216 2.507.393-.21-1.535-1.742-1.074-.555zm4.252 4.424l-.25.138.249.28.002-.418z" fill="#DC0032"/><path d="M25.518 5.12l2.75 3.135.392-.21-2.072-2.367-1.07-.558zm4.964 4.947l-.393.243.535.627v-.661l-.142-.21z" fill="#DC0032"/><path d="M24.623 4.667l3.323 3.762.428-.209-2.644-2.995-1.107-.558zm5.537 5.574l-.393.244.857.976v-.662l-.464-.558z" fill="#DC0032"/><path d="M23.766 4.215l3.893 4.39.393-.21-3.214-3.622-1.072-.558zm6.073 6.236l-.393.209 1.178 1.357v-.661l-.785-.905z" fill="#DC0032"/><path d="M22.91 3.762l4.428 5.017.394-.21L23.98 4.32l-1.072-.558zm6.607 6.863l-.393.21 1.502 1.706v-.662l-1.11-1.254z" fill="#DC0032"/><path d="M22.016 3.308l5 5.645.393-.21-4.286-4.877-1.107-.558zm7.18 7.491l-.393.21 1.822 2.053V12.4l-1.429-1.6z" fill="#DC0032"/><path d="M21.16 2.857l5.534 6.303.395-.242-4.858-5.505-1.072-.556zm7.714 8.115l-.393.21 2.143 2.438v-.661l-1.75-1.987z" fill="#DC0032"/><path d="M20.267 2.403l6.108 6.933.391-.245-5.392-6.129-1.107-.56zm8.322 8.744l-.429.209 2.464 2.788v-.665l-2.035-2.332z" fill="#DC0032"/><path d="M19.41 1.95l6.643 7.56.428-.244-5.965-6.758-1.107-.558zm8.858 9.371l-.395.21 2.75 3.169v-.694l-2.355-2.685z" fill="#DC0032"/><path d="M18.552 1.498l7.215 8.186.392-.244-6.535-7.385-1.072-.557zm9.394 9.998l-.393.209 3.07 3.518v-.661l-2.677-3.066z" fill="#DC0032"/><path d="M17.66 1.01l7.785 8.848.393-.244-7.072-8.011-1.106-.593zm9.964 10.66l-.393.209 3.393 3.867v-.663l-3-3.413z" fill="#DC0032"/><path d="M16.802.558l8.323 9.474.391-.209L17.91 1.15 16.802.558zm10.501 11.286l-.393.21 3.714 4.249v-.696l-3.321-3.763z" fill="#DC0032"/><path d="M15.945.14l8.859 10.067.392-.21-8.18-9.301-1.07-.556zm11.036 11.877l-.393.21 4.036 4.598v-.662l-3.643-4.146z" fill="#DC0032"/><path d="M15.373 0l9.109 10.381.391-.209L16.16.243 15.945.14a1.069 1.069 0 00-.572-.14zM26.66 12.192l-.393.209 4.357 4.947v-.662l-3.964-4.494z" fill="#DC0032"/><path d="M15.373 0c-.143 0-.287.035-.428.07l9.214 10.484.429-.209L15.481 0h-.108zm11.002 12.366l-.393.21 4.642 5.33v-.698l-4.249-4.842z" fill="#DC0032"/><path d="M15.053.034c-.073.035-.18.07-.215.106l-.214.103 9.25 10.485.393-.209L15.053.036V.034zm11 12.506l-.393.244 4.964 5.645v-.663l-4.571-5.226z" fill="#DC0032"/><path d="M14.695.174l-.393.21 9.25 10.52.393-.21-9.25-10.52zM25.73 12.715l-.391.244 5.285 5.99v-.661l-4.894-5.573z" fill="#DC0032"/><path d="M14.373.349l-.392.209 9.25 10.52.393-.21-9.25-10.52zm11.035 12.54l-.391.244 5.607 6.374v-.662l-5.216-5.956z" fill="#DC0032"/><path d="M14.052.521l-.393.21 9.25 10.52.393-.208L14.052.52zm11.035 12.541l-.391.245 5.928 6.723v-.661l-5.537-6.307z" fill="#DC0032"/><path d="M13.73.696l-.392.209 9.25 10.521.394-.209L13.73.696zm11.035 12.54l-.391.244 6.25 7.072v-.662l-5.859-6.653z" fill="#DC0032"/><path d="M13.409.872l-.395.206 9.25 10.52.394-.21L13.409.873zm11.073 12.54l-.393.243 6.535 7.455v-.662l-6.142-7.035z" fill="#DC0032"/><path d="M13.087 1.01l-.392.244 9.286 10.52.393-.21L13.087 1.01zm11.072 12.61l-.393.21 6.858 7.802v-.662l-6.465-7.35z" fill="#DC0032"/><path d="M12.766 1.185l-.393.209 9.286 10.554.393-.21-9.286-10.553zm11.073 12.61l-.393.209 7.178 8.186v-.697l-6.785-7.698z" fill="#DC0032"/><path d="M12.444 1.357l-.392.21 9.286 10.59.393-.244-9.287-10.556zM23.516 13.97l-.393.209 7.5 8.535v-.663l-7.107-8.081z" fill="#DC0032"/><path d="M12.123 1.532l-.393.21 9.286 10.59.393-.244-9.286-10.556zm11.073 12.612l-.393.209 7.82 8.882v-.662l-7.427-8.43z" fill="#DC0032"/><path d="M11.8 1.707l-.39.209 9.285 10.592.393-.244-9.287-10.557zm11.074 12.611l-.393.21 8.143 9.265v-.696l-7.75-8.779z" fill="#DC0032"/><path d="M11.479 1.88l-.392.21 9.286 10.59.393-.245L11.48 1.881zm11.11 12.61l-.394.21 8.429 9.614v-.661l-8.036-9.162z" fill="#DC0032"/><path d="M11.158 2.021l-.429.209 9.359 10.623.393-.243-9.323-10.59zm11.108 12.645l-.393.208 8.75 9.964v-.662l-8.357-9.51z" fill="#DC0032"/><path d="M10.837 2.194l-.428.209 9.393 10.66a.275.275 0 01.142-.139l.215-.14-9.322-10.59zM21.945 14.84l-.393.209 9.001 10.242c.04-.1.064-.206.07-.313v-.28l-8.678-9.858z" fill="#DC0032"/><path d="M10.517 2.37l-.43.207 9.61 10.903v-.138c0-.105.072-.244.143-.349L10.517 2.37zm11.106 12.644l-.287.175c-.033 0-.069.033-.106.033l9.144 10.417c.1-.124.172-.266.214-.418l-8.965-10.207z" fill="#DC0032"/><path d="M10.194 2.542l-.428.21 9.929 11.286v-.696l-9.5-10.8zM20.623 15.05l9.5 10.834c.108-.071.216-.21.322-.313L21.303 15.19a.623.623 0 01-.502 0l-.178-.14z" fill="#DC0032"/><path d="M9.872 2.717l-.428.209 20.36 23.131.287-.14.106-.105-9.357-10.624h-.037l-.82-.488c-.073-.033-.108-.104-.179-.175-.072-.104-.072-.173-.108-.243v-.384L9.872 2.717z" fill="#DC0032"/><path d="M9.552 2.892l-.429.209 20.359 23.13.393-.21L9.552 2.891z" fill="#DC0032"/><path d="M9.23 3.03l-.43.209 20.396 23.166.392-.21L9.229 3.03z" fill="#DC0032"/><path d="M8.909 3.204l-.429.21 20.394 23.165.393-.209L8.91 3.204z" fill="#DC0032"/><path d="M8.586 3.378l-.428.21 20.397 23.165.392-.209L8.587 3.378z" fill="#DC0032"/><path d="M8.23 3.553l-.393.21 20.394 23.2.393-.244L8.23 3.553z" fill="#DC0032"/><path d="M7.908 3.728l-.393.209 20.395 23.2.392-.244L7.908 3.728z" fill="#DC0032"/><path d="M7.587 3.9l-.393.211 20.43 23.2.393-.245L7.587 3.9z" fill="#DC0032"/><path d="M7.265 4.04l-.393.21 20.431 23.234.393-.244-20.43-23.2z" fill="#DC0032"/><path d="M6.945 4.215l-.394.209 20.43 23.235.393-.21L6.944 4.216z" fill="#DC0032"/><path d="M6.622 4.39l-.393.208 9.93 11.287.321.209c.143.069.287.243.287.418v.035l9.893 11.286.393-.209L6.623 4.39z" fill="#DC0032"/><path d="M6.302 4.563l-.393.21 9.32 10.625 1.18.625L6.302 4.563zM16.73 16.407c0 .036.037.07.037.105v.592l9.57 10.904.394-.21L16.73 16.407z" fill="#DC0032"/><path d="M5.98 4.738l-.394.209 8.716 9.927 1.18.627L5.978 4.738zm10.787 12.228v.66l9.286 10.556.393-.21-9.68-11.006z" fill="#DC0032"/><path d="M5.657 4.91l-.391.21 8.143 9.232 1.142.626L5.657 4.91zm11.11 12.578v.696l8.963 10.17.394-.207-9.357-10.66z" fill="#DC0032"/><path d="M5.336 5.052l-.393.208 7.538 8.57 1.142.66-8.287-9.438zm11.43 12.992v.662l8.644 9.825.393-.21-9.036-10.277z" fill="#DC0032"/><path d="M5.016 5.225l-.393.21 6.928 7.872 1.144.662-7.68-8.744zm11.75 13.342v.662l8.322 9.475.393-.21-8.714-9.927z" fill="#DC0032"/><path d="M4.695 5.398l-.395.21 6.323 7.21 1.143.628-7.07-8.048zM16.767 19.09v.696l7.998 9.126.395-.244-8.393-9.578z" fill="#DC0032"/><path d="M4.373 5.574l-.393.21 5.715 6.513 1.142.626-6.464-7.349zm12.394 14.072v.663l7.715 8.778.391-.243-8.106-9.198z" fill="#DC0032"/><path d="M4.05 5.747l-.392.21 5.107 5.817 1.18.627L4.05 5.747zM16.768 20.17v.663l7.392 8.43.394-.244-7.786-8.849z" fill="#DC0032"/><path d="M3.73 5.921l-.393.21 4.5 5.121 1.178.662L3.73 5.92zm9.357 11.287l.928 1.045v-.383c0-.07-.071-.173-.142-.21l-.786-.452zm3.678 3.484v.696l7.074 8.048.391-.243-7.465-8.5z" fill="#DB0032"/><path d="M3.408 6.061l-.393.21 3.894 4.46 1.178.659-4.68-5.329zm8.75 10.625l1.857 2.09v-.661l-.677-.767-1.18-.662zm4.607 4.564v.662l6.752 7.698.393-.209-7.145-8.151z" fill="#DC0032"/><path d="M3.087 6.235l-.393.21 3.32 3.796 1.145.626-4.072-4.632zm8.144 9.962l2.784 3.135v-.661l-1.607-1.847-1.177-.627zm5.534 5.574v.662l6.43 7.35.392-.209-6.822-7.803z" fill="#DC0032"/><path d="M2.765 6.41l-.393.21 2.716 3.098 1.141.627L2.765 6.41zm7.573 9.266l3.679 4.18v-.662l-2.538-2.891-1.141-.627zm6.429 6.654v.661l6.142 6.967.393-.21-6.535-7.418z" fill="#DC0032"/><path d="M2.444 6.583l-.393.209L4.16 9.196l1.142.625-2.857-3.238zm6.964 8.57l4.607 5.224v-.661l-3.461-3.9-1.146-.664zm7.357 7.698v.662l5.822 6.619.395-.21-6.217-7.071z" fill="#DC0032"/><path d="M2.122 6.757l-.393.21L3.23 8.672l1.142.663-2.251-2.579zm6.358 7.874l5.535 6.305v-.662l-4.393-4.982-1.142-.661zm8.285 8.744v.661l5.501 6.27.393-.208-5.894-6.723z" fill="#DC0032"/><path d="M1.801 6.932l-.393.209.895 1.01 1.177.662-1.679-1.881zm5.751 7.211l6.463 7.316v-.663l-5.32-6.025-1.143-.628zm9.213 9.788v.663l5.18 5.887.394-.209-5.574-6.341z" fill="#DC0032"/><path d="M1.48 7.072l-.43.209.321.383 1.181.626L1.48 7.072zm5.142 6.55l7.395 8.393v-.696L7.8 14.247l-1.178-.625zm10.145 10.832v.662l4.856 5.574.393-.243-5.25-5.993z" fill="#DC0032"/><path d="M1.158 7.246l-.25.138.714.384-.464-.522zm4.536 5.852l8.322 9.44v-.661l-7.144-8.119-1.178-.66zm11.073 11.878v.698l4.571 5.19.393-.245-4.964-5.643z" fill="#DC0032"/><path d="M4.802 12.575l9.213 10.485v-.66l-8.071-9.162-1.142-.662zm11.963 12.959v.662l4.252 4.841.392-.243-4.644-5.26z" fill="#DC0032"/><path d="M3.872 12.088l10.144 11.53v-.696l-9-10.207-1.144-.627zm12.895 13.97v.66l3.928 4.494.393-.244-4.321-4.91z" fill="#DC0032"/><path d="M2.944 11.565L14.016 24.14v-.662l-9.93-11.287-1.142-.627zm13.823 15.014v.696l3.604 4.111.393-.209-3.997-4.598z" fill="#DC0032"/><path d="M2.016 11.043l12 13.62v-.661L3.158 11.705l-1.142-.662zm14.75 16.094v.662l3.286 3.762.393-.21-3.678-4.214z" fill="#DB0032"/><path d="M1.086 10.52l12.93 14.701v-.663L2.23 11.181l-1.144-.661zm15.68 17.139v.661l3.001 3.415.392-.209-3.392-3.867z" fill="#DA0032"/><path d="M.158 10.032l13.859 15.71v-.66L1.337 10.658l-1.18-.627zm16.609 18.15v.696l2.678 3.032.393-.21-3.071-3.518z" fill="#D90032"/><path d="M.122 9.998v.487l13.895 15.782v-.664L.407 10.138l-.285-.14zm16.645 18.74v.419a.263.263 0 01-.073.174l2.43 2.752.392-.21-2.75-3.135z" fill="#D80032"/><path d="M.122 10.345v.698l13.895 15.78v-.662L.122 10.345zM16.73 29.262c-.034.14-.142.28-.25.312l-.034.037 2.356 2.646.393-.209-2.463-2.786h-.002z" fill="#D70032"/><path d="M.122 10.903v.661l13.895 15.782v-.662L.122 10.903zM16.515 29.54c0 .035 0 .035-.033.035l-.358.209 2.357 2.648.392-.21-2.358-2.682z" fill="#D60032"/><path d="M.122 11.426v.662l13.895 15.78v-.662L.122 11.426zM16.23 29.714l-.428.244 2.393 2.682.393-.243-2.358-2.683z" fill="#D50032"/><path d="M.122 11.983v.662l13.895 15.78v-.66L.122 11.982zM15.91 29.889l-.252.14c-.07.033-.141.033-.214.033l2.43 2.753.393-.243-2.357-2.683z" fill="#D40032"/><path d="M.122 12.506v.66l13.895 15.78v-.662L.122 12.506zm14.68 17.38l2.751 3.101.392-.243-2.393-2.683c-.035 0-.108.033-.143.033h-.034a.543.543 0 01-.253-.067l-.32-.14z" fill="#D30032"/><path d="M.122 13.028v.698l17.109 19.436.393-.243-2.571-2.926-.787-.419a.49.49 0 01-.25-.418v-.347L.123 13.028z" fill="#D20032"/><path d="M.122 13.585v.662L16.91 33.338l.393-.21L.122 13.584z" fill="#D10032"/><path d="M.122 14.107v.664l16.466 18.74.393-.209L.122 14.107z" fill="#D00032"/><path d="M.122 14.63v.697l16.18 18.359.392-.21L.122 14.632z" fill="#CF0032"/><path d="M.122 15.188v.662l15.859 18.01.393-.21L.122 15.189z" fill="#CE0032"/><path d="M.122 15.71v.662l15.5 17.626c.109-.033.215-.069.322-.103l.107-.07L.123 15.71z" fill="#CD0032"/><path d="M.122 16.234v.696L15.16 34h.214c.108 0 .214 0 .32-.036L.124 16.234z" fill="#CC0032"/><path d="M.122 16.79v.662l14.215 16.164.501.279a.87.87 0 00.429.105L.122 16.79z" fill="#CB0032"/><path d="M.122 17.314v.661L13.41 33.093l1.178.662L.122 17.313z" fill="#CA0032"/><path d="M.122 17.87v.663L12.481 32.57l1.178.662L.122 17.87z" fill="#C90032"/><path d="M.122 18.393v.662l11.43 12.993 1.143.662L.122 18.393z" fill="#C80033"/><path d="M.122 18.915v.663l10.501 11.948 1.143.662L.121 18.915z" fill="#C70033"/><path d="M.122 19.473v.661l9.536 10.834 1.18.662L.121 19.473z" fill="#C60033"/><path d="M.122 19.996v.662l8.608 9.789 1.18.661L.121 19.996z" fill="#C50033"/><path d="M.122 20.518v.661L7.8 29.923l1.181.662L.122 20.518z" fill="#C40033"/><path d="M.122 21.076v.661l6.75 7.665 1.18.661-7.93-8.987z" fill="#C30033"/><path d="M.122 21.597v.662l5.822 6.62 1.18.66-7.002-7.942z" fill="#C20033"/><path d="M.122 22.12v.697l4.894 5.54 1.142.661L.122 22.12z" fill="#C10033"/><path d="M.122 22.679v.661l3.929 4.493 1.18.662-5.109-5.816z" fill="#C00033"/><path d="M.122 23.2v.662l3 3.45 1.178.625L.122 23.2z" fill="#BF0033"/><path d="M.122 23.722v.698l2.073 2.334 1.177.661-3.25-3.693z" fill="#BE0033"/><path d="M.122 24.28v.661l1.143 1.289 1.18.663L.121 24.28z" fill="#BD0033"/><path d="M.122 24.802v.174c0 .35.25.767.535.942l.858.452-1.393-1.567v-.001z" fill="#BC0033"/><path d="M.337 25.603c.07.07.106.14.179.174l-.18-.174z" fill="#B03"/></g><defs><clipPath id="clip0_16_2305"><path fill="#fff" d="M0 0h83v34H0z"/></clipPath></defs></svg>