<svg width="41" height="40" fill="none" xmlns="http://www.w3.org/2000/svg"><g clip-path="url(#clip0_1_43605)"><path fill-rule="evenodd" clip-rule="evenodd" d="M30.25 40h-20a10 10 0 01-10-10V10a10 10 0 0110-10h20a10 10 0 0110 10v20a10 10 0 01-10 10z" fill="#2D2D2D"/><path fill-rule="evenodd" clip-rule="evenodd" d="M19 11.25h11.25A5.626 5.626 0 0030.825.029C30.634.019 30.445 0 30.25 0h-20a10 10 0 00-10 10v20A18.75 18.75 0 0119 11.25z" fill="#464646"/><path fill-rule="evenodd" clip-rule="evenodd" d="M30.25 20a10 10 0 1010 10V10a10 10 0 01-10 10z" fill="#141414"/><path d="M.25 20c14.5 0 20-4.25 20-20 0 15.75 5.5 20 20 20-14.75 0-20 3.5-20 20 0-16.5-5.5-20-20-20z" fill="#fff"/></g><defs><clipPath id="clip0_1_43605"><path fill="#fff" transform="translate(.25)" d="M0 0h40v40H0z"/></clipPath></defs></svg>