<svg width="32" height="32" fill="none" xmlns="http://www.w3.org/2000/svg"><g clip-path="url(#clip0_23_11483)"><path d="M16 32c8.837 0 16-7.163 16-16S24.837 0 16 0 0 7.163 0 16s7.163 16 16 16z" fill="#3A559F"/><path d="M21.068 14.105l-.322 2.788a.521.521 0 01-.513.467h-2.909l-.015 8.264a.373.373 0 01-.363.376h-2.947a.364.364 0 01-.364-.378V17.36h-2.182a.522.522 0 01-.516-.527l-.011-2.787a.526.526 0 01.516-.531h2.193v-2.691C13.635 7.7 15.489 6 18.209 6h2.23a.524.524 0 01.518.53v2.346a.524.524 0 01-.518.531H19.07c-1.478 0-1.765.727-1.765 1.778v2.33h3.249a.525.525 0 01.513.59z" fill="#fff"/></g><defs><clipPath id="clip0_23_11483"><path fill="#fff" d="M0 0h32v32H0z"/></clipPath></defs></svg>