<svg width="115" height="115" fill="none" xmlns="http://www.w3.org/2000/svg"><path fill="#FF0E0E" d="M0 0h115v115H0z"/><g clip-path="url(#clip0_205_34986)"><path d="M81.086 41.528c-.511-.003-1.057.14-1.385.36-.844.562-3.942 10.201-5.234 15.154 0 0-.28 1.032-.65 3.404-.06.386-.257 1.894-.342 2.361-.322 1.748-1.572 2.686-2.652 2.48-1.348-.257-1.541-2.257-1.18-3.746.395-1.632 1.738-3.474 3.284-3.027.745.173 1.13.086 1.18-.41.064-.643-.7-1.027-.7-1.027-2.966-1.493-5.615.949-6.295 4.396-.795 4.022 1.69 7.22 5.73 4.926 1.264-.718 1.196.959 4.037.855 2.065-.2 3.244-1.727 2.172-2.566-.701-.549-1.174.527-2.343.377-2.498-.321.298-7.573 1.744-12.094 1.235-3.855 2.608-6.624 3.78-9.75.472-1.257-.292-1.688-1.146-1.693zm-45.123.82c-4.287.115-12.246 4.207-18.252 8.947-2.462 2.14-3.88 2.65-2.275 4.362 1.428 1.427 2.344.342 2.344.342 1.356-1.07 4.282-4.064 6.209-5.49 2.744-2.034 6.532-4.964 9.887-5.748 2.662-.675 3.47.11 3.113 2.822-.21 2.328-2.001 7.56-2.001 7.56s-2.755 1.234-3.575 1.54c-.641.238-1.312.076-1.386 1.54-.033 1.57.92.978 1.557.735.493-.188 1.654-.744 2.087-.924.32-.25.674-.036.496.428-.321 1.035-.904 2.721-2.002 5.149-1.391 3.319-3.887 7.854-4.207 8.997.035.75.851.857 1.933.872.994-.076 1.453-.77 1.453-.77s1.296-2.785 3.285-7.68c1.444-3.555 2.39-6.492 2.788-7.817.214-.785.676-.952 1.283-1.095.907-.297 2.18-.697 2.959-.838 1.968-.485 2.534-.38 2.788-1.744.177-.949-.24-1.386-.24-1.386s-4.287 1.337-5.148 1.574c-.75.32-.616-.462-.616-.462s-.104.495.36-1.54c1.406-6.188.587-7.834-.53-8.775-.532-.438-1.32-.624-2.31-.598zm58.14 10.983c-.735-.032-2.416 1.217-1.761 4.396-.892 3.354-7.698 9.207-8.604 6.842-.221-.576.375-1.523 1.933-1.848 2.57-.535 2.354-2.133 1.129-2.292-1.927-.25-2.459-.249-4.756-.787-.905-.095-.879-1.3.189-1.282.44-.018 1.542.134 3.9.222 2.466.092 2.955-1.826 2.856-3.01-2.517.543-3.114.684-5.285.684-2.279 0-5.098.63-5.149 2.634-.051 1.992 2.563 2.441 3.917 2.822.375.09.506.402.257.599-.58.462-1.88 1.066-2.036 2.155-.22 1.542 1.18 2.758 2.96 2.72 2.368-.05 4.995-1.055 7.509-4.071.71-.852 1.51-2.291 2-2.925.119-.229.45-.342.6-.325.448.099 1.094.436 1.009.923-.13.747-2.174 3.08-.821 4.482.831.86 2.934 1.47 4.601.257 1.561-1.136 1.012-2.166.394-2.241-.442-.054-1.686 1.5-2.686.393-.83-.919 1.147-2.812 1.54-3.49.565-.976-1.639-1.728-2.566-2.941-.599-.798.953-3.234-.992-3.883-.04-.014-.088-.032-.137-.034zm4.516 1.231c-.392 0-.732.134-1.009.41-.278.28-.41.618-.41 1.01 0 .396.134.731.41 1.01.277.278.615.427 1.01.427s.73-.149 1.009-.428c.278-.28.427-.614.427-1.009 0-.393-.149-.732-.427-1.01a1.373 1.373 0 00-1.01-.41zm0 .188c.342 0 .631.119.873.36.24.239.359.533.359.872 0 .342-.12.632-.36.872-.24.241-.529.36-.872.36-.342 0-.632-.119-.872-.36-.238-.24-.36-.53-.36-.872 0-.34.12-.633.36-.872a1.19 1.19 0 01.872-.36zm-.581.445v1.557h.273v-.599h.223c.15 0 .248 0 .308.034.101.058.154.179.154.36v.136l.017.052c.001.007-.002.011 0 .017h.256l-.017-.017c-.006-.013.002-.027 0-.069-.002-.04-.017-.084-.017-.12v-.12a.423.423 0 00-.085-.239.357.357 0 00-.257-.154.59.59 0 00.222-.068c.102-.067.154-.185.154-.325 0-.197-.076-.326-.239-.394-.091-.037-.25-.051-.445-.051h-.547zm.274.188h.239c.157 0 .271.03.342.069.071.039.103.108.103.222 0 .12-.044.197-.154.24a.815.815 0 01-.274.034h-.256v-.565zm-46.92.462c-2.094.624-3.155.547-5.371.547-2.327 0-5.471.325-5.337 2.566.113 1.885 2.768 2.411 4.14 2.566.392-.036.507.334.222.53-.619.627-1.325 1.488-1.42 2.19-.207 1.517.57 2.856 2.497 2.822 2.07-.035 2.748-1.538 6.21-3.643.966-.588 2.173-1.58 2.668-1.66.19 0 .463.063.445.428-.293 1.381-.613 2.312-.257 3.49.252.829 1.347 1.35 2.138.752 1.32-.999 1.333-1.58 3.045-3.832.283-.372 1.333-2.074 1.813-1.847.4.188.28.745.205 1.18-.36 2.108-1.273 5.44 2.891 4.927.99-.122 1.796-.797 1.044-1.506-.455-.428-.968-.124-1.54-.256-1.336-.308 1.97-6.396.394-7.526-2.218-1.59-4.274 1.227-5.816 3.284-.608.81-1.06.457-1.454-.684-.44-1.27-3.07-.337-4.584.444-2.416 1.246-6.888 5.415-7.304 3.336-.072-.36.522-1.162 1.608-1.557 1.273-.463 2.702-.876 2.702-1.642 0-.592-.354-1.013-.735-.992-1.777.099-3.845.565-6.21-.085-.539-.005-.775-1.357.822-1.18.422.047 1.367.116 4.943.188 2.52.05 2.579-1.838 2.24-2.84z" fill="#fff"/></g><defs><clipPath id="clip0_205_34986"><path fill="#fff" transform="translate(14.694 41.528)" d="M0 0h85.413v31.944H0z"/></clipPath></defs></svg>