<svg width="32" height="32" fill="none" xmlns="http://www.w3.org/2000/svg"><g clip-path="url(#clip0_23_11493)"><path d="M16 32c8.837 0 16-7.163 16-16S24.837 0 16 0 0 7.163 0 16s7.163 16 16 16z" fill="#FF6800"/><path d="M15.213 19.27c-1.24-.129-2.358-.434-3.316-1.183a4.204 4.204 0 01-.35-.287.993.993 0 011.125-1.62c.096.044.187.099.273.161a5.44 5.44 0 006.028.055c.174-.139.373-.242.587-.303a.92.92 0 011.053.42c.263.422.259.843-.063 1.176a4.841 4.841 0 01-1.754 1.134c-.642.23-1.31.38-1.99.445.104.111.152.166.211.231.922.927 1.846 1.847 2.764 2.777a.912.912 0 01.21 1.076 1.086 1.086 0 01-1.022.631.988.988 0 01-.653-.324c-.697-.699-1.404-1.387-2.086-2.105-.198-.21-.293-.168-.468 0-.702.72-1.41 1.431-2.126 2.135a.894.894 0 01-1.076.193 1.09 1.09 0 01-.631-1.002c.02-.26.14-.502.336-.674.911-.909 1.824-1.821 2.737-2.736a1.04 1.04 0 00.21-.2z" fill="#fff"/><path d="M15.969 16.099a4.05 4.05 0 11.046-8.1 4.05 4.05 0 01-.046 8.1zm2.01-4.053a1.982 1.982 0 10-3.964.01 1.982 1.982 0 003.964-.01z" fill="#fff"/></g><defs><clipPath id="clip0_23_11493"><path fill="#fff" d="M0 0h32v32H0z"/></clipPath></defs></svg>