<svg width="80" height="41" fill="none" xmlns="http://www.w3.org/2000/svg"><g clip-path="url(#clip0_16_2279)"><path d="M70.126 11.704v10.024H66.62v-7.032h-3.376v7.032h-3.506V11.703h10.388z" fill="#000"/><path fill-rule="evenodd" clip-rule="evenodd" d="M52.537 22.085c3.14 0 5.47-1.965 5.47-4.943 0-2.882-1.72-4.754-4.594-4.754-1.326 0-2.42.477-3.244 1.3.196-1.7 1.604-2.942 3.154-2.942l3.052-.005 1.522-2.976s-3.38.078-4.953.078c-3.591.064-6.017 3.397-6.017 7.445 0 4.716 2.366 6.797 5.61 6.797zm.02-7.061c1.165 0 1.973.781 1.973 2.118 0 1.203-.718 2.194-1.973 2.197-1.201 0-2.009-.918-2.009-2.176 0-1.337.808-2.14 2.009-2.14z" fill="#000"/><path d="M44.073 18.371s-.828.487-2.065.58c-1.421.043-2.688-.874-2.688-2.503 0-1.588 1.118-2.499 2.652-2.499.942 0 2.187.666 2.187.666s.91-1.707 1.382-2.56c-.864-.669-2.015-1.035-3.353-1.035-3.379 0-5.995 2.248-5.995 5.408 0 3.2 2.459 5.397 5.995 5.33.988-.037 2.351-.391 3.182-.936l-1.297-2.45z" fill="#000"/><path d="M.962 8.925L5.825 17.8v5.413L.967 32.07.962 8.925z" fill="#5B57A2"/><path d="M19.635 14.57l4.557-2.852 9.327-.009-13.884 8.683V14.57z" fill="#D90751"/><path d="M19.61 8.872l.025 11.75-4.875-3.058V0l4.85 8.872z" fill="#FAB718"/><path d="M33.519 11.71l-9.327.008-4.583-2.846L14.76 0l18.76 11.71z" fill="#ED6F26"/><path d="M19.635 32.12v-5.701l-4.875-3L14.763 41l4.872-8.88z" fill="#63B22F"/><path d="M24.181 29.294L5.825 17.8.962 8.925l32.537 20.357-9.318.012z" fill="#1487C9"/><path d="M14.763 41l4.872-8.88 4.546-2.826 9.318-.012L14.763 41z" fill="#017F36"/><path d="M.967 32.07L14.8 23.419l-4.65-2.913-4.325 2.706L.967 32.07z" fill="#984995"/><path d="M39.321 28.474a1.01 1.01 0 01-.417.316 1.407 1.407 0 01-.546.108 1.522 1.522 0 01-.547-.094 1.21 1.21 0 01-.422-.267 1.21 1.21 0 01-.276-.418 1.452 1.452 0 01-.099-.543c0-.185.032-.356.096-.517.06-.157.15-.3.264-.419a1.248 1.248 0 01.91-.386c.2 0 .386.026.555.077.17.05.313.136.431.256l-.205.355a.96.96 0 00-.344-.205 1.185 1.185 0 00-.375-.06.85.85 0 00-.788.532.918.918 0 00-.07.37.913.913 0 00.267.656c.082.08.177.14.287.18a.95.95 0 00.35.062.9.9 0 00.408-.09c.117-.059.222-.139.31-.237l.211.324zm.58.364v-2.53h.445v1.885l1.448-1.885h.445v2.53h-.445v-1.885l-1.448 1.885h-.445zm5.286-.364c-.11.14-.253.25-.417.316a1.403 1.403 0 01-.546.108 1.522 1.522 0 01-.546-.094 1.21 1.21 0 01-.423-.267 1.211 1.211 0 01-.276-.418 1.452 1.452 0 01-.099-.543c0-.185.032-.356.096-.517a1.24 1.24 0 01.665-.7c.16-.072.334-.108.51-.105.2 0 .385.026.554.077.17.05.313.136.431.256l-.205.355a.956.956 0 00-.344-.205 1.188 1.188 0 00-.375-.06.862.862 0 00-.6.248.918.918 0 00-.259.653.91.91 0 00.268.657.79.79 0 00.288.18c.11.04.225.062.349.062a.906.906 0 00.408-.09c.117-.059.222-.139.31-.237l.211.324zm.228-2.166H47.7v.45h-.918v2.08h-.445v-2.08h-.918v-.45h-.003z" fill="#000"/><path fill-rule="evenodd" clip-rule="evenodd" d="M49.778 28.813c.169-.054.312-.137.436-.25l-.135-.353a1.039 1.039 0 01-.324.188 1.23 1.23 0 01-.445.076.918.918 0 01-.608-.199c-.161-.134-.248-.32-.268-.56h1.927c.02-.1.03-.202.028-.304a1.166 1.166 0 00-.341-.839 1.213 1.213 0 00-.825-.321c-.209 0-.392.037-.553.105a1.186 1.186 0 00-.652.7c-.06.165-.09.34-.088.517 0 .2.034.38.096.543a1.16 1.16 0 00.693.685 1.658 1.658 0 001.059.011zm-1.127-1.948c.138-.128.321-.19.552-.19.217 0 .391.06.518.179.127.12.195.284.206.494h-1.52a.779.779 0 01.244-.483z" fill="#000"/><path d="M50.994 26.308h.406l.963 1.253.912-1.253h.395v2.53h-.446v-1.845l-.867 1.174h-.017l-.9-1.174v1.845h-.446v-2.53z" fill="#000"/><path fill-rule="evenodd" clip-rule="evenodd" d="M54.88 26.316a1.387 1.387 0 00-.383.168l.119.358c.101-.05.202-.093.304-.13.101-.038.23-.055.386-.055.123 0 .222.02.298.06a.397.397 0 01.172.162.7.7 0 01.079.253c.014.1.02.208.02.324a.753.753 0 00-.305-.128 1.71 1.71 0 00-.32-.034c-.133 0-.257.02-.375.054a.818.818 0 00-.302.154.729.729 0 00-.197.253.799.799 0 00-.073.344c0 .247.07.44.21.577a.77.77 0 00.559.205.987.987 0 00.501-.111c.127-.074.228-.16.301-.256v.327h.417v-1.552c0-.33-.07-.586-.214-.766-.14-.178-.392-.27-.746-.27-.158 0-.308.023-.451.063zm.744 2.05a.66.66 0 01-.397.108.484.484 0 01-.335-.108.38.38 0 01-.119-.29.36.36 0 01.167-.315.527.527 0 01.172-.077.765.765 0 01.197-.026c.22 0 .408.054.563.168v.32a1.284 1.284 0 01-.248.22zm4.596-2.948a.692.692 0 00.254-.219l-.243-.355a.49.49 0 01-.21.176 1.4 1.4 0 01-.26.074l-.084.015c-.074.013-.152.028-.237.042a1.721 1.721 0 00-.394.125c-.2.088-.36.207-.482.358a1.68 1.68 0 00-.282.51 2.71 2.71 0 00-.132.588c-.022.204-.033.4-.033.588 0 .242.03.46.092.657.063.196.15.36.265.494.115.137.254.24.417.313.163.074.346.11.552.11a1.258 1.258 0 001.191-.799 1.29 1.29 0 00.096-.5c0-.19-.028-.363-.082-.517a1.124 1.124 0 00-.23-.395c-.104-.112-.23-.2-.37-.256a1.256 1.256 0 00-.797-.048 1.185 1.185 0 00-.515.307.835.835 0 00-.163.242h-.012c.008-.12.025-.24.048-.358.026-.123.062-.24.11-.35.048-.111.11-.21.186-.302a.843.843 0 01.293-.213c.122-.06.252-.102.386-.128l.088-.016c.088-.017.172-.032.252-.05.108-.022.206-.05.296-.093zm-1.566 2.43a1.443 1.443 0 01-.062-.443.723.723 0 01.102-.241.84.84 0 01.183-.205.915.915 0 01.58-.202c.262 0 .459.082.597.245a.923.923 0 01.206.616.926.926 0 01-.062.336.81.81 0 01-.429.452.803.803 0 01-.335.068.786.786 0 01-.608-.29 1.076 1.076 0 01-.172-.335zm5.49-1.54h-.446v2.53h.445v-2.53zm-2.772 0h.445v.759h.411c.194 0 .352.026.479.074a.817.817 0 01.304.193c.076.08.13.174.16.279.031.105.048.213.048.327 0 .113-.017.222-.053.33a.75.75 0 01-.172.287.822.822 0 01-.321.205c-.135.05-.299.079-.496.079h-.808v-2.533h.003zm.445 1.182v.927h.324c.222 0 .38-.04.47-.12.09-.079.135-.192.135-.343 0-.154-.048-.27-.138-.35-.093-.08-.248-.12-.461-.12h-.33v.006z" fill="#000"/><path d="M67.086 28.474a1.01 1.01 0 01-.417.316 1.41 1.41 0 01-.546.108 1.522 1.522 0 01-.547-.094 1.207 1.207 0 01-.422-.267 1.216 1.216 0 01-.276-.418 1.458 1.458 0 01-.098-.543 1.362 1.362 0 01.36-.936 1.256 1.256 0 01.91-.386c.2 0 .386.026.555.077.169.05.312.136.43.256l-.205.355a.961.961 0 00-.344-.205 1.186 1.186 0 00-.375-.06.853.853 0 00-.788.532.918.918 0 00-.07.37.91.91 0 00.267.656.79.79 0 00.288.18c.11.04.225.062.349.062a.93.93 0 00.718-.327l.211.324zm.228-2.166h2.284v.45h-.918v2.08h-.445v-2.08h-.918v-.45h-.003z" fill="#000"/><path fill-rule="evenodd" clip-rule="evenodd" d="M70.528 26.308h-.446v3.656h.446v-1.242c.09.06.197.102.32.13.124.029.254.043.386.043.198 0 .375-.037.536-.105a1.28 1.28 0 00.41-.287 1.25 1.25 0 00.265-.433 1.53 1.53 0 00.093-.537c0-.188-.028-.36-.081-.517a1.209 1.209 0 00-.231-.404 1.002 1.002 0 00-.364-.264 1.146 1.146 0 00-.482-.097c-.174 0-.337.034-.492.103a.952.952 0 00-.36.253v-.299zm.31.47a.858.858 0 01.413-.103c.13 0 .245.02.35.062a.698.698 0 01.256.183c.07.08.124.17.158.278.036.108.053.225.053.352 0 .137-.022.26-.061.373a.789.789 0 01-.445.48.882.882 0 01-.364.071 1.32 1.32 0 01-.34-.042 1.102 1.102 0 01-.33-.154v-1.254c.079-.096.183-.178.31-.247zm5.113-.47h-.445v2.53h.445v-2.53zm-2.773 0h.445v.76h.41c.195 0 .353.025.48.073a.816.816 0 01.304.193c.076.08.13.174.16.279.031.105.048.213.048.327 0 .113-.017.222-.054.33a.744.744 0 01-.171.287.823.823 0 01-.322.205c-.134.05-.298.079-.495.079h-.808v-2.533h.002zm.448 1.182v.927h.324c.222 0 .38-.04.47-.12.09-.079.135-.192.135-.343 0-.154-.048-.27-.138-.35-.093-.08-.248-.12-.462-.12h-.33v.006z" fill="#000"/><path d="M78.086 27.527l.952 1.311h-.546l-.735-1.024-.747 1.024h-.518l.947-1.288-.89-1.242h.546l.679.955.69-.955h.518l-.896 1.22zm-39.094 4.438h-1.366v2.11h-.445v-2.53h2.255v2.53h-.445v-2.11zm2.97.029h-.878l-.028.426a5.183 5.183 0 01-.133.873 1.592 1.592 0 01-.217.511.626.626 0 01-.295.242c-.117.043-.24.065-.364.063l-.033-.438a.355.355 0 00.166-.037.47.47 0 00.183-.184c.059-.098.113-.234.16-.41.048-.18.08-.412.096-.705l.045-.788h1.744v2.53h-.446v-2.083z" fill="#000"/><path fill-rule="evenodd" clip-rule="evenodd" d="M43.607 31.55a1.38 1.38 0 00-.383.168l.119.359a2.64 2.64 0 01.303-.131 1.15 1.15 0 01.386-.054.64.64 0 01.299.06.399.399 0 01.172.162.71.71 0 01.079.252c.014.1.02.208.02.325a.755.755 0 00-.305-.128 1.712 1.712 0 00-.32-.034c-.133 0-.257.02-.376.054a.82.82 0 00-.3.153.729.729 0 00-.198.253.8.8 0 00-.073.344c0 .247.07.441.21.577.141.137.328.205.559.205a.987.987 0 00.501-.111 1.01 1.01 0 00.301-.256v.327h.417v-1.552c0-.33-.07-.586-.214-.765-.14-.18-.392-.27-.746-.27-.152 0-.304.022-.45.063zm.747 2.05a.654.654 0 01-.397.108.478.478 0 01-.335-.108.379.379 0 01-.119-.29c0-.07.014-.13.045-.184a.414.414 0 01.122-.131.525.525 0 01.171-.077.763.763 0 01.197-.026c.22 0 .409.054.564.168v.321a1.288 1.288 0 01-.248.22z" fill="#000"/><path d="M45.454 31.545h2.285v.449h-.919v2.08h-.445v-2.08h-.918v-.45h-.003z" fill="#000"/><path fill-rule="evenodd" clip-rule="evenodd" d="M49.817 34.049a1.15 1.15 0 00.437-.25l-.136-.353a1.035 1.035 0 01-.324.188 1.228 1.228 0 01-.445.077.918.918 0 01-.608-.2c-.16-.133-.248-.32-.268-.56H50.4c.02-.087.028-.187.028-.304a1.166 1.166 0 00-.34-.838 1.094 1.094 0 00-.372-.236 1.213 1.213 0 00-.454-.085c-.208 0-.391.036-.552.105-.151.065-.288.16-.403.281a1.2 1.2 0 00-.25.418c-.06.166-.09.341-.088.517 0 .2.034.381.096.544a1.158 1.158 0 00.693.685c.178.064.366.096.555.094.166 0 .335-.03.504-.083zm-1.129-1.95c.138-.128.32-.19.552-.19.22 0 .391.062.518.178.127.12.194.285.206.495h-1.521a.778.778 0 01.245-.483zm1.957-.554h.563l.86 1.22-.919 1.31h-.546l.963-1.311-.92-1.22zm1.532 0h.445v2.53h-.445v-2.53zm2.036 2.53l-.98-1.311.915-1.22h-.552l-.864 1.22.93 1.31h.551zm2.033-.026a1.15 1.15 0 00.437-.25l-.135-.353a1.038 1.038 0 01-.324.188 1.23 1.23 0 01-.445.077.918.918 0 01-.609-.2c-.16-.133-.247-.32-.267-.56h1.926c.02-.087.029-.187.029-.304a1.161 1.161 0 00-.341-.838 1.211 1.211 0 00-.825-.322c-.209 0-.392.037-.553.106-.151.065-.288.16-.402.281a1.19 1.19 0 00-.25.418c-.06.166-.09.341-.088.517 0 .2.033.381.096.544a1.157 1.157 0 00.693.685c.178.064.365.096.554.094.172-.002.342-.03.504-.083zm-1.129-1.95c.139-.128.322-.19.552-.19.217 0 .392.062.519.178.126.12.194.285.205.495h-1.52a.777.777 0 01.244-.483zm3.546-1.404c-.262 0-.406-.148-.428-.444h-.42c0 .113.02.216.056.313a.67.67 0 00.161.247c.07.068.16.122.265.165a.955.955 0 00.363.062.868.868 0 00.6-.227.718.718 0 00.166-.247c.04-.097.06-.2.06-.313h-.417c-.02.296-.158.444-.406.444zm-1.203.85v2.53h.445l1.448-1.885v1.885h.445v-2.53h-.445l-1.448 1.884v-1.885h-.445z" fill="#000"/></g><defs><clipPath id="clip0_16_2279"><path fill="#fff" d="M0 0h80v41H0z"/></clipPath></defs></svg>