<svg width="79" height="33" fill="none" xmlns="http://www.w3.org/2000/svg"><g clip-path="url(#clip0_16_2275)"><path d="M31.946 31.855c-.15-.402-.423-.677-.62-1.034-.48-.614-1.043-1.145-1.607-1.676-.197-.064-.282-.247-.47-.32-.122-.156-.32-.238-.479-.357a9.564 9.564 0 00-1.024-.642c-.677-.42-1.513-.686-2.34-.96a28.32 28.32 0 00-2.809-.495c-.968-.138-1.936-.266-2.669-.641-.422-.12-.732-.348-1.099-.531-.338-.22-.704-.403-.986-.678-.348-.201-.564-.54-.837-.815-.093-.183-.253-.293-.328-.494-.094-.037-.123-.147-.179-.21-.066-.074-.066-.22-.178-.248-.057.375-.038.824 0 1.208.046.165.065.367.112.532.029.146.17.384.113.494-2.931-.146-5.074-1.053-6.934-2.243-.92-.596-1.71-1.319-2.443-2.097-.32-.43-.667-.843-.949-1.319-.291-.467-.536-.998-.799-1.492-.432-1.072-.836-2.17-.986-3.516-.197-1.255-.15-2.857.14-4.02.104-.641.32-1.181.508-1.74.122-.256.254-.512.367-.778.16-.22.244-.522.441-.714.536-.98 1.334-1.713 2.152-2.418a9.168 9.168 0 013.1-1.455c1.165-.257 2.753-.303 4.012-.037 2.556.513 4.482 1.63 6.098 3.058 1.635 1.401 2.894 3.178 3.759 5.338.892 2.052 1.202 5.247.404 7.573-.33-.183-.658-.357-.987-.531-.394-.11-.78-.238-1.24-.284-.555-.01-1.1 0-1.456.174.723-.073 1.306.119 1.757.284.263.1.413.165.62.284.404.229.76.44 1.061.75.855.733 1.466 1.704 1.757 2.986 0 .036.047.027.038-.037.038-.01.056-.037.075-.073.047-.055.104-.11.15-.174.095-.11.188-.22.254-.358a4.66 4.66 0 00.508-.75c.347-.495.61-1.063.911-1.603.517-1.153.94-2.399 1.203-3.809.526-3.131-.104-6.098-1.203-8.286-1.128-2.207-2.706-3.974-4.745-5.302-2.058-1.319-4.463-2.29-7.77-2.38-.02-.065-.047.008-.113 0-1.748-.056-3.157.182-4.557.53-.648.21-1.325.394-1.898.678-.658.21-1.184.558-1.785.815-.216.201-.545.302-.77.494-.292.138-.508.357-.8.495-.469.403-.967.76-1.427 1.172-.451.403-.846.86-1.278 1.282-.066.146-.179.247-.292.357a1.2 1.2 0 01-.29.357c-.048.165-.198.229-.254.394-.123.091-.15.274-.292.357-.122.293-.338.503-.479.778-.169.266-.3.559-.47.815-.263.595-.545 1.172-.76 1.813a12.451 12.451 0 00-.546 1.996c-.14.668-.272 1.538-.253 2.243-.094.257-.02.733 0 1.035 0 .055-.038.073-.038.11 0 .339.094.75.113.961.075.779.216 1.502.441 2.134.141.705.442 1.254.658 1.886.329.531.554 1.163.949 1.64.291.558.705.997 1.1 1.455.422.44.845.888 1.352 1.245.93.788 2.02 1.42 3.214 1.96 2.227 1.053 5.553 1.74 8.54 1.566.762-.101 1.532-.193 2.227-.358.64-.229 1.382-.366 2.152-.457 1.757-.11 3.28.045 4.632.43 1.372.357 2.556.897 3.58 1.602.545.312.996.715 1.456 1.1.47.393.846.878 1.278 1.318.056.164.17.283.254.43.113.119.056.394.329.357.169-.165-.029-.403-.038-.604-.17-.174-.207-.403-.338-.55z" fill="#FCB316"/><path d="M25.124 22.113c-.037 0-.047.027-.075.036-.066.138-.037.357 0 .495.198.394.263.906.695 1.071.207-.064.188-.357.179-.64-.094-.349-.225-.66-.442-.889-.15-.055-.253-.146-.357-.073zm-2.555.998c0-.018-.028-.037-.038 0-.357-.046-.479.146-.658.284-.31.796.188 1.575 1.062 1.565.348-.082.564-.302.62-.677-.047-.669-.338-1.099-.986-1.172z" fill="#FCB316"/><path d="M43.634 20.575c.141.577.442.989.78 1.373.338.385.733.705 1.212.943.451.275.94.504 1.503.66.273.091.536.201.874.238.235.128.517.192.536.522-.01.393-.282.54-.63.613-.347-.073-.78-.064-1.07-.192-.734-.082-1.326-.311-1.946-.522a8.77 8.77 0 01-3.007-1.896c-.169-.274-.404-.494-.582-.76-.178-.265-.3-.585-.489-.851-1.447-.183-2.433-.824-3.297-1.566-.8-.888-1.438-1.95-1.701-3.36-.31-1.355-.216-3.05.15-4.359.799-2.536 2.471-4.22 5.628-4.45.874.028 1.635.128 2.33.385.705.247 1.372.705 1.898 1.181.047.037.066.046.094.092.113.155.386.375.536.567.028.037.019.101.047.147.056.082.14.119.197.192.028.046.019.1.047.137.038.055.085.138.141.239.019.036.085.064.094.091.085.156.122.348.197.522.075.183.179.339.245.522.188.54.31 1.181.385 1.84.188 1.905-.197 3.608-.92 4.872-.34.659-.809 1.2-1.363 1.657-.508.522-1.203.833-1.889 1.163zm-2.33-11.922c-.423.028-.677.22-1.024.33-.226.201-.508.357-.677.613-.282.156-.357.504-.582.705a8.65 8.65 0 00-.489 1.566 11.082 11.082 0 00-.197 1.895c-.01 1.63.347 3.25 1.015 4.212.394.467.873.852 1.456 1.136.338.027.601.137.968.146.206-.073.545 0 .676-.146.3.018.367-.174.63-.192.14-.138.291-.248.488-.33.179-.192.348-.385.536-.568.094-.137.15-.33.291-.43.846-1.575.94-4.46.385-6.29a5.535 5.535 0 00-.826-1.658 4.779 4.779 0 00-1.26-.897c-.385-.083-.751-.184-1.259-.138-.028 0-.056.01-.047.046h-.084zm10.25-1.328c.762.028 1.654-.064 2.331.046.15.23.094.504.094.76.056 3.47 0 7.197 0 10.74 0 .285.01.578 0 .852-.01.238.056.495-.094.715-.338.082-.827.045-1.26.045-.46 0-.91.064-1.211-.091a328.877 328.877 0 010-12.92.205.205 0 01.14-.147zm5.826 0h2.283c.207.275.273.687.339 1.09.685 2.546 1.362 5.1 1.992 7.71.15.018.103-.156.15-.238.066-.064.028-.22.094-.284.028-.21.16-.32.15-.568.17-.32.226-.76.385-1.09.198-.769.46-1.483.686-2.225.216-.769.508-1.465.677-2.27.32-.65.394-1.539.78-2.125h.967c.348.641.48 1.493.78 2.18.198.769.47 1.465.677 2.225.479 1.474.977 2.93 1.41 4.45.197-.284.197-.76.337-1.09.085-.375.16-.76.292-1.09.375-1.501.733-3.012 1.165-4.45.16-.75.32-1.52.582-2.179a8.055 8.055 0 011.992 0c.047.559-.216 1.163-.385 1.657-.094.605-.32 1.072-.442 1.658-.347 1.071-.61 2.207-.967 3.269-.273 1.135-.64 2.179-.921 3.314-.188.522-.32 1.1-.489 1.658-.188.512-.254 1.144-.535 1.565h-1.363c-.347-.595-.47-1.4-.78-2.032-.676-2.088-1.428-4.093-2.085-6.2-.226.23-.226.697-.386.99-.103.357-.206.714-.338 1.043-.188.724-.47 1.337-.63 2.079-.272.65-.47 1.373-.676 2.088-.282.622-.385 1.419-.733 1.987-.357.11-.92.018-1.362.045-.339-.375-.376-1.053-.583-1.565-.16-.531-.272-1.117-.479-1.612-.263-1.154-.658-2.17-.92-3.315-.348-1.062-.649-2.17-.968-3.268-.179-.522-.31-1.08-.49-1.612-.084-.568-.478-1.08-.337-1.703.018-.046.075-.073.131-.092zm19.177 0c.761.028 1.644-.064 2.33.046.17.495.094 1.026.094 1.557v9.934c0 .54.066 1.063-.094 1.566a13.36 13.36 0 01-1.945.046c-.188-.01-.413.046-.535-.091-.17-.495-.094-1.017-.094-1.566V8.983c0-.595-.057-1.172.094-1.566a.317.317 0 01.15-.092z" fill="#0269B3"/></g><defs><clipPath id="clip0_16_2275"><path fill="#fff" d="M0 0h79v33H0z"/></clipPath></defs></svg>