<svg width="115" height="43" fill="none" xmlns="http://www.w3.org/2000/svg"><path d="M89.39 0c-.69-.004-1.423.189-1.865.484-1.136.757-5.308 13.733-7.047 20.4 0 0-.377 1.388-.876 4.582-.08.519-.345 2.55-.46 3.178-.433 2.353-2.116 3.616-3.57 3.338-1.816-.346-2.076-3.038-1.589-5.042.532-2.197 2.34-4.677 4.422-4.076 1.003.234 1.522.116 1.589-.552.086-.864-.944-1.382-.944-1.382-3.993-2.009-7.56 1.277-8.476 5.918-1.07 5.414 2.278 9.719 7.716 6.63 1.702-.965 1.61 1.291 5.435 1.152 2.781-.27 4.368-2.325 2.925-3.454-.945-.74-1.581.71-3.156.507-3.363-.432.402-10.194 2.35-16.279 1.661-5.19 3.511-8.917 5.09-13.124C91.567.588 90.538.007 89.39 0zM28.636 1.105c-5.773.153-16.488 5.662-24.574 12.043C.747 16.029-1.163 16.713 1 19.018c1.922 1.922 3.155.461 3.155.461 1.826-1.44 5.766-5.47 8.36-7.39 3.694-2.737 8.795-6.68 13.312-7.737 3.584-.908 4.672.148 4.191 3.799-.282 3.133-2.694 10.177-2.694 10.177s-3.709 1.66-4.814 2.072c-.863.32-1.765.102-1.865 2.073-.044 2.112 1.238 1.317 2.096.99.663-.254 2.227-1.003 2.81-1.244.432-.336.908-.049.668.576-.433 1.393-1.217 3.663-2.695 6.93-1.874 4.468-5.233 10.574-5.665 12.112.047 1.008 1.146 1.153 2.602 1.174 1.338-.103 1.958-1.036 1.958-1.036s1.743-3.75 4.422-10.339c1.944-4.785 3.218-8.738 3.753-10.522.289-1.057.91-1.281 1.728-1.474 1.221-.4 2.936-.938 3.984-1.128 2.65-.654 3.411-.513 3.754-2.348.239-1.277-.322-1.866-.322-1.866s-5.774 1.8-6.933 2.119c-1.008.432-.829-.622-.829-.622s-.14.666.484-2.072c1.894-8.33.791-10.547-.714-11.812-.715-.59-1.777-.841-3.11-.806zm78.281 14.782c-.991-.043-3.254 1.639-2.373 5.918-1.201 4.515-10.364 12.394-11.584 9.21-.297-.775.505-2.05 2.603-2.487 3.459-.72 3.17-2.871 1.52-3.085-2.595-.336-3.31-.335-6.403-1.06-1.22-.128-1.184-1.749.253-1.726.594-.024 2.078.18 5.251.3 3.321.124 3.979-2.459 3.847-4.053-3.39.731-4.193.92-7.117.92-3.067 0-6.863.848-6.932 3.547-.07 2.68 3.45 3.286 5.274 3.799.505.12.682.541.345.806-.779.622-2.531 1.435-2.74 2.9-.297 2.077 1.589 3.713 3.984 3.662 3.19-.066 6.726-1.42 10.11-5.48.957-1.147 2.033-3.084 2.695-3.937.158-.308.604-.46.806-.438.604.134 1.474.587 1.359 1.244-.176 1.004-2.928 4.146-1.106 6.032 1.12 1.159 3.951 1.978 6.196.345 2.101-1.528 1.362-2.915.529-3.016-.595-.072-2.269 2.019-3.615.53-1.118-1.237 1.544-3.786 2.072-4.697.762-1.316-2.205-2.328-3.454-3.96-.806-1.075 1.283-4.354-1.336-5.227-.054-.018-.118-.044-.184-.046zm6.08 1.658c-.528 0-.986.18-1.359.553-.375.375-.553.83-.553 1.358 0 .534.181.985.553 1.359.373.376.827.576 1.359.576s.983-.2 1.358-.576c.375-.377.576-.827.576-1.359 0-.53-.201-.985-.576-1.358a1.847 1.847 0 00-1.358-.553zm0 .254c.459 0 .849.159 1.174.483.322.323.484.718.484 1.174 0 .461-.161.85-.484 1.175a1.592 1.592 0 01-1.174.483c-.462 0-.852-.16-1.175-.483a1.612 1.612 0 01-.484-1.175c0-.456.162-.851.484-1.174a1.6 1.6 0 011.175-.483zm-.783.598v2.096h.368v-.806h.299c.203 0 .335 0 .415.046.136.078.207.24.207.483v.184l.023.07c.002.009-.002.015 0 .023h.346l-.023-.023c-.009-.018.002-.036 0-.092-.004-.056-.023-.114-.023-.162v-.161a.57.57 0 00-.115-.322.483.483 0 00-.346-.208.783.783 0 00.299-.092c.137-.089.208-.248.208-.437 0-.265-.104-.438-.323-.53-.122-.05-.336-.069-.598-.069h-.737zm.368.254h.322a.99.99 0 01.461.092c.096.052.138.146.138.299 0 .161-.059.265-.207.322-.08.032-.207.046-.368.046h-.346v-.76zm-63.173.621c-2.819.84-4.247.737-7.231.737-3.133 0-7.366.437-7.186 3.454.152 2.537 3.727 3.245 5.573 3.454.53-.05.684.449.3.713-.833.844-1.784 2.004-1.912 2.948-.279 2.042.768 3.844 3.363 3.799 2.786-.048 3.7-2.07 8.36-4.905 1.3-.79 2.927-2.126 3.593-2.233.256 0 .623.084.598.575-.394 1.86-.825 3.113-.345 4.698.34 1.116 1.814 1.819 2.879 1.013 1.777-1.345 1.794-2.128 4.1-5.158.38-.5 1.794-2.792 2.44-2.487.538.254.376 1.003.277 1.589-.485 2.837-1.715 7.323 3.892 6.631 1.333-.164 2.418-1.072 1.405-2.026-.613-.577-1.303-.167-2.073-.345-1.799-.415 2.653-8.61.53-10.131-2.986-2.139-5.754 1.652-7.83 4.42-.82 1.092-1.426.616-1.958-.92-.592-1.71-4.134-.454-6.172.598-3.252 1.677-9.274 7.289-9.834 4.49-.097-.483.703-1.564 2.165-2.095 1.714-.624 3.638-1.18 3.638-2.21 0-.798-.476-1.364-.99-1.336-2.392.133-5.176.76-8.36-.115-.726-.006-1.044-1.827 1.106-1.589.569.064 1.84.158 6.655.253 3.392.069 3.472-2.473 3.017-3.822z" fill="#fff"/></svg>