<svg width="124" height="21" fill="none" xmlns="http://www.w3.org/2000/svg"><path d="M124 .483l-4.059 20.034h-7.503c-2.523 0-2.963-.514-3.97-2.144l-7.841-11.97c-.243-.327-.547-.742-1.023-.674-.431.07-.574.38-.683.778l-2.837 14.01H90.53L94.595.483h6.725c2.523 0 3.413.35 4.555 2.123l7.942 12.075c.295.478.644.865 1.109.833.213-.029.507-.163.627-.748L118.464.483H124zM9.621.483h15.3c2.9 0 3.347.955 4.139 3.253l5.83 16.781h-7.287l-1.07-3.327H10.139L7.49 20.517H0L10.026 8.804c1.027-1.223 1.548-1.465 3.07-1.465h4.812l-4.752 6.026h12.155L22.626 4.96c-.205-.563-.586-.663-.959-.663H12.95c-1.222 0-1.758-.374-2.146-1.075L9.621.483zm31.325.014l-4.077 20.02h6.599L47.547.497h-6.601zm42.049 0l-4.075 20.02h6.588l4.07-20.02h-6.583zm-4.531.076H59.48c-4.741 0-8.63.674-9.68 5.22-.803 3.492 1.376 6.612 7.13 6.612h9.941c2.19 0 2.986.688 2.82 2.019-.154 1.197-.941 2.056-3.55 2.056H50.875c-.939 0-1.814-.004-2.3 1.472l-.827 2.484h17.529c3.427 0 10.72-.118 11.586-6.045.575-3.848-1.122-5.977-8.013-5.977h-8.94c-1.888 0-3.248-.419-3.095-1.964.162-1.644 1.546-1.79 3.265-1.79h14.747c1.59 0 2.072 0 2.587-1.376l1.05-2.711z" fill="#fff"/></svg>