<svg width="107" height="19" fill="none" xmlns="http://www.w3.org/2000/svg"><g opacity=".4" clip-path="url(#clip0_238_30127)" fill="#fff"><path d="M72.198 18.6c0 .115.096.21.213.21h5.275a.213.213 0 00.213-.21V.46a.213.213 0 00-.213-.212H72.41a.213.213 0 00-.213.211V18.6zm-24.628-.226L39.802.551a.353.353 0 00-.297-.193h-7.817a.353.353 0 00-.297.193l-7.769 17.823c-.046.107.012.194.129.194h5.496c.117 0 .25-.088.293-.196l1.122-2.754a.342.342 0 01.293-.196h9.297c.117 0 .247.089.288.198l1.056 2.75a.334.334 0 00.288.198h5.557c.118 0 .176-.087.13-.194zM32.208 11.55l2.564-6.625c.305-.665.595-.756.87-.756.29 0 .626.272.81.787l2.528 6.594h-6.772zM95.432.137h-6.02c-7.282.107-8.397 2.405-8.397 9.128 0 1.14 0 2.282.056 3.423.197 4.48 2.669 5.872 6.797 6.178 1.292.084 4.301.139 4.426.134 0 0 3.39-.05 4.683-.134 4.128-.306 6.6-1.697 6.796-6.178.056-1.141.056-2.282.056-3.423 0-6.723-1.114-9.02-8.397-9.128zm2.64 9.907c0 3.061-.197 4.258-3.595 4.341-.886.049-3.223.049-4.11 0-3.398-.083-3.595-1.28-3.595-4.341v-.752c0-.723 0-1.447.085-2.17.337-2.56 2.275-2.421 4.185-2.477.7-.01 2.06-.01 2.76 0 1.91.056 3.848-.084 4.185 2.477.085.723.085 1.447.085 2.17v.752zm-81.034 1.598c-.157 1.89-.82 2.676-3.549 2.743-.886.049-3.223.049-4.11 0-3.398-.083-3.594-1.28-3.594-4.341v-.752c0-.723 0-1.447.084-2.17.337-2.56 2.275-2.421 4.184-2.477.7-.01 2.062-.01 2.762 0 1.822.053 3.669-.07 4.127 2.143h5.826C22.43 1.964 20.748.23 14.444.136h-6.02C1.143.244.028 2.542.028 9.265c0 1.14 0 2.282.057 3.423.196 4.48 2.668 5.872 6.796 6.178 1.292.084 4.301.139 4.426.134 0 0 3.39-.05 4.683-.134 4.128-.306 6.6-1.697 6.796-6.178.017-.349.028-.697.037-1.046h-5.784zm45.284-4.266c-1.264-.01-2.5-.046-3.763-.055l-1.56-.067c-1.292-.065-3.242.398-3.246-1.694-.002-1.357 1.322-1.387 2.334-1.435 1.46-.045 1.244-.07 2.705-.059.898.007.97.007 1.897.042 1.263.065 2.104.377 2.177 1.77l5.59.04c-.02-1.17.076-2.086-.534-3.175C66.59.534 63.948.124 61.646.08L58.94.004c-2.162-.016-5.243-.01-7.24.504-2.983.73-3.503 2.618-3.524 5.373-.01 1.5.34 2.638.972 3.46.834 1.084 2.159 1.617 3.793 1.704 3.119.166 3.819.223 6.936.246l1.019.007c1.235.01 2.637.4 2.625 1.903-.011 1.587-1.275 1.662-2.54 1.687-.623.012-1.365.01-2.629.001-.898-.006-.637-.046-1.536-.039-1.526.013-2.948-.083-2.935-1.78l-5.617-.042-.007.841c-.03 4.2 2.757 4.726 5.862 4.941 1.263.093 2.555.102 3.819.112 2.443.017 2.416-.038 4.86-.16 4.328-.302 6.357-1.122 6.39-5.686.037-4.815-2.513-5.668-6.866-5.7zm44.461 9.266a1.43 1.43 0 00-1.237-.706c-.251 0-.488.062-.711.188a1.402 1.402 0 00-.517 1.943 1.421 1.421 0 001.228.696 1.428 1.428 0 001.23-.697 1.393 1.393 0 00.007-1.425zm-.193 1.317a1.18 1.18 0 01-.446.435 1.219 1.219 0 01-.598.154 1.212 1.212 0 01-1.043-.59 1.166 1.166 0 01-.168-.608c0-.215.054-.415.162-.602a1.16 1.16 0 01.445-.44c.189-.107.39-.16.604-.16.214 0 .415.053.604.16.189.107.338.253.445.44.108.187.162.387.162.602.002.214-.056.425-.167.609z"/><path d="M105.947 17.692c-.069-.128-.135-.21-.196-.248a.527.527 0 00.345-.495.48.48 0 00-.061-.239.422.422 0 00-.165-.17.645.645 0 00-.31-.058H105v1.746h.278v-.734h.206c.029 0 .076.057.14.17l.058.108.241.456h.315l-.291-.536zm-.477-.408h-.192v-.591h.209c.097 0 .165.013.204.04a.27.27 0 01.119.232.36.36 0 01-.075.22c-.049.066-.138.1-.265.1z"/></g><defs><clipPath id="clip0_238_30127"><path fill="#fff" d="M0 0h107v19H0z"/></clipPath></defs></svg>