<svg width="31" height="37" fill="none" xmlns="http://www.w3.org/2000/svg"><path d="M6.29 8.128c-1.672.362-3.203 1.496-4.198 3.11-1.016 1.645-1.343 3.583-.897 5.317.644 2.503 2.695 3.855 3.86 4.44.922.461 1.493 1.387 1.454 2.357a3.577 3.577 0 01-.02.247c-.232 1.983-2.257 3.707-4.924 4.192a.468.468 0 00.084.93l.028-.001c1.617-.094 7.154-.776 10.473-5.578 2.33-3.371 3.654-8.589 1.052-12.077-1.417-1.9-4.102-3.544-6.913-2.937zm5.09 14.482c-1.606 2.322-3.823 3.604-5.757 4.312 1.006-.88 1.654-1.994 1.797-3.214.01-.089.02-.195.025-.318.054-1.338-.719-2.608-1.97-3.234-1.25-.626-2.849-1.799-3.372-3.834-.383-1.488-.096-3.162.786-4.592.863-1.399 2.175-2.377 3.6-2.685.327-.072.656-.105.981-.105 2.038 0 3.947 1.3 4.98 2.686 2.677 3.588.47 8.754-1.07 10.984zm9.538-14.482c-1.671.362-3.201 1.495-4.197 3.109-1.016 1.645-1.343 3.584-.897 5.318.644 2.503 2.695 3.856 3.86 4.44.922.46 1.493 1.386 1.453 2.356-.004.095-.01.177-.02.248-.232 1.983-2.256 3.706-4.923 4.192a.468.468 0 00.084.93l.027-.001c1.618-.095 7.155-.776 10.474-5.578 2.33-3.371 3.654-8.589 1.052-12.077-1.417-1.9-4.105-3.544-6.913-2.937zm5.09 14.481c-1.605 2.323-3.822 3.604-5.755 4.313 1.005-.88 1.653-1.994 1.796-3.212.01-.09.02-.197.025-.32.055-1.338-.719-2.608-1.97-3.234-1.249-.626-2.848-1.799-3.372-3.834-.383-1.49-.096-3.163.787-4.593.862-1.398 2.174-2.376 3.598-2.685a4.61 4.61 0 01.982-.104c2.038 0 3.948 1.3 4.98 2.685 2.677 3.59.47 8.755-1.07 10.984z" fill="#fff"/></svg>