<svg width="132" height="19" fill="none" xmlns="http://www.w3.org/2000/svg"><mask id="a" fill="#fff"><path d="M19.31 7.905l-4.277 4.26 1.01 6.015a.71.71 0 01-.273.686.675.675 0 01-.723.053l-5.288-2.84-5.288 2.84a.671.671 0 01-.723-.054.71.71 0 01-.273-.686l1.01-6.015L.207 7.905a.713.713 0 01-.173-.719.693.693 0 01.554-.477L6.5 5.832 9.143.359c.231-.479 1-.479 1.231 0l2.644 5.473 5.91.877a.692.692 0 01.555.477.712.712 0 01-.173.72zm28.12 0l-4.276 4.26 1.01 6.015a.71.71 0 01-.274.686.675.675 0 01-.723.053l-5.288-2.84-5.287 2.84a.671.671 0 01-.723-.054.71.71 0 01-.273-.686l1.01-6.015-4.278-4.259a.713.713 0 01-.174-.719.693.693 0 01.555-.477l5.911-.877L37.263.359c.232-.479 1-.479 1.232 0l2.644 5.473 5.91.877a.692.692 0 01.555.477.713.713 0 01-.173.72zm28.121 0l-4.277 4.26 1.01 6.015a.71.71 0 01-.273.686.675.675 0 01-.723.053L66 16.08l-5.287 2.84a.671.671 0 01-.723-.054.71.71 0 01-.274-.686l1.01-6.015-4.277-4.259a.713.713 0 01-.174-.719.693.693 0 01.555-.477l5.91-.877L65.385.359c.231-.479 1-.479 1.232 0l2.643 5.473 5.911.877a.692.692 0 01.555.477.713.713 0 01-.174.72zm28.121 0l-4.277 4.26 1.01 6.015a.71.71 0 01-.273.686.677.677 0 01-.723.053l-5.288-2.84-5.288 2.84a.671.671 0 01-.723-.054.71.71 0 01-.273-.686l1.01-6.015-4.277-4.259a.713.713 0 01-.174-.719.693.693 0 01.555-.477l5.91-.877L93.506.359c.231-.479 1-.479 1.232 0l2.643 5.473 5.911.877a.692.692 0 01.555.477.712.712 0 01-.174.72zm28.121 0l-4.277 4.26 1.01 6.015a.71.71 0 01-.273.686.677.677 0 01-.723.053l-5.289-2.84-5.287 2.84a.671.671 0 01-.723-.054.71.71 0 01-.273-.686l1.01-6.015-4.278-4.259a.714.714 0 01-.173-.719.692.692 0 01.554-.477l5.911-.877 2.644-5.473c.231-.479 1-.479 1.231 0l2.644 5.473 5.911.877a.692.692 0 01.554.477.714.714 0 01-.173.72z"/></mask><path d="M19.31 7.905l-4.277 4.26 1.01 6.015a.71.71 0 01-.273.686.675.675 0 01-.723.053l-5.288-2.84-5.288 2.84a.671.671 0 01-.723-.054.71.71 0 01-.273-.686l1.01-6.015L.207 7.905a.713.713 0 01-.173-.719.693.693 0 01.554-.477L6.5 5.832 9.143.359c.231-.479 1-.479 1.231 0l2.644 5.473 5.91.877a.692.692 0 01.555.477.712.712 0 01-.173.72zm28.12 0l-4.276 4.26 1.01 6.015a.71.71 0 01-.274.686.675.675 0 01-.723.053l-5.288-2.84-5.287 2.84a.671.671 0 01-.723-.054.71.71 0 01-.273-.686l1.01-6.015-4.278-4.259a.713.713 0 01-.174-.719.693.693 0 01.555-.477l5.911-.877L37.263.359c.232-.479 1-.479 1.232 0l2.644 5.473 5.91.877a.692.692 0 01.555.477.713.713 0 01-.173.72zm28.121 0l-4.277 4.26 1.01 6.015a.71.71 0 01-.273.686.675.675 0 01-.723.053L66 16.08l-5.287 2.84a.671.671 0 01-.723-.054.71.71 0 01-.274-.686l1.01-6.015-4.277-4.259a.713.713 0 01-.174-.719.693.693 0 01.555-.477l5.91-.877L65.385.359c.231-.479 1-.479 1.232 0l2.643 5.473 5.911.877a.692.692 0 01.555.477.713.713 0 01-.174.72zm28.121 0l-4.277 4.26 1.01 6.015a.71.71 0 01-.273.686.677.677 0 01-.723.053l-5.288-2.84-5.288 2.84a.671.671 0 01-.723-.054.71.71 0 01-.273-.686l1.01-6.015-4.277-4.259a.713.713 0 01-.174-.719.693.693 0 01.555-.477l5.91-.877L93.506.359c.231-.479 1-.479 1.232 0l2.643 5.473 5.911.877a.692.692 0 01.555.477.712.712 0 01-.174.72zm28.121 0l-4.277 4.26 1.01 6.015a.71.71 0 01-.273.686.677.677 0 01-.723.053l-5.289-2.84-5.287 2.84a.671.671 0 01-.723-.054.71.71 0 01-.273-.686l1.01-6.015-4.278-4.259a.714.714 0 01-.173-.719.692.692 0 01.554-.477l5.911-.877 2.644-5.473c.231-.479 1-.479 1.231 0l2.644 5.473 5.911.877a.692.692 0 01.554.477.714.714 0 01-.173.72z" stroke="#FE3D3D" stroke-width="3.2" mask="url(#a)"/></svg>