<svg width="19" height="19" fill="none" xmlns="http://www.w3.org/2000/svg"><g clip-path="url(#clip0_450_42906)"><path d="M16.212 10.565c-.207-2.684-1.457-4.367-2.56-5.851C12.633 3.34 11.75 2.153 11.75.402a.375.375 0 00-.593-.305C9.5 1.282 8.119 3.279 7.637 5.185 7.3 6.51 7.256 8.003 7.25 8.988c-1.53-.327-1.876-2.614-1.88-2.64a.377.377 0 00-.535-.284c-.08.04-1.968.999-2.078 4.83A6.758 6.758 0 009.5 18.026l.015-.001h.005a6.758 6.758 0 006.73-6.75c0-.187-.038-.71-.038-.71zM9.5 17.275c-1.24 0-2.25-1.074-2.25-2.396 0-.045 0-.09.003-.146.015-.557.12-.938.237-1.19.217.466.606.896 1.238.896a.375.375 0 00.375-.375c0-.534.011-1.15.144-1.706.118-.493.401-1.017.76-1.437.158.545.469.987.772 1.418.434.617.883 1.254.962 2.341.004.065.01.13.01.2-.001 1.32-1.01 2.396-2.251 2.396z" fill="#fff"/></g><defs><clipPath id="clip0_450_42906"><path fill="#fff" transform="translate(.5 .026)" d="M0 0h18v18H0z"/></clipPath></defs></svg>