<svg width="115" height="37" fill="none" xmlns="http://www.w3.org/2000/svg"><g clip-path="url(#clip0_286_30671)"><path d="M14.163.003h1.023c3.55.076 7.043 1.484 9.551 3.975-.926.932-1.871 1.826-2.778 2.758-1.409-1.255-3.107-2.225-4.96-2.567-2.74-.571-5.691-.058-7.988 1.483-2.508 1.617-4.206 4.356-4.573 7.285-.405 2.89.425 5.934 2.335 8.178 1.833 2.187 4.631 3.557 7.525 3.652 2.702.152 5.519-.666 7.487-2.53 1.544-1.312 2.258-3.31 2.49-5.25-3.204 0-6.407.02-9.61 0V13.07h13.487c.695 4.203-.308 8.94-3.55 11.944-2.161 2.13-5.152 3.386-8.2 3.633-2.953.285-6.001-.266-8.625-1.674-3.146-1.654-5.654-4.45-6.889-7.74C-.27 16.207-.289 12.783.792 9.74c.984-2.777 2.875-5.23 5.306-6.942C8.433 1.106 11.269.174 14.163.003z" fill="#3780FF"/><path d="M91.535.992h4.13v27.16c-1.37 0-2.76.02-4.13-.019.02-9.034 0-18.087 0-27.14z" fill="#38B137"/><path d="M37.337 10.407c2.546-.475 5.306.057 7.409 1.56a8.92 8.92 0 013.647 5.706c.52 2.643-.135 5.534-1.872 7.627-1.872 2.339-4.94 3.594-7.93 3.404-2.74-.152-5.403-1.503-7.024-3.709-1.833-2.434-2.277-5.782-1.273-8.635 1.003-3.062 3.84-5.401 7.043-5.953zm.578 3.614a5.196 5.196 0 00-2.701 1.692c-1.872 2.207-1.756 5.802.309 7.856 1.177 1.179 2.952 1.73 4.592 1.407 1.524-.266 2.856-1.274 3.589-2.606 1.273-2.263.907-5.382-1.042-7.151-1.254-1.141-3.087-1.617-4.747-1.198z" fill="#FA3913"/><path d="M57.791 10.407c2.914-.551 6.098.247 8.278 2.264 3.55 3.138 3.936 9.015.907 12.629-1.833 2.282-4.805 3.537-7.737 3.404-2.798-.076-5.557-1.445-7.217-3.709-1.872-2.491-2.277-5.915-1.215-8.825 1.06-2.967 3.84-5.23 6.984-5.763zm.58 3.614a5.287 5.287 0 00-2.702 1.674c-1.852 2.168-1.775 5.706.212 7.779 1.177 1.236 3.01 1.845 4.708 1.502a5.287 5.287 0 003.59-2.605c1.253-2.283.887-5.402-1.081-7.17a5.226 5.226 0 00-4.728-1.18z" fill="#FCBD06"/><path d="M75.136 11.51c2.219-1.37 5.171-1.75 7.564-.57.752.323 1.37.875 1.968 1.426.019-.514 0-1.046.019-1.579 1.293.02 2.586 0 3.898.02v16.775c-.02 2.53-.676 5.211-2.528 7.056-2.026 2.035-5.133 2.663-7.93 2.245-2.991-.438-5.596-2.587-6.754-5.307 1.158-.552 2.374-.989 3.57-1.503.675 1.56 2.045 2.892 3.763 3.196 1.717.304 3.704-.114 4.823-1.522 1.197-1.445 1.197-3.423 1.139-5.192-.888.856-1.91 1.617-3.145 1.902-2.682.742-5.635-.171-7.7-1.96-2.083-1.787-3.318-4.545-3.202-7.284.058-3.1 1.833-6.086 4.515-7.703zm3.994 2.435a5.093 5.093 0 00-3.03 1.73c-1.813 2.13-1.813 5.535.02 7.627 1.042 1.237 2.72 1.921 4.341 1.75 1.525-.152 2.933-1.103 3.686-2.415 1.273-2.226 1.061-5.25-.656-7.19-1.061-1.198-2.76-1.788-4.361-1.502z" fill="#3780FF"/><path d="M100.625 12.48c2.315-2.13 5.885-2.853 8.856-1.73 2.817 1.046 4.612 3.69 5.519 6.41-4.187 1.711-8.355 3.404-12.542 5.116.579 1.084 1.466 2.073 2.663 2.472 1.678.59 3.685.38 5.094-.723.559-.418 1.003-.97 1.427-1.502 1.062.704 2.123 1.388 3.184 2.092-1.505 2.225-4.033 3.785-6.753 4.032-3.01.362-6.213-.78-8.162-3.1-3.203-3.652-2.894-9.776.714-13.067zm2.064 3.52c-.656.932-.926 2.073-.906 3.195 2.797-1.14 5.595-2.282 8.393-3.442-.463-1.065-1.582-1.712-2.721-1.883-1.833-.323-3.743.646-4.766 2.13z" fill="#FA3913"/></g><defs><clipPath id="clip0_286_30671"><path fill="#fff" d="M0 0h115v37H0z"/></clipPath></defs></svg>