<svg width="114" height="33" fill="none" xmlns="http://www.w3.org/2000/svg"><g clip-path="url(#clip0_286_30647)"><path d="M108.981 28.735c2.243 0 3.831-.405 5.015-1.276v-3.954c-1.215.84-2.679 1.37-4.735 1.37-3.457 0-4.889-2.678-4.889-6.912 0-4.452 1.744-6.724 4.921-6.724 1.868 0 3.706.654 4.671 1.276v-4.11c-1.027-.56-2.803-.964-5.232-.964-6.198 0-9.406 4.452-9.406 10.678.031 6.818 3.177 10.616 9.655 10.616zm-30.305-1.806v-3.953c-1.495 1.027-4.049 1.93-6.384 1.93-3.551 0-4.89-1.681-5.108-5.106h11.71v-2.553c0-7.129-3.145-9.806-7.973-9.806-5.918 0-8.72 4.514-8.72 10.71 0 7.128 3.519 10.584 9.686 10.584 3.083 0 5.357-.84 6.79-1.806zM34.232 7.814v8.095h-6.479V7.814h-4.858V28.33h4.858v-8.56h6.479v8.561h4.858V7.814h-4.858zM60.986 24.47h-2.15V7.814h-14.14v1.744c0 5.012-.311 11.487-2.024 14.912h-1.557V33H45.6v-4.67h10.87V33h4.485v-8.53h.03zm33.17 3.86h5.513l-7.787-11.052 6.852-9.464h-4.89l-6.852 9.464V7.814h-4.858V28.33h4.858V18.244l7.164 10.086zm-23.36-17.09c2.399 0 3.146 1.992 3.146 4.576v.405h-6.758c.124-3.269 1.308-4.981 3.613-4.981zM53.978 24.47h-6.852c1.34-3.081 1.713-8.685 1.713-12.234v-.623h5.139V24.47z" fill="#000"/><path d="M18.847 28.33h-4.952V3.83h-2.211c-4.05 0-6.167 2.023-6.167 5.043 0 3.424 1.464 5.012 4.485 7.036l2.491 1.68L5.33 28.33H.004l6.447-9.588C2.745 16.095.658 13.511.658 9.151.658 3.706 4.458 0 11.652 0h7.164v28.33h.031z" fill="#FC3F1D"/></g><defs><clipPath id="clip0_286_30647"><path fill="#fff" d="M0 0h114v33H0z"/></clipPath></defs></svg>