<svg width="32" height="32" fill="none" xmlns="http://www.w3.org/2000/svg"><rect width="32" height="32" rx="16" fill="#419FD9"/><rect width="32" height="32" rx="16" fill="url(#paint0_linear_23_11479)"/><path d="M7.192 15.647c4.652-2.07 7.755-3.434 9.308-4.093 4.432-1.883 5.353-2.21 5.953-2.22.132-.003.428.03.619.189a.691.691 0 01.227.441c.021.127.048.416.027.642-.24 2.577-1.28 8.83-1.809 11.716-.223 1.221-.664 1.63-1.09 1.67-.927.088-1.631-.625-2.529-1.226-1.405-.94-2.198-1.525-3.562-2.442-1.575-1.06-.554-1.644.344-2.596.235-.25 4.319-4.042 4.398-4.386.01-.043.019-.203-.074-.288-.094-.085-.231-.056-.33-.033-.142.033-2.386 1.547-6.733 4.544-.637.446-1.214.664-1.731.652-.57-.012-1.666-.328-2.481-.599-1-.332-1.794-.507-1.725-1.07.036-.294.432-.594 1.188-.9z" fill="#fff"/><defs><linearGradient id="paint0_linear_23_11479" x1="16" y1="0" x2="16" y2="31.763" gradientUnits="userSpaceOnUse"><stop stop-color="#2AABEE"/><stop offset="1" stop-color="#229ED9"/></linearGradient></defs></svg>