<svg width="81" height="80" fill="none" xmlns="http://www.w3.org/2000/svg"><g clip-path="url(#clip0_31_36864)" fill-rule="evenodd" clip-rule="evenodd"><path d="M60.5 80h-40a20 20 0 01-20-20V20a20 20 0 0120-20h40a20 20 0 0120 20v40a20 20 0 01-20 20z" fill="#199BDF"/><path d="M38 22.5h22.5A11.25 11.25 0 0061.65.058C61.267.036 60.889 0 60.5 0h-40a20 20 0 00-20 20v40A37.501 37.501 0 0138 22.5z" fill="#32B4FF"/><path d="M60.5 40a20 20 0 1020 20V20a20 20 0 01-20 20z" fill="#0082BE"/><path d="M56.85 21.29a3.75 3.75 0 015.137 4.036L56.44 61.375a3.75 3.75 0 01-5.93 2.449L34.158 51.775a2.5 2.5 0 01-.233-3.83l15.259-14.411a.626.626 0 00-.77-.978L28.24 45.713a7.499 7.499 0 01-5.916.993L12.86 44.34a2.5 2.5 0 01-.348-4.736L56.849 21.29z" fill="#fff"/></g><defs><clipPath id="clip0_31_36864"><path fill="#fff" transform="translate(.5)" d="M0 0h80v80H0z"/></clipPath></defs></svg>