<svg width="32" height="32" fill="none" xmlns="http://www.w3.org/2000/svg"><g clip-path="url(#clip0_23_11488)"><path d="M16 32c8.837 0 16-7.163 16-16S24.837 0 16 0 0 7.163 0 16s7.163 16 16 16z" fill="#50ABF1"/><path d="M25.964 9.947a8.572 8.572 0 01-1.715 1.882.726.726 0 00-.274.57v.068a12.018 12.018 0 01-.775 4.182 12.237 12.237 0 01-2.278 3.818 11.158 11.158 0 01-4.92 3.248c-1.253.406-2.563.61-3.88.603a11.843 11.843 0 01-5.938-1.604.34.34 0 01-.162-.378.33.33 0 01.322-.247h.498a7.952 7.952 0 004.449-1.362 4.323 4.323 0 01-3.415-2.93.225.225 0 01.257-.292c.24.046.483.07.727.07h.091a4.324 4.324 0 01-2.518-3.979.228.228 0 01.336-.196c.308.172.639.3.982.382a4.318 4.318 0 01-.7-5.237.226.226 0 01.364-.03 11.304 11.304 0 007.776 4.149h.016a.17.17 0 00.118-.055.158.158 0 00.039-.122 4.658 4.658 0 01.101-1.578c.109-.452.293-.882.546-1.273a4.182 4.182 0 012.28-1.745c.442-.139.902-.21 1.365-.211a4.307 4.307 0 012.853 1.076c.1.09.23.14.364.142a.545.545 0 00.13-.018 7.902 7.902 0 002.108-.871.227.227 0 01.33.264c-.22.688-.61 1.31-1.134 1.807a7.976 7.976 0 001.379-.466.226.226 0 01.278.333z" fill="#fff"/></g><defs><clipPath id="clip0_23_11488"><path fill="#fff" d="M0 0h32v32H0z"/></clipPath></defs></svg>