<svg width="60" height="60" fill="none" xmlns="http://www.w3.org/2000/svg"><g clip-path="url(#clip0_306_30170)"><path d="M30 60c16.569 0 30-13.431 30-30C60 13.431 46.569 0 30 0 13.431 0 0 13.431 0 30c0 16.569 13.431 30 30 30z" fill="#6555CF"/><path d="M33.157 14.21h-6.315a11.053 11.053 0 00-11.053 11.053V30a11.052 11.052 0 006.316 9.99v5.278a.528.528 0 00.896.371l4.587-4.586h5.57A11.053 11.053 0 0044.21 30v-4.737A11.053 11.053 0 0033.157 14.21zm4.137 20.716l-1.579 1.58c-1.681 1.645-6.07-.234-9.94-4.185-3.867-3.951-5.565-8.384-3.947-10.03l1.58-1.58a1.662 1.662 0 012.245.024l2.306 2.369a1.551 1.551 0 01-.632 2.554 1.507 1.507 0 00-1.018 1.816c.394 1.752 2.62 3.947 4.279 4.377a1.579 1.579 0 001.843-.979 1.546 1.546 0 012.586-.552l2.301 2.368a1.658 1.658 0 01-.024 2.238zM31.436 21.71c-.157 0-.314.009-.47.028a.527.527 0 01-.114-1.046 5.27 5.27 0 015.826 5.814.526.526 0 11-1.045-.114 4.22 4.22 0 00-4.196-4.682zm3.158 4.212a.53.53 0 01-1.054 0 2.104 2.104 0 00-2.104-2.104.528.528 0 110-1.054 3.158 3.158 0 013.158 3.158zm4.015 1.71a.53.53 0 11-1.026-.245 6.316 6.316 0 00-6.146-7.772h-.49a.526.526 0 01-.079-1.05 6.76 6.76 0 01.568-.024 7.382 7.382 0 017.37 7.381 7.48 7.48 0 01-.197 1.71z" fill="#fff"/></g><defs><clipPath id="clip0_306_30170"><path fill="#fff" d="M0 0h60v60H0z"/></clipPath></defs></svg>