<svg width="24" height="24" fill="none" xmlns="http://www.w3.org/2000/svg"><path d="M12.004 6c-6.059 0-9.85 5.856-9.85 5.856a.909.909 0 000 1.014s3.791 5.856 9.85 5.856c6.06 0 9.842-5.856 9.842-5.856a.909.909 0 000-1.014S18.064 6 12.004 6zm0 1.818c4.36 0 7.252 3.722 7.862 4.542-.607.817-3.498 4.548-7.862 4.548-4.363 0-7.256-3.73-7.863-4.548.61-.82 3.503-4.542 7.863-4.542zm0 .912c-1.997 0-3.637 1.633-3.637 3.63a3.65 3.65 0 003.637 3.636 3.643 3.643 0 003.629-3.636 3.639 3.639 0 00-3.629-3.63zm0 1.81c1.015 0 1.818.806 1.818 1.82a1.804 1.804 0 01-1.818 1.818 1.806 1.806 0 01-1.819-1.818c0-1.014.805-1.82 1.82-1.82z" fill="#D7D7D7"/></svg>