<svg width="80" height="80" fill="none" xmlns="http://www.w3.org/2000/svg"><g clip-path="url(#clip0_31_36839)" fill-rule="evenodd" clip-rule="evenodd"><path d="M60 80H20A20 20 0 010 60V20A20 20 0 0120 0h40a20 20 0 0120 20v40a20 20 0 01-20 20z" fill="#4682C3"/><path d="M37.5 22.5H60A11.25 11.25 0 0061.15.058C60.767.036 60.389 0 60 0H20A20 20 0 000 20v40a37.501 37.501 0 0137.5-37.5z" fill="#5F9BDC"/><path d="M60 40a20 20 0 1020 20V20a20 20 0 01-20 20z" fill="#2D69AA"/><path d="M66.397 27.255c.405-1.272 0-2.196-1.793-2.196h-5.956a2.633 2.633 0 00-2.602 1.676A50.725 50.725 0 0148.7 38.936c-1.388 1.388-2.023 1.852-2.775 1.852-.405 0-.925-.464-.925-1.737V27.197C45 25.695 44.536 25 43.265 25h-9.133a1.435 1.435 0 00-1.503 1.387c0 1.447 2.14 1.793 2.371 5.842v8.788c0 1.91-.347 2.257-1.099 2.257-2.025 0-7.754-7.46-10.704-15.962C22.62 25.636 22.044 25 20.538 25h-6.013c-1.735 0-2.024.809-2.024 1.676 0 3.82 10.797 30.765 28.221 30.765 3.815 0 4.279-.866 4.279-2.312V49.75c0-1.736.347-2.025 1.561-2.025 3.102 0 8.714 6.928 10.164 8.379a3.683 3.683 0 002.79 1.395h5.956c1.735 0 2.339-1.054 1.878-2.73-1.073-3.45-8.534-10.548-8.932-11.091-.868-1.158-.637-1.619 0-2.662-.058 0 7.228-10.292 7.98-13.762z" fill="#fff"/></g><defs><clipPath id="clip0_31_36839"><path fill="#fff" d="M0 0h80v80H0z"/></clipPath></defs></svg>