<svg width="60" height="60" fill="none" xmlns="http://www.w3.org/2000/svg"><rect width="60" height="60" rx="30" fill="#0DC143"/><path d="M43.437 16.514c-3.216-3.31-7.662-5.108-12.203-5.108-9.648 0-17.405 7.852-17.31 17.406 0 3.027.85 5.96 2.27 8.608l-2.46 8.986 9.176-2.365c2.554 1.42 5.392 2.082 8.23 2.082 9.554 0 17.31-7.852 17.31-17.406 0-4.635-1.797-8.986-5.013-12.203zM31.234 43.19c-2.554 0-5.108-.662-7.283-1.986l-.568-.284-5.486 1.419 1.419-5.392-.379-.568c-4.162-6.716-2.176-15.608 4.635-19.77 6.811-4.162 15.608-2.176 19.77 4.635 4.163 6.81 2.176 15.608-4.635 19.77-2.175 1.42-4.824 2.176-7.473 2.176zm8.325-10.5l-1.04-.473s-1.514-.662-2.46-1.135c-.095 0-.19-.095-.284-.095-.284 0-.473.095-.662.19 0 0-.095.094-1.42 1.608a.52.52 0 01-.472.283h-.095c-.094 0-.283-.094-.378-.189l-.473-.189c-1.04-.473-1.987-1.04-2.743-1.797-.19-.19-.473-.379-.663-.568-.662-.662-1.324-1.419-1.797-2.27l-.094-.19c-.095-.094-.095-.188-.19-.378 0-.189 0-.378.095-.473 0 0 .378-.473.662-.756.19-.19.284-.473.473-.663.19-.283.284-.662.19-.945-.095-.473-1.23-3.027-1.514-3.595-.19-.284-.378-.378-.662-.473H24.99c-.19 0-.378.095-.567.095l-.095.094c-.19.095-.378.284-.568.378-.189.19-.283.379-.473.568-.662.851-1.04 1.892-1.04 2.933 0 .756.19 1.513.473 2.175l.095.284a15.758 15.758 0 003.5 4.824l.378.379c.284.283.567.473.757.756 1.986 1.703 4.256 2.933 6.81 3.595.284.095.663.095.946.19h.946c.473 0 1.04-.19 1.42-.38.283-.188.472-.188.661-.378l.19-.189c.189-.189.378-.283.567-.473.19-.189.379-.378.473-.567.19-.379.284-.852.379-1.325v-.662s-.095-.094-.284-.189z" fill="#fff"/></svg>