<svg width="60" height="60" fill="none" xmlns="http://www.w3.org/2000/svg"><path d="M22.396 58.144c-5.278 0-10.143-4.744-13.884-13.66a.949.949 0 01.497-1.228.934.934 0 011.228.507c2.25 5.353 7.06 14.071 14.025 12.262 5.597-1.462 6.066-5.11 6.713-10.163.44-3.468.947-7.396 3.393-11.08 4.341-6.544 5.063-13.66 1.922-19.023-2.775-4.743-8.118-7.18-14.662-6.712-4.275.31-7.772 2.006-10.388 5.044-3.384 3.918-4.622 9.421-4.34 13.125a.935.935 0 11-1.866.14c-.281-3.797.806-9.862 4.79-14.494 2.954-3.421 6.882-5.343 11.673-5.69 7.284-.535 13.275 2.25 16.415 7.631 3.506 5.99 2.766 13.847-1.978 21-2.203 3.319-2.653 6.863-3.094 10.285-.656 5.118-1.275 9.956-8.1 11.737a8.872 8.872 0 01-2.343.319z" fill="#FE3D3D"/><path d="M28.827 40.2c-.056 0-.112-.01-.178-.019a.94.94 0 01-.75-1.097c.488-2.578 1.19-3.76 2.081-5.269.778-1.303 1.744-2.934 2.897-6.15 1.819-5.09.966-9.328-2.4-11.915-3.722-2.86-9.919-3.16-13.547-.656-6.675 4.603-5.503 13.246-5.484 13.33a.933.933 0 01-.788 1.06.946.946 0 01-1.068-.787c-.057-.403-1.379-9.872 6.271-15.15 4.304-2.972 11.372-2.653 15.75.712 2.354 1.81 5.879 6.038 3.029 14.035-1.21 3.393-2.232 5.1-3.047 6.478-.863 1.453-1.435 2.41-1.857 4.66a.915.915 0 01-.909.768z" fill="#FE3D3D"/><path d="M18.317 46.884a3.95 3.95 0 01-.815-.084c-1.622-.356-2.335-1.66-2.41-1.81-2.231-4.827 1.697-8.615 4.866-11.652 3.16-3.038 4.519-4.65 3.328-6.263-2.475-3.356-9.863-1.181-12.497-.056a.93.93 0 01-1.228-.497.94.94 0 01.497-1.228c.44-.188 10.884-4.547 14.737.675 2.297 3.112-.675 5.962-3.543 8.728-3.02 2.897-6.132 5.897-4.472 9.478 1.66 3.581.365.638 1.143.797.835.169 1.922-.253 3.16-1.219a.938.938 0 011.312.16.938.938 0 01-.16 1.312c-1.387 1.106-2.708 1.66-3.918 1.66zm8.647-26.071c-.3 0-.6-.15-.778-.422-1.416-2.128-2.888-3.282-6.629-3.282-4.115 0-6.703 2.7-6.73 2.72a.934.934 0 11-1.36-1.284c.131-.132 3.178-3.31 8.09-3.31 3.975 0 6.197 1.115 8.194 4.124a.939.939 0 01-.262 1.303.996.996 0 01-.525.15zm16.432 4.312c-.056 0-.112 0-.168-.019a.942.942 0 01-.76-1.087c1.603-8.972-4.172-12.572-4.415-12.722a.932.932 0 01-.32-1.284.941.941 0 011.285-.329c.29.17 7.144 4.36 5.306 14.663a.934.934 0 01-.928.778z" fill="#FE3D3D"/><path d="M48.291 26.147c-.056 0-.112 0-.168-.019a.942.942 0 01-.76-1.087c2.194-12.338-5.766-17.278-6.112-17.475a.944.944 0 01-.328-1.285.941.941 0 011.284-.328c.094.056 9.431 5.766 6.994 19.416a.91.91 0 01-.91.778z" fill="#FE3D3D"/><path d="M53.578 27.084c-.056 0-.113 0-.169-.018a.942.942 0 01-.76-1.088c2.813-15.797-7.415-22.125-7.855-22.387a.944.944 0 01-.328-1.285.941.941 0 011.284-.328c.122.075 11.794 7.21 8.737 24.328a.91.91 0 01-.909.778z" fill="#FE3D3D"/></svg>