<svg width="60" height="60" fill="none" xmlns="http://www.w3.org/2000/svg"><path d="M18.476 53.036c-2.98 0-5.563-2.244-5.902-5.276l-1.16-10.213a5.92 5.92 0 011.253-4.379 5.897 5.897 0 013.98-2.201 3.416 3.416 0 012.515.72 3.4 3.4 0 011.27 2.286l1.737 15.243a3.416 3.416 0 01-3.007 3.777 4.732 4.732 0 01-.686.043zm-1.44-20.393c-.067 0-.135 0-.194.009a4.208 4.208 0 00-2.845 1.575 4.254 4.254 0 00-.898 3.133l1.16 10.214a4.25 4.25 0 004.709 3.743 1.728 1.728 0 001.515-1.906l-1.736-15.243a1.718 1.718 0 00-.635-1.152 1.729 1.729 0 00-1.075-.373z" fill="#FE3D3D"/><path d="M11.589 38.105a.833.833 0 01-.737-.431c-1.406-2.507-3.498-7.69-1.779-14.21C11.656 13.571 21.37 10.04 29.601 10.04c.475 0 .881.373.881.847a.85.85 0 01-.847.847h-.025c-3.726 0-15.955.89-18.902 12.153-1.567 5.944.347 10.67 1.617 12.948a.842.842 0 01-.33 1.152.73.73 0 01-.406.118z" fill="#FE3D3D"/><path d="M10.032 41.51a.854.854 0 01-.644-.297c-1.855-2.176-4.124-6.072-4.37-12.245-.228-5.75 1.694-11.052 5.412-14.93C14.85 9.43 21.49 7 29.637 7a.85.85 0 01.846.847.85.85 0 01-.846.847c-7.673 0-13.897 2.252-17.988 6.512-3.404 3.54-5.157 8.401-4.945 13.694.228 5.69 2.286 9.24 3.963 11.212a.846.846 0 01-.093 1.194.814.814 0 01-.542.204z" fill="#FE3D3D"/><path d="M13.415 48.513c-.034 0-.077 0-.119-.008l-1.075-.144a2.758 2.758 0 01-2.355-2.363l-.804-6.224a2.767 2.767 0 011.075-2.558l1.575-1.177a.85.85 0 011.186.17.85.85 0 01-.17 1.185l-1.575 1.177a1.052 1.052 0 00-.415.983l.814 6.216c.059.474.431.846.897.906l1.076.144a.85.85 0 01.728.957.835.835 0 01-.838.736zm27.389 4.522c-.229 0-.457-.016-.686-.042a3.367 3.367 0 01-2.286-1.27 3.405 3.405 0 01-.72-2.515l1.736-15.244c.101-.906.55-1.72 1.27-2.287a3.405 3.405 0 012.515-.72 5.93 5.93 0 013.98 2.203 5.864 5.864 0 011.254 4.378l-1.16 10.213a5.93 5.93 0 01-2.202 3.98 5.909 5.909 0 01-3.7 1.304zm1.431-20.392c-.39 0-.762.127-1.067.373a1.686 1.686 0 00-.635 1.151l-1.736 15.244c-.05.457.076.906.364 1.27s.695.585 1.152.635a4.264 4.264 0 003.133-.897 4.208 4.208 0 001.576-2.846l1.16-10.213c.262-2.329-1.415-4.446-3.744-4.709-.076-.008-.143-.008-.203-.008z" fill="#FE3D3D"/><path d="M47.683 38.105a.857.857 0 01-.745-1.262c1.278-2.286 3.184-7.003 1.617-12.948-2.947-11.297-15.201-12.17-18.92-12.16a.85.85 0 01-.846-.848c0-.474.407-.855.88-.847 8.24 0 17.946 3.523 20.537 13.423 1.72 6.521-.38 11.695-1.778 14.21a.874.874 0 01-.745.432z" fill="#FE3D3D"/><path d="M49.24 41.51a.846.846 0 01-.644-1.397c1.687-1.974 3.744-5.522 3.965-11.213.211-5.284-1.542-10.145-4.946-13.694-4.082-4.26-10.306-6.512-17.98-6.512a.85.85 0 01-.846-.847.85.85 0 01.847-.847c8.147 0 14.786 2.43 19.207 7.037 3.726 3.88 5.648 9.18 5.411 14.93-.245 6.174-2.515 10.07-4.37 12.246a.828.828 0 01-.643.297z" fill="#FE3D3D"/><path d="M45.861 48.513a.847.847 0 01-.838-.736.855.855 0 01.728-.957l1.076-.144a1.07 1.07 0 00.906-.906l.813-6.216c.05-.382-.11-.754-.415-.983l-1.575-1.177a.85.85 0 01-.17-1.186.85.85 0 011.186-.169l1.575 1.177a2.73 2.73 0 011.075 2.558l-.813 6.216a2.74 2.74 0 01-2.354 2.362l-1.075.145c-.043.016-.085.016-.119.016zm-12.37 4.49a.85.85 0 01-.847-.847V34.067c0-1.11.492-2.15 1.355-2.854l2.499-2.032a2.12 2.12 0 00.787-1.652v-4.471c0-.483-.17-.957-.474-1.338l-2.702-3.354v5.226a2.749 2.749 0 01-2.743 2.743h-2.744a2.743 2.743 0 01-2.744-2.744v-5.225l-2.702 3.354a2.151 2.151 0 00-.474 1.338v4.471c0 .644.288 1.245.788 1.652l2.498 2.032a3.664 3.664 0 011.355 2.854v18.098a.85.85 0 01-.847.847.85.85 0 01-.847-.847V34.067c0-.601-.27-1.16-.736-1.541l-2.499-2.033A3.808 3.808 0 0121 27.53v-4.472c0-.872.296-1.72.847-2.397l3.345-4.158a1.32 1.32 0 011.482-.423c.542.186.89.686.89 1.253v6.259c0 .584.474 1.05 1.05 1.05h2.743a1.05 1.05 0 001.05-1.05v-6.259c0-.576.348-1.067.89-1.253a1.311 1.311 0 011.482.423l3.345 4.158c.542.678.846 1.533.846 2.397v4.471c0 1.16-.516 2.236-1.414 2.965l-2.49 2.032c-.465.381-.736.94-.736 1.541v18.098a.83.83 0 01-.839.838z" fill="#FE3D3D"/></svg>