<svg width="60" height="60" fill="none" xmlns="http://www.w3.org/2000/svg"><path d="M4.378 45.628a.9.9 0 01-.581-.206.947.947 0 01-.15-1.322l10.35-13.003c.731-.863 1.762-1.35 2.85-1.35a3.702 3.702 0 013.525 2.606.94.94 0 01-1.8.544 1.812 1.812 0 00-1.725-1.275 1.85 1.85 0 00-1.406.666L5.11 45.272a.923.923 0 01-.732.356z" fill="#FE3D3D"/><path d="M51.814 53.606H8.183a5.839 5.839 0 01-5.831-5.84 5.91 5.91 0 011.284-3.657c.01-.009.056-.075.066-.084a5.885 5.885 0 014.48-2.09c1.06 0 2.11.29 3.01.834.422.253.806.562 1.153.91l6.3-11.504a.943.943 0 01.825-.487h5.053a.94.94 0 01.938.937.94.94 0 01-.938.938h-4.5l-6.73 12.28a.943.943 0 01-1.65 0 3.927 3.927 0 00-1.426-1.48c-1.594-.957-3.806-.62-5.072.825a.766.766 0 01-.056.075 4.029 4.029 0 00-.872 2.484 3.965 3.965 0 003.956 3.965h43.622a3.965 3.965 0 003.957-3.965c0-.9-.31-1.781-.872-2.484a.77.77 0 01-.057-.075 4.028 4.028 0 00-3.028-1.388 3.937 3.937 0 00-3.468 2.044.943.943 0 01-1.65 0l-6.722-12.282h-4.5a.94.94 0 01-.938-.937.94.94 0 01.938-.938h5.053c.347 0 .656.188.825.488l6.29 11.494a5.833 5.833 0 014.163-1.744 5.87 5.87 0 014.481 2.09.337.337 0 01.066.094 5.878 5.878 0 011.275 3.657c.037 3.215-2.578 5.84-5.794 5.84z" fill="#FE3D3D"/><path d="M55.62 45.628a.923.923 0 01-.731-.356l-10.35-13.003a1.826 1.826 0 00-1.388-.647c-.787 0-1.5.525-1.725 1.275a.94.94 0 01-1.8-.544c.46-1.537 1.913-2.606 3.525-2.606a3.69 3.69 0 012.831 1.331L56.352 44.1a.949.949 0 01-.15 1.322.9.9 0 01-.582.206zM30 40.894a.948.948 0 01-.712-.328c-.468-.544-11.503-13.416-11.503-21.957 0-6.74 5.485-12.215 12.216-12.215 6.731 0 12.215 5.484 12.215 12.215 0 8.55-11.034 21.413-11.503 21.957a.948.948 0 01-.712.328zm0-32.625c-5.7 0-10.34 4.64-10.34 10.34 0 6.675 7.903 16.885 10.34 19.875 2.438-3 10.341-13.209 10.341-19.875 0-5.7-4.64-10.34-10.34-10.34z" fill="#FE3D3D"/><path d="M30 25.369c-3.787 0-6.871-3.085-6.871-6.872 0-3.788 3.084-6.872 6.872-6.872 3.787 0 6.872 3.084 6.872 6.872 0 3.787-3.085 6.872-6.872 6.872zm0-11.86a5.001 5.001 0 00-4.996 4.997A5.001 5.001 0 0030 23.503a5.001 5.001 0 004.997-4.997A5.001 5.001 0 0030 13.51zm-7.105 40.097a.95.95 0 01-.835-.506.946.946 0 01.403-1.266l13.181-6.862-3.843-7.931a.946.946 0 01.431-1.257.946.946 0 011.256.432l4.238 8.747a.93.93 0 01-.413 1.237l-13.987 7.284a.792.792 0 01-.431.122z" fill="#FE3D3D"/><path d="M31.397 49.172a.918.918 0 01-.487-.14l-15.3-9.46a.932.932 0 01-.3-1.294.94.94 0 011.293-.3l15.29 9.46a.93.93 0 01.3 1.293.906.906 0 01-.796.44zm3.787-6.347a.95.95 0 01-.919-.75.94.94 0 01.731-1.106l9.356-1.922a.94.94 0 011.107.731.94.94 0 01-.732 1.106l-9.356 1.922c-.056.01-.122.019-.187.019z" fill="#FE3D3D"/></svg>