<svg width="60" height="60" fill="none" xmlns="http://www.w3.org/2000/svg"><path d="M22.239 57.647c-1.66 0-3.488-.413-5.475-1.228-3.975-1.65-7.228-4.463-9.394-8.138-2.728-4.603-2.765-8.662-.103-11.737 3.019-3.497 6.413-3.994 8.888-4.35 2.54-.375 3.59-.6 3.928-2.56.169-2.643 1.406-11.259 9.9-12.168a.935.935 0 01.919 1.388c-.01.018-.985 1.809-.507 3.384.235.778.788 1.368 1.688 1.828l.14.084c.047.028.15.094.291.188a.93.93 0 01.29 1.293.93.93 0 01-1.293.29 6.257 6.257 0 01-.338-.215c-1.33-.694-2.193-1.678-2.578-2.934-.337-1.125-.215-2.269.019-3.15-5.466 1.519-6.488 7.462-6.666 10.106-.009.113-.018.188-.018.216-.582 3.375-3.085 3.74-5.503 4.097-2.429.356-5.175.759-7.744 3.722-2.11 2.437-2.006 5.653.3 9.553a17.602 17.602 0 008.494 7.359c4.218 1.744 7.434 1.397 9.543-1.05 2.569-2.972 2.578-5.728 2.588-8.156.01-2.419.018-4.922 3.215-6.075 3.46-1.256 5.457-2.897 5.785-4.744.319-1.762-.89-3.862-3.497-6.066a.946.946 0 01-.113-1.322.946.946 0 011.322-.112c3.188 2.7 4.575 5.334 4.135 7.828-.32 1.772-1.791 4.294-6.994 6.178-1.884.685-1.969 1.753-1.978 4.322-.01 2.484-.019 5.878-3.047 9.375-1.594 1.856-3.694 2.794-6.197 2.794z" fill="#FE3D3D"/><path d="M33.233 31.688a.962.962 0 01-.6-.216.946.946 0 01-.122-1.322L53.042 5.606a.946.946 0 011.322-.122c.394.329.45.92.122 1.322L33.955 31.35a.942.942 0 01-.722.337zm-3.964-2.428a.944.944 0 01-.61-.226.936.936 0 01-.093-1.322l21.637-25.03a.936.936 0 011.322-.095.936.936 0 01.094 1.322L29.98 28.941a.969.969 0 01-.712.318zM19.36 49.21a.907.907 0 01-.647-.263l-4.997-4.838a.987.987 0 01-.29-.665.95.95 0 01.272-.675l2.503-2.503a.946.946 0 011.303-.029L22.632 45a.94.94 0 01.019 1.36l-2.635 2.578a.939.939 0 01-.656.271zm-3.665-5.785l3.656 3.534 1.275-1.256-3.75-3.478-1.182 1.2zm9.496-2.803a.933.933 0 01-.637-.253l-3.056-2.832a.935.935 0 01-.047-1.322.926.926 0 011.322-.046l3.056 2.83a.939.939 0 01-.638 1.622zm2.746-2.747a.933.933 0 01-.637-.253l-3.056-2.831a.935.935 0 01-.047-1.322.926.926 0 011.322-.047l3.056 2.831a.934.934 0 01.047 1.322.905.905 0 01-.685.3zm-3.524 12.356a.949.949 0 01-.938-.881.929.929 0 01.872-.994l8.372-.534 4.706-4.538a.934.934 0 111.294 1.35l-4.96 4.782a.977.977 0 01-.59.262l-8.71.553h-.046z" fill="#FE3D3D"/></svg>