<svg width="60" height="60" fill="none" xmlns="http://www.w3.org/2000/svg"><path d="M39.094 39.44H22.266a.94.94 0 01-.938-.937.94.94 0 01.938-.937h16.828a.94.94 0 01.937.937.94.94 0 01-.937.938z" fill="#FE3D3D"/><path d="M54.554 39.44h-3.262a.94.94 0 01-.938-.937.94.94 0 01.938-.937h3.262c1.397 0 2.513-1.107 2.54-2.532.029-1.884-.29-3.58-.956-5.053-.496-1.087-1.293-2.09-2.39-2.981l-10.5-8.56c-2.09-1.696-4.8-2.634-7.613-2.634h-16.36c-6.59 0-8.446 3.44-10.246 6.76l-.066.122c-.206.375-.375.74-.553 1.106-.356.76-.76 1.612-1.518 2.775-.629.975-1.275 1.594-1.894 2.194l-.403.393c-1.34 1.34-1.978 3.178-1.707 4.922.357 2.288 1.922 3.431 4.791 3.488h2.428a.94.94 0 01.938.937.94.94 0 01-.938.938H7.66c-5.09-.104-6.328-3.225-6.618-5.072-.366-2.335.468-4.772 2.23-6.535l.423-.412c.572-.553 1.115-1.069 1.63-1.866a19.513 19.513 0 001.398-2.56c.187-.402.375-.787.6-1.2l.056-.102c1.772-3.272 4.19-7.744 11.897-7.744h16.36c3.252 0 6.374 1.088 8.802 3.056l10.5 8.56c1.322 1.068 2.297 2.306 2.916 3.656.778 1.725 1.163 3.694 1.125 5.86-.047 2.4-2.025 4.359-4.425 4.359z" fill="#FE3D3D"/><path d="M54.064 27h-37.2c-.366 0-.722-.019-1.04-.038-1.417-.112-2.626-.965-3.338-2.334a5.413 5.413 0 01.103-5.184c.843-1.435 1.575-2.54 2.39-3.3 1.06-.975 2.503-1.725 4.19-2.157a.943.943 0 011.145.666.935.935 0 01-.666 1.144c-1.387.365-2.56.956-3.394 1.725-.684.637-1.387 1.753-2.053 2.869-.581.993-.61 2.325-.056 3.365.412.788 1.069 1.275 1.81 1.331.262.02.58.038.909.038h37.2a.94.94 0 01.937.937.934.934 0 01-.937.938z" fill="#FE3D3D"/><path d="M23.617 27a.94.94 0 01-.937-.938V14.887a.94.94 0 01.937-.937.94.94 0 01.938.938v11.175a.94.94 0 01-.938.937zm13.125 0a.94.94 0 01-.937-.938V14.934a.94.94 0 01.937-.937.94.94 0 01.938.937v11.129a.94.94 0 01-.938.937zm20.982 5.719h-3.366a2.196 2.196 0 01-1.79-.928 2.13 2.13 0 01-.272-1.95c.58-1.64 2.765-2.869 3.018-3.01a.941.941 0 011.275.375.943.943 0 01-.375 1.275c-.693.375-1.884 1.257-2.147 1.988a.262.262 0 00.038.244c.028.037.112.14.262.14h3.366a.94.94 0 01.938.938.94.94 0 01-.947.928zm-55.85.825a.94.94 0 01-.938-.872.942.942 0 01.872-1.003c1.997-.141 3.562-.797 4.528-1.922a.605.605 0 00.131-.516.584.584 0 00-.347-.431l-1.387-.638a.94.94 0 01.787-1.706l1.388.638a2.468 2.468 0 011.397 1.743 2.454 2.454 0 01-.544 2.138c-.91 1.05-2.653 2.344-5.822 2.569h-.065zM16.19 46.06c-3.882 0-7.042-3.16-7.042-7.041 0-3.882 3.16-7.041 7.041-7.041 3.881 0 7.04 3.16 7.04 7.04-.009 3.882-3.159 7.041-7.04 7.041zm0-12.207a5.17 5.17 0 00-5.167 5.166 5.17 5.17 0 005.166 5.165 5.17 5.17 0 005.166-5.165 5.175 5.175 0 00-5.166-5.166z" fill="#FE3D3D"/><path d="M16.19 42.038a3.023 3.023 0 01-3.018-3.02A3.022 3.022 0 0116.191 36a3.017 3.017 0 013.018 3.019c-.009 1.66-1.359 3.019-3.018 3.019zm0-4.163c-.628 0-1.143.516-1.143 1.144 0 .628.515 1.144 1.144 1.144.628 0 1.143-.516 1.143-1.144a1.154 1.154 0 00-1.143-1.144zm29.007 8.185c-3.881 0-7.04-3.16-7.04-7.041 0-3.882 3.159-7.041 7.04-7.041 3.881 0 7.04 3.16 7.04 7.04-.009 3.882-3.159 7.041-7.04 7.041zm0-12.207a5.17 5.17 0 00-5.166 5.166 5.17 5.17 0 005.166 5.165 5.17 5.17 0 005.165-5.165 5.175 5.175 0 00-5.165-5.166z" fill="#FE3D3D"/><path d="M45.198 42.038a3.023 3.023 0 01-3.018-3.02A3.022 3.022 0 0145.198 36a3.017 3.017 0 013.02 3.019 3.03 3.03 0 01-3.02 3.019zm0-4.163c-.628 0-1.143.516-1.143 1.144 0 .628.515 1.144 1.143 1.144.629 0 1.144-.516 1.144-1.144 0-.628-.515-1.144-1.144-1.144zm-19.726-5.606h-.722a.94.94 0 01-.938-.938.94.94 0 01.938-.937h.722a.94.94 0 01.937.937.934.934 0 01-.937.938zm11.269 0h-.721a.94.94 0 01-.938-.938.94.94 0 01.938-.937h.721a.94.94 0 01.938.937.94.94 0 01-.938.938z" fill="#FE3D3D"/></svg>