<svg width="60" height="60" fill="none" xmlns="http://www.w3.org/2000/svg"><path d="M35.765 28.566c-.562 0-1.125-.15-1.678-.441-.666-.347-1.06-.947-1.078-1.65-.028-.844.497-1.697 1.369-2.222.478-.281 1.584-.778 3.13-.375v-8.166c0-.393.245-.74.61-.88l8.578-3.216a.935.935 0 011.266.872v9.946c0 .14-.038.281-.094.413-.093.187-.928 1.81-2.531 2.334-.863.281-1.781.188-2.672-.281-.666-.347-1.06-.947-1.078-1.65-.028-.844.497-1.697 1.369-2.222.468-.281 1.584-.778 3.131-.375v-6.816l-6.703 2.513v9.3c0 .14-.038.281-.094.412-.094.188-.928 1.81-2.531 2.335a2.807 2.807 0 01-.994.169zm-.881-2.138s.028.019.075.047c.44.234.834.281 1.219.16.459-.15.834-.535 1.087-.863-1.097-.375-1.781 0-1.997.15-.319.215-.394.45-.384.506zm8.578-3.216s.028.02.075.047c.44.225.834.282 1.21.16.45-.141.834-.525 1.096-.863-1.097-.375-1.781 0-1.997.15-.318.216-.393.45-.384.506zM18.714 51.89a.942.942 0 01-.45-.112.95.95 0 01-.478-.947l.9-6.797H8.373c-3.609 0-6.553-2.934-6.553-6.544V26.25c0-3.61 2.944-6.553 6.553-6.553h16.941a.94.94 0 01.938.937.94.94 0 01-.938.938H8.374c-2.579-.01-4.679 2.09-4.679 4.678V37.5c0 2.578 2.1 4.669 4.678 4.669h11.382a.92.92 0 01.703.318.928.928 0 01.225.741l-.722 5.484 7.64-6.328a.942.942 0 01.6-.215h.863a4.677 4.677 0 004.678-4.67v-5.98a.94.94 0 01.938-.938.94.94 0 01.937.938v5.98c0 3.61-2.944 6.545-6.553 6.545h-.534l-9.216 7.64a.933.933 0 01-.6.207z" fill="#FE3D3D"/><path d="M41.277 40.313a.942.942 0 01-.45-.113.95.95 0 01-.479-.947l.9-6.797H30.936c-3.61 0-6.553-2.934-6.553-6.544v-11.25c0-3.609 2.944-6.553 6.553-6.553h20.69c3.61 0 6.554 2.944 6.554 6.553v11.25c0 3.61-2.944 6.544-6.553 6.544h-.535l-9.215 7.64a.982.982 0 01-.6.217zM30.936 9.983a4.685 4.685 0 00-4.678 4.678v11.25c0 2.579 2.1 4.67 4.678 4.67h11.381a.92.92 0 01.703.318.928.928 0 01.225.74l-.722 5.485 7.641-6.328a.923.923 0 01.6-.216h.872a4.677 4.677 0 004.678-4.668v-11.25c0-2.579-2.1-4.679-4.678-4.679h-20.7zm-19.92 22.801h-2.11a.94.94 0 01-.937-.937.94.94 0 01.937-.938h2.11a.94.94 0 01.937.938.94.94 0 01-.937.937zm6.148 0h-2.11a.94.94 0 01-.937-.937.94.94 0 01.938-.938h2.11a.94.94 0 01.937.938.94.94 0 01-.938.937zm6.602 0h-2.11a.94.94 0 01-.937-.937.94.94 0 01.937-.938h2.11a.94.94 0 01.937.938.94.94 0 01-.937.937z" fill="#FE3D3D"/></svg>