<svg width="30" height="30" fill="none" xmlns="http://www.w3.org/2000/svg"><g clip-path="url(#clip0_349_74421)"><path d="M15 30c8.284 0 15-6.716 15-15 0-8.284-6.716-15-15-15C6.716 0 0 6.716 0 15c0 8.284 6.716 15 15 15z" fill="#FE3D3D"/><path d="M13.53 24.492v-1.865c0-2.53-.293-3.783-1.309-5.967L7.28 5.977h3.42l4.194 9.137c1.229 2.665 1.763 4.05 1.763 7.114v2.264H13.53zm2.004-9.564l3.9-8.951h3.286l-3.953 8.951h-3.233z" fill="#fff"/></g><defs><clipPath id="clip0_349_74421"><path fill="#fff" d="M0 0h30v30H0z"/></clipPath></defs></svg>