<svg width="32" height="32" fill="none" xmlns="http://www.w3.org/2000/svg"><g clip-path="url(#clip0_16_2417)"><path d="M15.995 32.005c-8.82 0-16-7.18-16-16 0-8.825 7.18-16 16-16s16 7.18 16 16-7.18 16-16 16z" fill="#F4213C" opacity=".4"/><path d="M15.995 32.005c-8.82 0-16-7.18-16-16 0-8.825 7.18-16 16-16s16 7.18 16 16-7.18 16-16 16z" fill="#F4213C"/><path d="M24.745 12.43s-.175-1.23-.71-1.77c-.68-.71-1.44-.715-1.79-.755-2.495-.18-6.245-.18-6.245-.18h-.01s-3.745 0-6.245.18c-.35.04-1.11.045-1.79.755-.535.54-.71 1.77-.71 1.77s-.18 1.445-.18 2.89v1.355c0 1.445.18 2.89.18 2.89s.175 1.23.71 1.77c.68.71 1.57.69 1.97.765 1.435.135 6.075.175 6.075.175s3.75-.005 6.245-.185c.35-.04 1.11-.045 1.79-.755.535-.54.71-1.77.71-1.77s.18-1.445.18-2.89V15.32c0-1.445-.18-2.89-.18-2.89zM14.16 18.315V13.3l4.82 2.515-4.82 2.5z" fill="#fff"/></g><defs><clipPath id="clip0_16_2417"><path fill="#fff" d="M0 0h32v32H0z"/></clipPath></defs></svg>