<svg width="81" height="80" fill="none" xmlns="http://www.w3.org/2000/svg"><g clip-path="url(#clip0_31_36847)" fill-rule="evenodd" clip-rule="evenodd"><path d="M60.5 80h-40a20 20 0 01-20-20V20a20 20 0 0120-20h40a20 20 0 0120 20v40a20 20 0 01-20 20z" fill="red"/><path d="M38 22.5h22.5A11.25 11.25 0 0061.65.058C61.267.036 60.889 0 60.5 0h-40a20 20 0 00-20 20v40A37.501 37.501 0 0138 22.5z" fill="#FF5A51"/><path d="M60.5 40a20 20 0 1020 20V20a20 20 0 01-20 20z" fill="#D5002C"/><path d="M31.81 22.345A2.498 2.498 0 0028 24.474v31.052a2.5 2.5 0 003.81 2.129c6.374-3.921 19.099-11.752 25.23-15.526a2.499 2.499 0 000-4.258c-6.131-3.774-18.856-11.605-25.23-15.526z" fill="#fff"/></g><defs><clipPath id="clip0_31_36847"><path fill="#fff" transform="translate(.5)" d="M0 0h80v80H0z"/></clipPath></defs></svg>